<svg width="64" height="69" viewBox="0 0 64 69" fill="none" xmlns="http://www.w3.org/2000/svg">
<g clip-path="url(#clip0_304_620)">
<path d="M36.5788 66.2793L35.134 67.7132C34.2672 68.5734 33.1261 69.0073 31.9925 69.0073C30.8515 69.0073 29.7179 68.5734 28.8511 67.7132C27.1173 65.9926 27.1173 63.1984 28.8511 61.4779L33.9708 56.397C33.3484 58.5514 33.4447 60.9117 34.2968 62.9852C34.808 64.2205 35.5934 65.3529 36.5788 66.2793Z" fill="#F7F4F4"/>
<path d="M55.3461 47.6544L36.5788 66.2794C35.5934 65.3602 34.808 64.2205 34.2968 62.9779C33.4447 60.9044 33.3484 58.5441 33.9708 56.3897L45.9143 44.5367L28.8511 27.5955C27.1173 25.875 27.1173 23.0808 28.8511 21.3529C30.5848 19.625 33.4003 19.6323 35.1414 21.3529L55.3461 41.4117C57.0798 43.1323 57.0798 45.9264 55.3461 47.6544Z" fill="white"/>
<path d="M35.1338 7.5294L30.5105 12.1176C28.7472 12.4706 26.8875 12.5515 25.0796 12.5882C22.5383 12.6397 19.997 12.6323 17.4482 12.5956L28.8509 1.2941C30.5846 -0.426485 33.4001 -0.426485 35.1412 1.2941C36.8824 3.01469 36.8676 5.80881 35.1338 7.5294Z" fill="#F7F4F4"/>
<path d="M35.134 47.6471C34.2671 48.5074 33.1261 48.9412 31.9925 48.9412C30.8515 48.9412 29.7179 48.5074 28.8511 47.6471L8.63897 27.5883C7.80174 26.7647 7.33496 25.6397 7.33496 24.4706C7.33496 23.3015 7.80174 22.1765 8.63897 21.353L17.4558 12.5956C19.9972 12.6324 22.5385 12.6324 25.0872 12.5883C26.895 12.5515 28.7473 12.4706 30.5181 12.1177L18.0708 24.4706L35.1414 41.4118C36.8677 43.1324 36.8677 45.9265 35.134 47.6471Z" fill="white"/>
<path d="M23.4945 49.9192C23.3612 50.1324 23.1611 50.3015 22.9611 50.4633C21.7608 51.4339 20.4049 52.2353 18.9083 52.603C17.3376 52.9853 15.6705 52.875 14.0775 53.0515L8.63184 47.6471C6.89811 45.9265 6.89811 43.1324 8.63184 41.4045C10.3656 39.6839 13.181 39.6839 14.9222 41.4045L23.4945 49.9192Z" fill="white"/>
<path d="M25.043 57.7722C24.1761 58.6324 23.0351 59.0663 21.9015 59.0663C20.7679 59.0663 19.6269 58.6324 18.76 57.7722L14.0923 53.1398C15.6927 52.956 17.3523 53.0736 18.923 52.6913C20.4197 52.3236 21.783 51.5222 22.9758 50.5516C23.1759 50.3898 23.3685 50.2207 23.5093 50.0074L25.043 51.5295C26.7767 53.2574 26.7767 56.0516 25.043 57.7722Z" fill="#F7F4F4"/>
<path d="M55.3538 27.5956C54.4869 28.4559 53.3459 28.8897 52.2123 28.8897C51.0713 28.8897 49.9377 28.4559 49.0709 27.5956L43.0176 21.5882C42.9435 20.8088 43.0324 20.0221 43.314 19.2868C43.7215 18.2353 44.4846 17.3603 45.2107 16.5C45.9368 15.6324 46.6629 14.7206 46.9593 13.625C47.0037 13.4632 47.0333 13.2941 47.0556 13.125L55.3464 21.3529C57.0875 23.0809 57.0875 25.875 55.3538 27.5956Z" fill="white"/>
<path d="M47.063 13.125C47.0408 13.2941 47.0112 13.4559 46.9667 13.625C46.6703 14.7132 45.9442 15.6323 45.2181 16.5C44.4921 17.3676 43.7215 18.2353 43.3214 19.2868C43.0399 20.022 42.951 20.8088 43.0251 21.5882L38.9649 17.5588C37.2311 15.8382 37.2311 13.0441 38.9649 11.3235C40.6986 9.60293 43.5141 9.60293 45.2552 11.3235L47.063 13.125Z" fill="#F7F4F4"/>
<path d="M41.6243 8.7132C43.568 8.7132 45.1436 7.14949 45.1436 5.22055C45.1436 3.29162 43.568 1.72791 41.6243 1.72791C39.6806 1.72791 38.105 3.29162 38.105 5.22055C38.105 7.14949 39.6806 8.7132 41.6243 8.7132Z" fill="white"/>
<path d="M22.242 67.9044C24.1857 67.9044 25.7613 66.3407 25.7613 64.4117C25.7613 62.4828 24.1857 60.9191 22.242 60.9191C20.2983 60.9191 18.7227 62.4828 18.7227 64.4117C18.7227 66.3407 20.2983 67.9044 22.242 67.9044Z" fill="white"/>
<path d="M59.5544 38.9118C62.0095 38.9118 63.9998 36.9366 63.9998 34.5C63.9998 32.0635 62.0095 30.0883 59.5544 30.0883C57.0992 30.0883 55.1089 32.0635 55.1089 34.5C55.1089 36.9366 57.0992 38.9118 59.5544 38.9118Z" fill="white"/>
<path d="M4.44547 39.0074C6.90064 39.0074 8.89095 37.0322 8.89095 34.5956C8.89095 32.1591 6.90064 30.1838 4.44547 30.1838C1.99031 30.1838 0 32.1591 0 34.5956C0 37.0322 1.99031 39.0074 4.44547 39.0074Z" fill="white"/>
</g>
<defs>
<clipPath id="clip0_304_620">
<rect width="64" height="69" fill="white"/>
</clipPath>
</defs>
</svg>
