<svg preserveAspectRatio="xMidYMid meet" overflow="visible" style="display: block;" viewBox="0 0 52.9863 60" fill="none" xmlns="http://www.w3.org/2000/svg">
<path id="Vector" d="M0.00470289 0.0105726C0.00470289 0.243169 -0.00587861 0.401758 0.00470289 0.560346C0.4068 4.95854 0.808897 9.35673 1.20041 13.7655C1.75065 20.0033 2.29031 26.2411 2.84054 32.4684C3.46485 39.4674 4.09974 46.4559 4.70289 53.4549C4.74521 53.9624 4.9251 54.1844 5.40127 54.3113C12.1734 56.1721 18.9244 58.0434 25.6966 59.8936C26.1516 60.0205 26.7018 60.0416 27.1568 59.9148C33.9501 58.054 40.7329 56.1615 47.5262 54.2902C48.0447 54.1421 48.2246 53.9095 48.2669 53.3809C48.4785 50.7378 48.7325 48.0841 48.9653 45.4409C49.3568 41.0639 49.7377 36.6868 50.1293 32.3098C50.5843 27.1715 51.0499 22.0438 51.5049 16.9055C51.8435 13.0783 52.2032 9.26157 52.5418 5.4343C52.7006 3.63696 52.8381 1.83963 52.9863 0H0.00470289V0.0105726ZM42.7645 15.2774C42.4153 19.1469 42.0662 23.0271 41.717 26.8966C41.3149 31.3477 40.9128 35.7987 40.5107 40.2392C40.3943 41.5185 40.225 42.7978 40.1932 44.0876C40.1721 44.7748 39.8758 44.9546 39.3044 45.1132C35.2199 46.2127 31.1461 47.344 27.0722 48.4647C26.8923 48.5175 26.723 48.581 26.5431 48.6338C26.4796 48.6021 26.4161 48.581 26.3421 48.5492C21.9825 47.3651 17.6229 46.1704 13.2633 44.9651C13.0834 44.9123 12.8506 44.6268 12.8295 44.4259C12.5226 41.1273 12.2475 37.8287 11.9512 34.4666H18.607C18.7234 35.7882 18.8504 37.1309 18.9562 38.4842C19.0514 39.7317 19.0408 39.7317 20.2154 40.0489C22.3211 40.6092 24.4374 41.159 26.5431 41.7088L26.5219 41.6559C28.8287 41.0427 31.1355 40.4401 33.4422 39.7846C33.6539 39.7212 33.8972 39.3828 33.929 39.1502C34.0665 38.1353 34.1406 37.1097 34.2253 36.0948C34.3628 34.456 34.5004 32.8173 34.6485 31.1045H26.5219L26.5431 31.0622C26.4902 31.0622 26.4267 31.0622 26.3738 31.0622H11.6444C11.4433 28.8737 11.2528 26.7063 11.0518 24.4755H26.3844C26.4373 24.4755 26.5008 24.4755 26.5537 24.4755L26.5325 24.4332H35.2411C35.4421 22.1601 35.6432 19.9399 35.8442 17.6773H26.5219L26.5431 17.635C26.4902 17.635 26.4267 17.635 26.3738 17.635C21.1571 17.6456 15.9404 17.6456 10.7238 17.6562C10.6497 17.6562 10.5756 17.6245 10.4381 17.5822C10.2476 15.4254 10.0465 13.2686 9.85608 11.0483H26.3738C26.4267 11.0483 26.4902 11.0483 26.5431 11.0483L26.5219 11.006H43.1137C42.9973 12.4862 42.8809 13.8818 42.7645 15.2774Z" fill="var(--fill-0, white)"/>
</svg>
