<svg width="75" height="75" viewBox="0 0 75 75" fill="none" xmlns="http://www.w3.org/2000/svg">
<g clip-path="url(#clip0_105805_1641)">
<path fill-rule="evenodd" clip-rule="evenodd" d="M52.7373 7H40.457V25.5366C38.6237 25.067 37.1066 24.9103 35.1151 24.9103C22.2817 24.9103 14 32.9576 14 45.357C14 58.2262 21.8075 64.9268 36.8062 64.9425C41.8165 64.9425 46.4471 64.4744 52.7373 63.2846V7ZM36.7465 35.0534C38.2639 35.0534 39.4491 35.2099 40.8874 35.6797V55.2042C39.1331 55.439 38.0267 55.5155 36.6677 55.5155C30.3775 55.5155 26.9478 51.9461 26.9478 45.4817C26.9478 38.8421 30.5354 35.0534 36.7465 35.0534Z" fill="white"/>
<path d="M72.8204 54.6023V26.4217H60.5558V50.4064C60.5558 60.9898 60.0026 65.0135 58.2485 68.4875C56.5731 71.8848 53.9496 74.1109 48.5286 76.6302L59.9238 82C65.3448 79.3058 67.9682 76.8664 69.9597 72.9981C72.0934 68.9743 72.8204 64.3073 72.8204 54.6023Z" fill="white"/>
<path d="M71.5985 7H59.3183V19.4778H71.5985V7Z" fill="white"/>
</g>
<defs>
<clipPath id="clip0_105805_1641">
<rect width="75" height="75" fill="white"/>
</clipPath>
</defs>
</svg>
