<svg width="60" height="75" viewBox="0 0 60 75" fill="none" xmlns="http://www.w3.org/2000/svg">
<path d="M59.7145 41.1276V41.1039C59.7142 41.0951 59.7142 41.0864 59.7145 41.0773C59.0007 36.454 57.1489 32.195 54.6924 28.3641C54.3832 27.8797 54.0619 27.4036 53.7333 26.9306C53.5739 26.7012 53.4124 26.4739 53.2481 26.2486C50.0892 21.8904 40.1115 10.0415 34.8698 3.86361C32.8869 1.52578 31.5821 0 31.5821 0C30.9908 0.471048 30.413 0.957112 29.8485 1.4582L29.829 1.4756C25.7411 5.27425 22.3514 9.75287 19.812 14.71L19.804 14.7254C19.315 15.6811 18.8584 16.6539 18.434 17.6438C17.4523 19.937 16.6542 22.3036 16.0476 24.7218C15.6795 26.1833 15.3815 27.6707 15.1533 29.1835C13.8989 28.9793 12.6318 28.8609 11.361 28.8291C11.1206 28.823 10.8803 28.8199 10.64 28.8199C8.56336 28.8183 6.49316 29.0485 4.46817 29.506C3.22864 31.4959 2.23078 33.6251 1.49559 35.8488C0.501732 38.8583 -0.00312619 42.0061 1.45641e-05 45.1735C1.45641e-05 59.651 10.3763 71.7211 24.1393 74.4297C26.0694 74.8098 28.0323 75.0008 30 75C30.3884 75 30.7746 74.9917 31.1598 74.9783C32.1713 74.9388 33.1686 74.8516 34.1518 74.7164C36.4433 74.4005 38.6901 73.8212 40.8468 72.9897C41.4218 72.7686 41.9876 72.5296 42.5444 72.2731C52.8445 67.5512 60 57.1922 60 45.1735C59.9958 43.82 59.9006 42.4683 59.7145 41.1276ZM20.3169 67.9352C17.363 66.6947 14.6796 64.8955 12.4157 62.638C10.1456 60.3872 8.33642 57.72 7.0885 54.7838C5.79406 51.7421 5.13053 48.472 5.1377 45.1693C5.13043 41.8662 5.79393 38.5958 7.0885 35.5539C7.29452 35.0651 7.51733 34.5851 7.75699 34.1142C8.70921 33.9955 9.66794 33.9358 10.6276 33.9358C11.9776 33.9358 13.3249 34.0543 14.6539 34.2902C14.6251 34.957 14.6106 35.6297 14.6106 36.3046C14.5924 48.8593 19.5717 60.9114 28.4611 69.8288C25.6575 69.6647 22.903 69.0242 20.3169 67.9352ZM31.3378 65.4173C30.7351 64.7804 30.1553 64.127 29.5982 63.4574C26.9286 60.2623 24.7469 56.6939 23.1236 52.8669C20.8929 47.6258 19.7492 41.9911 19.7607 36.3004C19.7607 36.1453 19.7607 35.9907 19.7607 35.8364C22.3125 36.9618 24.6327 38.5471 26.6041 40.5122C29.6603 43.5345 31.7765 47.3677 32.6995 51.5542C33.0487 53.1449 33.2241 54.7686 33.2228 56.3966C33.2324 59.5003 32.5931 62.5722 31.3451 65.4173H31.3378ZM54.8642 46.0243C54.7069 50.6691 53.2326 55.1753 50.6115 59.0231C48.4812 62.1482 45.6633 64.7502 42.3713 66.6317L42.3383 66.6162C41.4732 67.1091 40.5789 67.5496 39.6603 67.9352C38.5162 68.4167 37.3367 68.8113 36.1326 69.116C35.9184 69.1705 35.7035 69.2218 35.4878 69.2696C35.3715 69.2962 35.256 69.3217 35.1397 69.3455C35.1849 69.2634 35.2293 69.1785 35.2726 69.0944C35.3396 68.9664 35.4055 68.8384 35.4694 68.7093C36.2556 67.146 36.8889 65.511 37.3603 63.8269C38.037 61.4097 38.3791 58.9119 38.377 56.4028C38.3778 54.5773 38.1974 52.7565 37.8382 50.9663C35.9296 41.4778 29.1256 33.7485 20.1562 30.4859C20.5695 27.4679 21.3108 24.5035 22.3675 21.6446C22.6045 21.005 22.8568 20.3697 23.1246 19.7389C23.5285 18.7886 23.9651 17.8568 24.4349 16.9434C24.4375 16.9388 24.4401 16.934 24.4419 16.929C24.6345 16.5307 24.8334 16.1385 25.0395 15.7473C26.6563 12.6866 28.6944 9.86486 31.0949 7.36369L31.1351 7.41185C33.2631 9.92068 36.111 13.2958 38.9476 16.6966C40.3988 18.4374 41.8472 20.1854 43.1943 21.8289C45.721 24.9122 47.8922 27.6279 49.0655 29.2407C49.2332 29.4722 49.3969 29.7027 49.5576 29.9362C51.2427 32.3681 52.5447 34.8269 53.4275 37.2588C53.9887 38.7922 54.3933 40.378 54.6355 41.9919V42.0123C54.8338 43.34 54.9112 44.6829 54.8663 46.0243H54.8642Z" fill="white"/>
</svg>
