<svg width="75" height="75" viewBox="0 0 75 75" fill="none" xmlns="http://www.w3.org/2000/svg">
<path d="M22.4123 64.1054C19.5551 61.8383 16.5074 59.6645 14.4247 56.6036C10.0424 51.2059 6.6683 44.9564 4.3616 38.389C2.96735 34.1185 2.48985 29.5401 0.692485 25.4346C-1.18774 22.4528 1.01469 19.1932 4.25211 18.2454C5.69348 17.9663 8.22785 16.5947 5.1686 17.5751C2.42589 19.6052 2.16045 15.7322 4.97289 15.487C6.89225 15.2296 7.59881 13.6444 6.94244 12.2174C4.88212 10.8619 11.9384 9.37213 8.38798 7.34953C4.68937 3.32368 13.5616 2.54869 11.3727 7.12082C10.8487 10.6366 17.5722 6.47645 16.0122 10.5364C17.5977 12.4861 21.9497 10.9802 21.8417 13.7155C24.1515 13.8757 24.9442 15.8363 27.1125 15.9869C29.3597 17.0107 33.4335 17.8175 34.1981 20.3723C31.9687 22.1531 26.806 16.694 26.558 21.6233C27.2315 28.905 27.0599 36.4061 29.7006 43.3405C30.9497 47.5393 33.9776 50.8445 36.7122 54.1147C39.3287 57.3175 42.8728 59.5721 46.4851 61.4706C49.6538 62.9783 53.0701 63.9783 56.5235 64.6057C57.9242 63.5248 60.3971 59.5063 62.5822 61.2008C62.6859 63.1048 58.2452 65.181 62.3733 64.9705C64.7973 64.2328 66.4785 66.8618 68.4746 64.4904C70.3136 66.6881 76.1182 63.0863 74.8098 67.5783C73.0404 68.73 70.4599 68.0341 68.6876 69.6184C65.7656 68.146 63.4393 70.9359 60.2044 70.5831C56.6119 71.2323 52.9572 71.4943 49.315 71.5C43.3398 71.0237 37.2381 70.8229 31.5538 68.7241C28.3516 67.7853 25.2266 65.9458 22.4123 64.1054ZM27.4586 66.3114C30.5854 67.6756 33.6429 69.1134 37.0697 69.5471C42.5063 70.31 48.1206 71.4833 53.5768 70.413C51.1074 69.2881 48.5545 70.8513 46.0944 69.6086C43.1438 70.2491 39.9776 69.4454 36.978 69.0497C33.567 67.5168 29.8859 66.4628 26.6916 64.4731C22.7003 63.0023 28.7559 66.3593 29.8338 66.6312C32.3289 68.06 27.09 65.8987 26.3514 65.3048C24.2616 64.1221 23.9953 64.3692 26.1445 65.5703C26.5774 65.8259 27.0051 66.0937 27.4586 66.3114ZM21.5088 62.0693C24.5388 63.2016 21.4955 59.9196 20.107 60.1103C19.4919 59.0336 17.7568 58.3534 18.9807 57.775C16.7791 58.5461 16.6744 54.8427 15.6395 55.3718C13.3104 54.6298 14.733 52.0013 11.9586 50.3872C11.7053 48.6863 9.20206 47.211 8.40363 44.6455C8.051 43.332 5.57549 39.56 7.0962 43.0704C8.39101 46.4498 10.6691 49.3439 12.5649 52.2346C14.0371 54.9869 15.7753 57.8634 18.4563 59.5803C19.36 60.455 20.2326 61.7951 21.5088 62.0693ZM12.7801 52.4007C12.8859 51.939 13.3343 53.3998 12.7801 52.4007V52.4007ZM25.1375 63.4266C24.1727 63.0447 25.8085 63.1235 25.1375 63.4266V63.4266ZM26.7823 64.0319C26.0315 64.4993 26.612 63.1961 26.7823 64.0319V64.0319ZM28.8411 64.8984C27.3306 64.3047 29.8213 63.9568 28.8411 64.8984V64.8984ZM32.3698 66.8826C30.4636 66.5474 32.9655 65.9944 32.3698 66.8826V66.8826ZM25.5938 62.117C23.6274 62.1033 27.1162 61.1234 25.5938 62.117V62.117ZM27.1383 62.894C26.5878 63.1293 27.0951 62.3687 27.1383 62.894V62.894ZM34.8575 67.7548C36.0984 68.5449 42.104 69.4865 38.3434 68.0788C37.7142 68.2126 31.3704 66.2685 34.8575 67.7548ZM22.603 58.1258C20.6768 57.5442 22.4823 57.599 22.603 58.1258V58.1258ZM26.1966 60.2388C24.2554 59.7312 27.1318 59.5807 26.1966 60.2388V60.2388ZM29.2193 62.1086C27.0421 61.5958 30.5613 61.5982 29.2193 62.1086V62.1086ZM21.1407 56.5191C22.5968 57.6457 27.0132 56.6635 23.3707 55.8466C21.7128 54.955 17.9764 54.3447 20.5232 56.3842L21.1407 56.5191L21.1407 56.5191ZM31.2666 62.7543C28.723 62.1589 31.8731 61.7117 31.2666 62.7543V62.7543ZM28.1896 60.2871C31.7502 61.3033 25.1955 58.0154 27.3111 59.9132L27.78 60.1273L28.1896 60.2871L28.1896 60.2871ZM34.3587 63.8843C31.3129 63.4153 37.7307 63.9168 34.3587 63.8843V63.8843ZM19.8432 54.5508C19.0111 54.6039 19.7115 53.9171 19.8432 54.5508V54.5508ZM40.0628 67.1124C38.9623 67.9641 40.1527 65.9679 40.0628 67.1124V67.1124ZM25.5978 58.1061C24.5442 58.0815 25.3939 57.5035 25.5978 58.1061V58.1061ZM20.163 54.1532C17.5126 53.2926 22.099 54.0359 20.163 54.1532V54.1532ZM13.7248 49.9546C11.6182 48.2716 13.4838 49.0183 13.7248 49.9546V49.9546ZM30.6267 60.7764C30.2721 60.3684 30.4599 60.8656 30.6267 60.7764V60.7764ZM41.147 67.2896C40.574 67.5256 41.1133 66.6662 41.147 67.2896V67.2896ZM29.6956 59.8064C28.0449 59.5632 29.885 59.0031 29.6956 59.8064V59.8064ZM21.8582 54.7952C19.551 53.8129 23.2984 54.6396 21.8582 54.7952V54.7952ZM35.116 63.1065C32.9285 62.6685 37.3604 62.2094 35.116 63.1065V63.1065ZM28.2198 58.3836C30.8065 58.7201 25.1421 56.6087 27.6523 58.1947L28.2198 58.3837L28.2198 58.3836ZM37.2096 63.9603C39.6245 62.5038 38.8283 67.3711 41.3066 64.3715C43.7513 62.5707 39.1955 66.5979 42.2084 64.6926C44.3873 63.2223 47.6056 65.3896 49.6388 66.0967C51.1009 66.0242 52.5223 67.3722 54.0212 66.5521C56.9065 65.7681 48.3789 65.3892 50.6143 63.9981C47.9741 64.7733 46.0235 63.0739 44.7244 61.3678C41.7629 60.6779 38.3388 59.1504 36.8608 56.5063C36.2582 55.5135 37.7313 56.6461 36.3406 55.0233C34.5561 53.422 33.665 51.6043 32.4671 49.6578C31.036 48.8876 30.8693 46.6204 30.7246 49.5818C30.7359 47.7128 28.9967 46.4549 28.5722 46.9778C28.5646 45.1779 30.4335 46.0801 29.1252 44.7484C28.8436 42.8828 27.9165 40.9389 27.6378 38.8326C27.2048 37.8173 27.5768 35.6428 26.16 37.9412C25.6438 40.3703 25.9886 34.9561 26.7914 36.7415C27.845 34.9197 26.4131 35.1339 26.3545 35.3869C27.0408 33.8498 26.7889 31.6694 26.1754 32.5012C26.5411 30.872 26.7531 26.5054 25.628 27.2792C26.31 25.5756 26.9214 19.4837 23.9607 21.8064C22.7608 21.8234 20.6829 22.2458 19.7006 22.7386C22.7803 24.4513 19.3909 23.3571 18.1372 23.0849C17.9739 24.6697 16.7322 23.9843 15.1809 23.9998C17.6586 24.3091 13.9743 26.5565 12.5529 25.6835C10.7069 26.5736 14.1461 28.7955 12.5899 29.4825C12.7812 30.5182 9.76183 29.1085 9.99896 31.5003C8.20684 30.7397 9.75219 34.3376 10.6488 33.1208C13.6969 33.953 12.7946 35.8505 12.8722 37.653C12.3755 38.7033 10.4202 35.1842 12.4367 35.3472C10.8459 32.74 10.6769 34.4048 9.35501 35.616C9.04747 35.704 12.727 37.3394 10.4179 38.148C12.4494 38.4643 12.5072 40.2578 12.9208 41.3928C14.1418 42.6759 13.8919 39.976 15.3529 41.5179C14.4284 40.1442 10.4558 37.6474 13.6543 38.4482C13.6372 37.0656 13.0758 35.9507 14.0557 35.9777C15.0261 34.2047 13.0394 40.3493 15.2267 38.0959C15.8322 37.8292 15.9822 36.3206 17.0706 38.2384C18.6514 39.8073 17.6416 40.9442 15.4117 39.5076C15.8106 40.873 18.3947 41.3609 17.9091 43.4961C18.4239 45.3741 19.1441 44.6824 19.7719 44.5738C20.2644 46.3985 20.5441 45.0568 20.5674 44.1885C22.8224 44.6755 22.2942 46.0203 22.9998 46.9598C24.5536 47.6674 20.7757 42.1635 23.4434 45.3048C26.25 47.8613 24.4959 48.9285 21.9772 48.519C23.5714 48.389 24.0855 50.6933 26.0795 50.6123C27.8978 51.485 29.1289 54.837 25.9947 53.4416C24.9076 52.4528 21.0606 51.2328 24.2027 53.1138C27.1047 54.4696 29.4096 55.2807 32.2084 56.9825C34.2115 58.4252 35.0769 60.0776 35.8361 60.4047C34.1526 61.2159 30.7627 59.7569 33.2799 59.3097C31.7098 59.0212 29.9439 58.2202 31.4478 60.1937C32.7265 61.2709 35.9782 61.1568 36.5611 61.2788C36.067 62.3772 35.219 62.4646 36.5814 62.5497C35.0615 63.3669 37.0687 63.4934 37.2096 63.9603H37.2096ZM34.1016 55.1057C33.1769 54.13 32.9379 52.3027 33.9374 53.8927C34.45 54.1004 35.5795 56.879 34.1017 55.1057H34.1016ZM44.223 61.5921C44.2398 62.0341 44.7998 61.5544 44.223 61.5921V61.5921ZM32.6416 52.7135C32.6061 51.2385 32.9761 53.8512 32.6416 52.7135V52.7135ZM31.6357 51.348C30.4726 49.0807 33.1019 51.9901 31.6357 51.348V51.348ZM19.4453 42.8595C19.7814 44.0385 20.1286 42.6756 19.4453 42.8595V42.8595ZM29.1473 48.165C29.5669 46.5751 29.6404 49.499 29.1473 48.165V48.165ZM22.2931 43.3567C21.8099 42.4794 23.3038 44.1795 22.2931 43.3567V43.3567ZM28.1754 45.2591C27.0735 42.7684 28.9555 43.8986 28.4192 45.6673L28.1754 45.2591ZM18.0313 38.4339C17.5387 37.6168 16.7238 35.2192 16.9861 34.4873C17.2235 35.6793 19.4986 39.6171 18.1022 36.1185C16.5589 33.1858 19.9469 37.0704 20.2954 37.8019C20.4577 38.5296 19.3432 37.6031 20.0983 39.3093C18.7213 37.3668 19.2854 40.3824 18.0313 38.4339ZM14.8962 36.2544C15.0253 34.3545 15.6139 37.5572 14.8962 36.2544V36.2544ZM16.3064 36.7442C16.9793 35.3101 17.4474 38.7433 16.3064 36.7442V36.7442ZM12.9141 34.0967C11.7469 32.9265 10.9023 31.8478 12.9688 33.3704C13.765 33.4018 11.1997 30.9174 13.1605 32.5815C15.2224 32.9608 14.1787 35.9923 12.9141 34.0967ZM14.6961 34.0497C15.0559 34.7168 15.3739 33.372 14.6961 34.0497V34.0497ZM15.7925 34.4043C14.7649 32.461 17.0397 35.219 15.7925 34.4043V34.4043ZM13.6128 32.3028C10.2197 29.2563 17.8766 33.8958 14.1672 32.8676L13.6128 32.3028L13.6128 32.3028ZM23.3348 38.0016C21.8664 37.1134 22.9456 31.7485 23.4464 35.4177C24.8738 34.9518 23.3676 37.3126 24.4322 37.2908C24.2645 38.7803 23.7881 39.3158 23.3348 38.0016ZM26.9307 40.1458C27.0747 38.5289 27.2337 41.2512 26.9307 40.1458V40.1458ZM26.3061 39.5231C26.3228 40.3365 26.4677 38.8324 26.3061 39.5231V39.5231ZM14.2785 31.3017C12.0986 28.2674 20.6138 34.371 15.6746 32.0713C15.1585 31.9351 14.5375 31.8865 14.2785 31.3017ZM21.203 35.0057C20.9967 32.4508 21.6637 35.4292 21.2029 35.0057L21.203 35.0057ZM26.4603 38.4082C26.4906 39.3709 26.8671 36.9528 26.4603 38.4082V38.4082ZM14.6124 30.1437C15.908 29.8641 19.9815 32.4392 16.2407 30.8792C15.8251 30.415 14.939 30.6259 14.6124 30.1437ZM25.738 35.738C25.8765 33.1255 26.5114 34.1775 25.7428 36.1119L25.738 35.738L25.738 35.738H25.738ZM15.5768 29.2346C16.1047 28.4534 14.1755 25.7026 15.8549 28.2479C16.5806 28.8296 17.9559 29.2224 16.7416 29.4671C18.6514 31.1669 16.2758 29.9277 15.5768 29.2346ZM25.1877 34.9219C25.5093 36.6655 25.5524 31.9459 25.1877 34.9219V34.9219ZM14.4743 26.4859C14.6873 27.0279 14.8775 26.312 14.4743 26.4859V26.4859ZM16.9812 27.9913C17.6264 26.6254 18.1714 29.5145 16.9812 27.9913V27.9913ZM24.0527 31.96C24.0458 31.4354 24.1861 32.723 24.0527 31.96V31.96ZM23.643 31.045C22.6616 28.6021 24.556 32.3384 23.643 31.045V31.045ZM23.0404 29.4434C22.8757 28.4339 23.6003 30.7115 23.0404 29.4434L23.0404 29.4434ZM24.0212 27.8349C23.3477 26.6375 24.8717 22.5581 25.0417 25.0881C24.3309 27.0594 24.8367 28.1622 25.3326 25.5181C26.2484 23.4372 25.1348 29.6245 24.0212 27.8349L24.0212 27.8349ZM25.0291 21.7682C25.0942 22.2064 25.3227 21.4044 25.0291 21.7682V21.7682ZM23.3459 55.2293C22.9467 54.8778 23.396 55.453 23.3459 55.2293V55.2293ZM26.8133 56.9989C28.7421 57.4982 28.7322 56.6961 26.989 56.4579C26.0514 55.5779 23.0929 54.6445 25.7409 56.3487C25.9163 56.7969 26.4704 56.7864 26.8133 56.9989ZM19.9653 52.4101C21.0279 53.2095 23.9677 54.6757 21.479 52.7143C22.3181 51.7308 19.873 51.2073 20.6841 50.5494C18.6211 49.2758 19.0567 49.3891 20.502 49.4292C18.0226 48.3111 20.8599 48.3948 20.7263 47.8219C19.7703 47.6314 15.9777 46.1211 18.2089 47.9459C15.9408 46.7792 17.6684 48.3805 16.9828 48.2112C14.6636 47.5733 19.0483 49.9934 16.6145 49.3926C17.9451 50.4564 20.1959 52.1175 17.177 50.5184C16.7793 51.096 19.3374 51.9716 19.9653 52.4101ZM23.5918 54.512C21.43 52.7606 28.0013 55.9455 23.5918 54.512V54.512ZM42.1561 65.8582C41.5534 66.611 42.2129 64.9756 42.1561 65.8582V65.8582ZM44.0641 66.6683C45.0815 65.6738 44.1057 68.2525 45.7499 66.4249C45.7676 65.1165 45.6992 64.3437 43.8605 65.933C43.3536 66.2166 43.1273 67.4225 44.0641 66.6683ZM13.7758 47.4777C11.5858 46.245 13.4634 46.2386 13.7758 47.4777V47.4777ZM15.8132 48.8247C13.1137 47.6789 15.0567 47.559 15.8132 48.8247V48.8247ZM27.4044 55.8771C28.5361 56.8913 32.602 56.6212 28.7789 56.0019C28.2127 55.1573 25.1834 55.3606 27.4044 55.8771ZM43.3384 65.8051C41.6508 66.463 45.0801 64.3306 43.3384 65.8051V65.8051ZM46.9608 68.3166C46.2101 68.5238 46.9717 67.8434 46.9608 68.3166V68.3166ZM46.9664 67.6541C48.8952 65.5924 45.0975 67.7761 46.9664 67.6541H46.9664ZM8.76456 43.2451C7.12067 40.8787 7.74267 39.8151 6.15739 37.8829C5.85728 36.4053 3.43779 33.0525 4.90598 36.6046C6.25075 38.682 6.65036 41.8985 8.76456 43.2451ZM46.3614 66.9987C44.9048 65.9908 49.9099 64.6848 46.3614 66.9987V66.9987ZM49.0702 68.0693C47.9462 67.7473 50.8472 66.53 49.0702 68.0693V68.0693ZM13.1719 44.862C11.8584 44.7644 13.6804 44.0987 13.1719 44.862V44.862ZM48.5046 67.3383C50.2251 66.2191 48.1082 66.391 48.1927 67.4413L48.5046 67.3383H48.5046ZM25.1547 52.4901C24.2462 52.5542 25.0956 51.7343 25.1547 52.4901V52.4901ZM26.5977 53.3278C25.8926 53.4747 26.1391 52.3923 26.5977 53.3278V53.3278ZM51.2654 68.0947C53.4696 66.4904 49.9292 67.7875 50.8027 68.3986L51.2654 68.0947ZM50.4213 67.6831C48.5256 68.3558 52.2169 66.1651 50.4213 67.6831V67.6831ZM54.7338 70.5805C53.2691 70.317 55.9394 69.7658 54.7338 70.5805V70.5805ZM14.2776 44.3116C15.8936 44.6769 20.7357 48.3269 17.8791 44.564C16.416 44.1271 17.2934 40.519 15.8011 41.1576C16.8028 42.8458 16.6252 43.5643 14.5222 42.5C11.8791 41.1983 13.0369 43.1451 13.5534 43.6817C12.8495 43.8431 14.4845 44.2981 14.2776 44.3116ZM6.91488 38.4453C7.2042 37.2381 4.25094 31.8038 5.52031 35.7224C5.97852 36.5432 5.93193 38.0989 6.91488 38.4453ZM20.4285 46.8508C19.5964 46.1487 20.389 46.7514 20.4285 46.8508V46.8508ZM22.4778 47.3319C20.2127 46.8126 22.4767 46.0531 22.4778 47.3319V47.3319ZM40.2358 58.6262C39.8971 57.7525 38.897 58.6059 40.2358 58.6262L40.2358 58.6262ZM41.0886 59.2547C40.5966 59.3491 40.9627 58.7656 41.0886 59.2547V59.2547ZM48.1273 63.7276C47.2825 63.6631 48.8042 63.223 48.1273 63.7276V63.7276ZM10.5926 39.3926C8.51797 38.8533 12.5289 38.6362 10.5926 39.3926V39.3926ZM38.6725 57.2403C37.4381 57.554 38.651 55.9756 38.6725 57.2403V57.2403ZM9.82756 37.594C8.67694 37.3148 11.0714 37.1701 9.82756 37.594V37.594ZM13.4377 39.3583C13.0558 39.5156 13.4152 38.9426 13.4377 39.3583V39.3583ZM57.471 66.6C59.0704 66.2728 62.7151 67.4213 63.3042 66.1721C61.3619 66.1246 56.5844 64.7897 56.3583 66.4907L56.7835 66.5583L57.471 66.6ZM14.5851 39.65C13.5946 39.6021 14.6129 38.3685 14.5851 39.65V39.65ZM5.09309 33.0071C3.45357 32.6376 4.66202 30.5654 5.09309 33.0071V33.0071ZM7.35659 33.5811C5.2848 32.8756 7.3844 32.7971 7.35659 33.5811V33.5811ZM8.65012 34.222C8.27621 33.9165 8.35745 34.6081 8.65012 34.222V34.222ZM16.7892 39.4896C15.882 39.2266 17.1723 39.1345 16.7892 39.4896V39.4896ZM7.78857 32.7765C5.16693 32.5002 7.56979 30.9324 7.78857 32.7765V32.7765ZM3.14802 29.7387C2.6958 30.0598 3.08202 28.8876 3.14802 29.7387V29.7387ZM3.83829 29.2128C3.24565 29.3412 3.72567 28.2036 3.83829 29.2128V29.2128ZM7.65218 31.5096C9.2649 30.8704 4.7146 30.1876 7.32265 31.3888L7.65218 31.5096ZM58.6951 63.3181C57.3832 63.0229 59.7273 62.3633 58.6951 63.3181V63.3181ZM64.8615 66.5428C63.82 66.7054 65.2751 65.3084 64.8615 66.5428V66.5428ZM8.04195 29.4928C6.76339 29.7299 8.21184 28.2987 8.04195 29.4928V29.4928ZM2.61571 25.825C2.32421 24.1391 2.36408 21.1799 5.15226 22.18C1.43051 22.9254 7.72813 26.8468 6.93286 23.7508C8.49777 23.8281 9.99418 22.8177 9.17294 24.351C12.2563 24.0074 14.3939 21.31 17.3722 21.688C19.6921 21.3782 22.2287 21.1433 24.7287 20.2012C26.7842 20.0518 28.763 17.8191 27.6363 16.4957C24.8332 16.2564 21.8989 16.6102 18.8006 17.2315C15.3674 17.9516 12.2489 19.3196 8.78486 19.9069C5.40839 20.3645 9.464 21.1677 8.49685 21.3466C6.73496 21.9633 10.598 22.3793 8.26843 23.0294C6.82971 22.7534 5.33219 22.2547 5.94674 20.7251C2.71239 21.1485 -0.129684 22.5028 2.42565 25.8234L2.61571 25.8249L2.61571 25.8248V25.825ZM10.4093 21.8205C11.1677 19.002 14.4721 24.1397 11.6523 22.1948C11.3155 21.9405 10.7616 21.7331 10.4093 21.8205ZM10.5569 20.454C11.1387 20.9152 11.6514 19.6313 10.5569 20.454V20.454ZM11.9466 20.4762C12.0454 19.1793 15.128 21.1628 12.4549 20.9431L11.9466 20.4762ZM13.8477 19.7051C14.0473 20.433 14.542 18.8867 13.8477 19.7051V19.7051ZM14.334 19.3765C15.49 17.9752 20.8805 18.4822 16.9349 19.2399C15.8773 18.4366 15.0666 19.7135 14.334 19.3765ZM21.3688 18.2825C21.1929 14.4547 24.8637 19.6428 21.3688 18.2825V18.2825ZM23.3648 18.2715C24.0946 16.3422 26.1968 17.4973 23.7025 17.8838C23.7567 18.0891 23.6294 18.8798 23.3648 18.2715ZM7.25484 28.5026C4.94003 27.3339 9.4353 27.1555 7.25484 28.5026V28.5026ZM8.86706 28.9546C7.20594 28.6219 9.63155 28.1344 8.86706 28.9546V28.9546ZM4.1167 25.5532C2.64234 25.1861 5.36262 24.5876 4.1167 25.5532V25.5532ZM68.5012 66.19C67.5489 66.6949 68.5372 65.0698 68.5012 66.19V66.19ZM61.9589 61.6857C61.1182 61.7982 62.145 60.396 61.9589 61.6857V61.6857ZM70.3002 66.6244C72.0422 66.6303 75.5783 66.0786 71.7881 66.0804C71.1933 66.1739 68.3225 66.1539 70.3002 66.6244L70.3002 66.6244ZM10.2852 28.164C11.695 28.0663 12.4909 26.5951 10.0126 26.6796C6.17153 26.2785 13.4014 28.0065 9.51981 27.5124C8.99824 27.8609 10.2549 28.2604 10.2852 28.164ZM11.5268 28.798C11.0909 29.2831 11.3796 27.8848 11.5268 28.798V28.798ZM12.9996 24.8358C12.1531 24.6311 13.6114 24.0702 12.9996 24.8358V24.8358ZM8.31109 16.929C10.8271 16.0655 14.2678 15.0951 15.4558 17.3542C14.2468 15.8861 14.9679 14.4408 16.1098 16.5873C17.7245 18.7591 18.5329 15.5995 17.4827 14.8711C18.6795 16.3714 20.0408 17.0803 18.284 14.9659C20.193 12.6492 14.4615 15.2693 13.1588 15.2429C12.532 15.5267 6.68762 16.7466 8.31109 16.929ZM9.78564 14.0799C11.2206 12.9873 14.7484 14.7299 12.4846 12.994C12.2633 12.7968 7.52692 14.3103 9.78564 14.0799ZM15.0169 14.2978C16.6963 14.341 14.2926 12.0217 16.2937 13.0726C15.9651 11.9894 13.9638 11.7866 12.9854 11.3538C12.432 12.3442 14.1118 14.3111 15.0169 14.2978ZM10.7029 9.50689C9.68472 9.90973 11.2839 8.7123 10.7029 9.50689V9.50689ZM12.841 10.0232C15.5474 9.66105 12.1512 8.84737 12.2957 9.99409L12.841 10.0232V10.0232V10.0232ZM8.84875 6.87157C6.94319 4.36193 12.4324 7.29343 10.4964 4.66575C8.86686 3.35665 7.301 6.13894 8.84875 6.87157ZM33.3036 20.1607C34.1776 18.5975 29.6952 18.0537 32.7147 19.6067C32.9927 19.7004 32.9298 20.2688 33.3036 20.1607Z" fill="white"/>
</svg>
