<svg preserveAspectRatio="xMidYMid meet" overflow="visible" style="display: block;" viewBox="0 0 59.992 60" fill="none" xmlns="http://www.w3.org/2000/svg">
<path id="git" d="M58.8744 27.3573L32.6427 1.12561C31.1419 -0.375204 28.6623 -0.375204 27.1615 1.12561L21.7455 6.5416L28.6623 13.4584C30.2936 12.9364 32.1207 13.2626 33.3605 14.5677C34.6656 15.8728 34.9918 17.6998 34.4698 19.3312L41.1256 25.987C42.7569 25.4649 44.584 25.7912 45.8891 27.0963C47.7162 28.8581 47.7162 31.7945 45.8891 33.6215C44.062 35.4486 41.1909 35.4486 39.3638 33.6215C37.9935 32.2512 37.6672 30.2936 38.385 28.5971L32.186 22.398V38.7113C32.6427 38.907 33.0343 39.2333 33.4258 39.5595C35.2529 41.3214 35.2529 44.2578 33.4258 46.0848C31.5987 47.8467 28.7276 47.8467 26.9005 46.0848C25.0734 44.2578 25.0734 41.3866 26.9005 39.5595C27.3573 39.1028 27.8793 38.7765 28.4013 38.5808V22.0718C27.8793 21.876 27.3573 21.4845 26.9005 21.093C25.5302 19.7227 25.2039 17.7651 25.9217 16.0685L19.0701 9.28222L1.12561 27.2268C-0.375204 28.7276 -0.375204 31.2072 1.12561 32.708L27.292 58.8744C28.7928 60.3752 31.2724 60.3752 32.7732 58.8744L58.8091 32.8385C60.3752 31.2724 60.3752 28.8581 58.8744 27.3573Z" fill="var(--fill-0, white)"/>
</svg>
