<svg width="77" height="122" viewBox="0 0 77 122" fill="none" xmlns="http://www.w3.org/2000/svg">
<g clip-path="url(#clip0_105209_1823)">
<path d="M63.1512 31.6751L38.8008 45.3693C38.3626 45.6239 37.8211 45.6239 37.37 45.3693L13.0196 31.6751C12.0657 31.1406 12.0657 29.7788 13.0196 29.2316L37.37 15.5373C37.8083 15.2828 38.3497 15.2828 38.8008 15.5373L63.1512 29.2316C64.1051 29.7661 64.1051 31.1279 63.1512 31.6751Z" fill="white"/>
<path d="M58.936 36.2822V47.571C58.936 48.0801 58.6653 48.5383 58.2141 48.7928L38.8008 59.7126C38.3626 59.9671 37.8212 59.9671 37.37 59.7126L17.9567 48.7928C17.5056 48.5383 17.2349 48.0801 17.2349 47.571V36.2822L27.9985 42.3275L37.37 47.6092C37.8083 47.8638 38.3497 47.8638 38.8008 47.6092L48.1723 42.3275L58.936 36.2822Z" fill="white"/>
<path d="M70.2795 17.6501L70.9498 17.1919C71.7619 16.6319 71.6588 15.4229 70.7693 15.0029L65.4326 12.4957C64.5303 12.0757 63.5119 12.7757 63.5893 13.7556L64.1049 19.5719C64.1951 20.5391 65.3166 21.0609 66.1287 20.5009L67.0826 19.8519C75.5647 33.3424 73.283 51.3129 61.4237 62.2581C49.7577 73.0251 31.7753 74.336 18.6655 65.3762C17.789 64.778 16.5773 64.9944 15.9714 65.8598C15.3655 66.7253 15.5847 67.9216 16.4612 68.5198C22.9452 72.9488 30.4862 75.1251 38.0143 75.1251C47.4374 75.1251 56.8346 71.7142 64.0662 65.0453C77.3049 52.8147 79.8572 32.6934 70.2795 17.6501Z" fill="white"/>
<path d="M59.7093 6.73042C45.1171 -3.24752 25.098 -1.78391 12.1043 10.2049C-1.46953 22.7409 -3.90586 42.7732 6.21327 58.071L5.27225 58.7073C4.46014 59.2673 4.56327 60.4764 5.45272 60.8964L10.7894 63.4036C11.6918 63.8236 12.7101 63.1236 12.6328 62.1436L12.1172 56.3274C12.0269 55.3601 10.9054 54.8383 10.0933 55.3983L9.39724 55.882C0.399604 42.1496 2.57812 24.2173 14.7468 12.9921C26.4128 2.22508 44.3952 0.901474 57.505 9.87398C58.3815 10.4721 59.5933 10.2558 60.1991 9.39036C60.805 8.52493 60.5858 7.32859 59.7093 6.73042Z" fill="white"/>
</g>
<path d="M15.486 102.096C14.6327 102.096 13.8433 101.957 13.118 101.68C12.4033 101.392 11.7793 100.992 11.246 100.48C10.7233 99.968 10.3127 99.3653 10.014 98.672C9.726 97.9787 9.582 97.2213 9.582 96.4C9.582 95.5787 9.726 94.8213 10.014 94.128C10.3127 93.4347 10.7287 92.832 11.262 92.32C11.7953 91.808 12.4193 91.4133 13.134 91.136C13.8593 90.848 14.6487 90.704 15.502 90.704C16.3553 90.704 17.134 90.8373 17.838 91.104C18.5527 91.3707 19.1607 91.776 19.662 92.32L18.926 93.072C18.4567 92.6027 17.9393 92.2667 17.374 92.064C16.8087 91.8613 16.2007 91.76 15.55 91.76C14.8567 91.76 14.2167 91.8773 13.63 92.112C13.054 92.336 12.5473 92.6613 12.11 93.088C11.6833 93.504 11.3473 93.9947 11.102 94.56C10.8673 95.1147 10.75 95.728 10.75 96.4C10.75 97.0613 10.8673 97.6747 11.102 98.24C11.3473 98.8053 11.6833 99.3013 12.11 99.728C12.5473 100.144 13.054 100.469 13.63 100.704C14.2167 100.928 14.8513 101.04 15.534 101.04C16.174 101.04 16.7767 100.944 17.342 100.752C17.918 100.56 18.446 100.235 18.926 99.776L19.598 100.672C19.0647 101.141 18.4407 101.499 17.726 101.744C17.0113 101.979 16.2647 102.096 15.486 102.096ZM18.462 100.528V96.4H19.598V100.672L18.462 100.528ZM22.709 102V93.6H23.797V95.888L23.685 95.488C23.9197 94.848 24.3143 94.3627 24.869 94.032C25.4237 93.6907 26.1117 93.52 26.933 93.52V94.624C26.8903 94.624 26.8477 94.624 26.805 94.624C26.7623 94.6133 26.7197 94.608 26.677 94.608C25.7917 94.608 25.0983 94.88 24.597 95.424C24.0957 95.9573 23.845 96.72 23.845 97.712V102H22.709ZM32.3518 102.08C31.5411 102.08 30.8104 101.899 30.1598 101.536C29.5198 101.163 29.0131 100.656 28.6398 100.016C28.2664 99.3653 28.0798 98.624 28.0798 97.792C28.0798 96.9493 28.2664 96.208 28.6398 95.568C29.0131 94.928 29.5198 94.4267 30.1598 94.064C30.7998 93.7013 31.5304 93.52 32.3518 93.52C33.1838 93.52 33.9198 93.7013 34.5598 94.064C35.2104 94.4267 35.7171 94.928 36.0798 95.568C36.4531 96.208 36.6398 96.9493 36.6398 97.792C36.6398 98.624 36.4531 99.3653 36.0798 100.016C35.7171 100.656 35.2104 101.163 34.5598 101.536C33.9091 101.899 33.1731 102.08 32.3518 102.08ZM32.3518 101.072C32.9598 101.072 33.4984 100.939 33.9678 100.672C34.4371 100.395 34.8051 100.011 35.0718 99.52C35.3491 99.0187 35.4878 98.4427 35.4878 97.792C35.4878 97.1307 35.3491 96.5547 35.0718 96.064C34.8051 95.5733 34.4371 95.1947 33.9678 94.928C33.4984 94.6507 32.9651 94.512 32.3678 94.512C31.7704 94.512 31.2371 94.6507 30.7678 94.928C30.2984 95.1947 29.9251 95.5733 29.6478 96.064C29.3704 96.5547 29.2318 97.1307 29.2318 97.792C29.2318 98.4427 29.3704 99.0187 29.6478 99.52C29.9251 100.011 30.2984 100.395 30.7678 100.672C31.2371 100.939 31.7651 101.072 32.3518 101.072ZM40.4366 102L37.2686 93.6H38.3566L41.2366 101.392H40.7406L43.7006 93.6H44.6766L47.6046 101.392H47.1086L50.0366 93.6H51.0766L47.8926 102H46.8206L44.0046 94.672H44.3406L41.5086 102H40.4366ZM55.6775 102.08C54.8882 102.08 54.2802 101.867 53.8535 101.44C53.4268 101.013 53.2135 100.411 53.2135 99.632V91.744H54.3495V99.568C54.3495 100.059 54.4722 100.437 54.7175 100.704C54.9735 100.971 55.3362 101.104 55.8055 101.104C56.3068 101.104 56.7228 100.96 57.0535 100.672L57.4535 101.488C57.2295 101.691 56.9575 101.84 56.6375 101.936C56.3282 102.032 56.0082 102.08 55.6775 102.08ZM51.7095 94.544V93.6H56.9095V94.544H51.7095ZM63.8095 93.52C64.4922 93.52 65.0895 93.6533 65.6015 93.92C66.1242 94.176 66.5295 94.5707 66.8175 95.104C67.1162 95.6373 67.2655 96.3093 67.2655 97.12V102H66.1295V97.232C66.1295 96.3467 65.9055 95.68 65.4575 95.232C65.0202 94.7733 64.4015 94.544 63.6015 94.544C63.0042 94.544 62.4815 94.6667 62.0335 94.912C61.5962 95.1467 61.2548 95.4933 61.0095 95.952C60.7748 96.4 60.6575 96.944 60.6575 97.584V102H59.5215V90.128H60.6575V95.904L60.4335 95.472C60.7002 94.864 61.1268 94.3893 61.7135 94.048C62.3002 93.696 62.9988 93.52 63.8095 93.52ZM17.3847 112.52C18.0674 112.52 18.6594 112.653 19.1607 112.92C19.6727 113.176 20.0674 113.571 20.3447 114.104C20.6327 114.637 20.7767 115.309 20.7767 116.12V121H19.6407V116.232C19.6407 115.347 19.4274 114.68 19.0007 114.232C18.5847 113.773 17.9927 113.544 17.2247 113.544C16.6487 113.544 16.1474 113.667 15.7207 113.912C15.3047 114.147 14.9794 114.493 14.7447 114.952C14.5207 115.4 14.4087 115.944 14.4087 116.584V121H13.2727V116.232C13.2727 115.347 13.0594 114.68 12.6327 114.232C12.206 113.773 11.6087 113.544 10.8407 113.544C10.2754 113.544 9.77935 113.667 9.35269 113.912C8.92602 114.147 8.59535 114.493 8.36069 114.952C8.13669 115.4 8.02469 115.944 8.02469 116.584V121H6.88869V112.6H7.97669V114.872L7.80069 114.472C8.05669 113.864 8.46735 113.389 9.03269 113.048C9.60869 112.696 10.286 112.52 11.0647 112.52C11.886 112.52 12.5847 112.728 13.1607 113.144C13.7367 113.549 14.11 114.163 14.2807 114.984L13.8327 114.808C14.078 114.125 14.51 113.576 15.1287 113.16C15.758 112.733 16.51 112.52 17.3847 112.52ZM23.8574 121V112.6H24.9934V121H23.8574ZM24.4334 110.744C24.1988 110.744 24.0014 110.664 23.8414 110.504C23.6814 110.344 23.6014 110.152 23.6014 109.928C23.6014 109.704 23.6814 109.517 23.8414 109.368C24.0014 109.208 24.1988 109.128 24.4334 109.128C24.6681 109.128 24.8654 109.203 25.0254 109.352C25.1854 109.501 25.2654 109.688 25.2654 109.912C25.2654 110.147 25.1854 110.344 25.0254 110.504C24.8761 110.664 24.6788 110.744 24.4334 110.744ZM32.4423 112.52C33.125 112.52 33.7223 112.653 34.2343 112.92C34.757 113.176 35.1623 113.571 35.4503 114.104C35.749 114.637 35.8983 115.309 35.8983 116.12V121H34.7623V116.232C34.7623 115.347 34.5383 114.68 34.0903 114.232C33.653 113.773 33.0343 113.544 32.2343 113.544C31.637 113.544 31.1143 113.667 30.6663 113.912C30.229 114.147 29.8876 114.493 29.6423 114.952C29.4076 115.4 29.2903 115.944 29.2903 116.584V121H28.1543V112.6H29.2423V114.904L29.0663 114.472C29.333 113.864 29.7596 113.389 30.3463 113.048C30.933 112.696 31.6316 112.52 32.4423 112.52ZM42.3108 121.08C41.5108 121.08 40.7908 120.899 40.1508 120.536C39.5215 120.173 39.0255 119.672 38.6628 119.032C38.3001 118.381 38.1188 117.635 38.1188 116.792C38.1188 115.939 38.3001 115.192 38.6628 114.552C39.0255 113.912 39.5215 113.416 40.1508 113.064C40.7908 112.701 41.5108 112.52 42.3108 112.52C43.0468 112.52 43.7028 112.685 44.2788 113.016C44.8655 113.347 45.3295 113.832 45.6708 114.472C46.0228 115.101 46.1988 115.875 46.1988 116.792C46.1988 117.699 46.0281 118.472 45.6868 119.112C45.3455 119.752 44.8815 120.243 44.2948 120.584C43.7188 120.915 43.0575 121.08 42.3108 121.08ZM42.3908 120.072C42.9881 120.072 43.5215 119.939 43.9908 119.672C44.4708 119.395 44.8441 119.011 45.1108 118.52C45.3881 118.019 45.5268 117.443 45.5268 116.792C45.5268 116.131 45.3881 115.555 45.1108 115.064C44.8441 114.573 44.4708 114.195 43.9908 113.928C43.5215 113.651 42.9881 113.512 42.3908 113.512C41.8041 113.512 41.2761 113.651 40.8068 113.928C40.3375 114.195 39.9641 114.573 39.6868 115.064C39.4095 115.555 39.2708 116.131 39.2708 116.792C39.2708 117.443 39.4095 118.019 39.6868 118.52C39.9641 119.011 40.3375 119.395 40.8068 119.672C41.2761 119.939 41.8041 120.072 42.3908 120.072ZM45.5588 121V118.472L45.6708 116.776L45.5108 115.08V109.128H46.6468V121H45.5588ZM52.0666 121.08C51.3732 121.08 50.7172 120.984 50.0986 120.792C49.4799 120.589 48.9946 120.339 48.6426 120.04L49.1546 119.144C49.4959 119.4 49.9332 119.624 50.4666 119.816C50.9999 119.997 51.5599 120.088 52.1466 120.088C52.9466 120.088 53.5226 119.965 53.8746 119.72C54.2266 119.464 54.4026 119.128 54.4026 118.712C54.4026 118.403 54.3012 118.163 54.0986 117.992C53.9066 117.811 53.6506 117.677 53.3306 117.592C53.0106 117.496 52.6532 117.416 52.2586 117.352C51.8639 117.288 51.4692 117.213 51.0746 117.128C50.6906 117.043 50.3386 116.92 50.0186 116.76C49.6986 116.589 49.4372 116.36 49.2346 116.072C49.0426 115.784 48.9466 115.4 48.9466 114.92C48.9466 114.461 49.0746 114.051 49.3306 113.688C49.5866 113.325 49.9599 113.043 50.4506 112.84C50.9519 112.627 51.5599 112.52 52.2746 112.52C52.8186 112.52 53.3626 112.595 53.9066 112.744C54.4506 112.883 54.8986 113.069 55.2506 113.304L54.7546 114.216C54.3812 113.96 53.9812 113.779 53.5546 113.672C53.1279 113.555 52.7012 113.496 52.2746 113.496C51.5172 113.496 50.9572 113.629 50.5946 113.896C50.2426 114.152 50.0666 114.483 50.0666 114.888C50.0666 115.208 50.1626 115.459 50.3546 115.64C50.5572 115.821 50.8186 115.965 51.1386 116.072C51.4692 116.168 51.8266 116.248 52.2106 116.312C52.6052 116.376 52.9946 116.456 53.3786 116.552C53.7732 116.637 54.1306 116.76 54.4506 116.92C54.7812 117.069 55.0426 117.288 55.2346 117.576C55.4372 117.853 55.5386 118.221 55.5386 118.68C55.5386 119.171 55.3999 119.597 55.1226 119.96C54.8559 120.312 54.4612 120.589 53.9386 120.792C53.4266 120.984 52.8026 121.08 52.0666 121.08ZM61.1911 121.08C60.3164 121.08 59.5484 120.899 58.8871 120.536C58.2257 120.163 57.7084 119.656 57.3351 119.016C56.9617 118.365 56.7751 117.624 56.7751 116.792C56.7751 115.96 56.9511 115.224 57.3031 114.584C57.6657 113.944 58.1564 113.443 58.7751 113.08C59.4044 112.707 60.1084 112.52 60.8871 112.52C61.6764 112.52 62.3751 112.701 62.9831 113.064C63.6017 113.416 64.0871 113.917 64.4391 114.568C64.7911 115.208 64.9671 115.949 64.9671 116.792C64.9671 116.845 64.9617 116.904 64.9511 116.968C64.9511 117.021 64.9511 117.08 64.9511 117.144H57.6391V116.296H64.3431L63.8951 116.632C63.8951 116.024 63.7617 115.485 63.4951 115.016C63.2391 114.536 62.8871 114.163 62.4391 113.896C61.9911 113.629 61.4737 113.496 60.8871 113.496C60.3111 113.496 59.7937 113.629 59.3351 113.896C58.8764 114.163 58.5191 114.536 58.2631 115.016C58.0071 115.496 57.8791 116.045 57.8791 116.664V116.84C57.8791 117.48 58.0177 118.045 58.2951 118.536C58.5831 119.016 58.9777 119.395 59.4791 119.672C59.9911 119.939 60.5724 120.072 61.2231 120.072C61.7351 120.072 62.2097 119.981 62.6471 119.8C63.0951 119.619 63.4791 119.341 63.7991 118.968L64.4391 119.704C64.0657 120.152 63.5964 120.493 63.0311 120.728C62.4764 120.963 61.8631 121.08 61.1911 121.08ZM69.9353 121.08C69.146 121.08 68.538 120.867 68.1113 120.44C67.6846 120.013 67.4713 119.411 67.4713 118.632V110.744H68.6073V118.568C68.6073 119.059 68.73 119.437 68.9753 119.704C69.2313 119.971 69.594 120.104 70.0633 120.104C70.5646 120.104 70.9806 119.96 71.3113 119.672L71.7113 120.488C71.4873 120.691 71.2153 120.84 70.8953 120.936C70.586 121.032 70.266 121.08 69.9353 121.08ZM65.9673 113.544V112.6H71.1673V113.544H65.9673Z" fill="white"/>
<defs>
<clipPath id="clip0_105209_1823">
<rect width="76.0417" height="75" fill="white" transform="translate(0 0.125)"/>
</clipPath>
</defs>
</svg>
