<svg width="204" height="178" viewBox="0 0 204 178" fill="none" xmlns="http://www.w3.org/2000/svg">
<g clip-path="url(#clip0_105209_1829)">
<path d="M63.1512 133.675L38.8008 147.369C38.3626 147.624 37.8211 147.624 37.37 147.369L13.0196 133.675C12.0657 133.141 12.0657 131.779 13.0196 131.232L37.37 117.537C37.8083 117.283 38.3497 117.283 38.8008 117.537L63.1512 131.232C64.1051 131.766 64.1051 133.128 63.1512 133.675Z" fill="white"/>
<path d="M58.936 138.282V149.571C58.936 150.08 58.6653 150.538 58.2141 150.793L38.8008 161.713C38.3626 161.967 37.8212 161.967 37.37 161.713L17.9567 150.793C17.5056 150.538 17.2349 150.08 17.2349 149.571V138.282L27.9985 144.328L37.37 149.609C37.8083 149.864 38.3497 149.864 38.8008 149.609L48.1723 144.328L58.936 138.282Z" fill="white"/>
<path d="M70.2795 119.65L70.9498 119.192C71.7619 118.632 71.6588 117.423 70.7693 117.003L65.4326 114.496C64.5303 114.076 63.5119 114.776 63.5893 115.756L64.1049 121.572C64.1951 122.539 65.3166 123.061 66.1287 122.501L67.0826 121.852C75.5647 135.342 73.283 153.313 61.4237 164.258C49.7577 175.025 31.7753 176.336 18.6655 167.376C17.789 166.778 16.5773 166.994 15.9714 167.86C15.3655 168.725 15.5847 169.922 16.4612 170.52C22.9452 174.949 30.4862 177.125 38.0143 177.125C47.4374 177.125 56.8346 173.714 64.0662 167.045C77.3049 154.815 79.8572 134.693 70.2795 119.65Z" fill="white"/>
<path d="M59.7093 108.73C45.1171 98.7525 25.098 100.216 12.1043 112.205C-1.46953 124.741 -3.90586 144.773 6.21327 160.071L5.27225 160.707C4.46014 161.267 4.56327 162.476 5.45272 162.896L10.7894 165.404C11.6918 165.824 12.7101 165.124 12.6328 164.144L12.1172 158.327C12.0269 157.36 10.9054 156.838 10.0933 157.398L9.39724 157.882C0.399604 144.15 2.57812 126.217 14.7468 114.992C26.4128 104.225 44.3952 102.901 57.505 111.874C58.3815 112.472 59.5933 112.256 60.1991 111.39C60.805 110.525 60.5858 109.329 59.7093 108.73Z" fill="white"/>
</g>
<g filter="url(#filter0_d_105209_1829)">
<rect x="30.75" width="169" height="112" rx="20" fill="url(#paint0_linear_105209_1829)"/>
<path d="M70.6028 124.205L62.2129 112H85.5852L77.1953 124.205C75.606 126.517 72.1921 126.517 70.6028 124.205Z" fill="#EAEFFF"/>
</g>
<path d="M56.9458 11.848V23H55.4898V11.848H56.9458ZM68.0449 14.072C68.7063 14.072 69.3036 14.216 69.8369 14.504C70.3703 14.7813 70.7863 15.2027 71.0849 15.768C71.3943 16.3333 71.5489 17.0213 71.5489 17.832V23H70.1089V18.04C70.1089 17.1653 69.8903 16.4987 69.4529 16.04C69.0156 15.5707 68.4183 15.336 67.6609 15.336C66.8929 15.336 66.2796 15.576 65.8209 16.056C65.3729 16.536 65.1489 17.2347 65.1489 18.152V23H63.6929V11.16H65.1489V15.48C65.4369 15.032 65.8316 14.6853 66.3329 14.44C66.8449 14.1947 67.4156 14.072 68.0449 14.072ZM73.3833 18.584C73.3833 17.688 73.5646 16.904 73.9273 16.232C74.29 15.5493 74.786 15.0213 75.4153 14.648C76.0553 14.2747 76.7646 14.088 77.5433 14.088C78.3113 14.088 78.978 14.2533 79.5433 14.584C80.1086 14.9147 80.53 15.3307 80.8073 15.832V14.232H82.2793V23H80.8073V21.368C80.5193 21.88 80.0873 22.3067 79.5113 22.648C78.946 22.9787 78.2846 23.144 77.5273 23.144C76.7486 23.144 76.0446 22.952 75.4153 22.568C74.786 22.184 74.29 21.6453 73.9273 20.952C73.5646 20.2587 73.3833 19.4693 73.3833 18.584ZM80.8073 18.6C80.8073 17.9387 80.674 17.3627 80.4073 16.872C80.1406 16.3813 79.778 16.008 79.3193 15.752C78.8713 15.4853 78.3753 15.352 77.8313 15.352C77.2873 15.352 76.7913 15.48 76.3433 15.736C75.8953 15.992 75.538 16.3653 75.2713 16.856C75.0046 17.3467 74.8713 17.9227 74.8713 18.584C74.8713 19.256 75.0046 19.8427 75.2713 20.344C75.538 20.8347 75.8953 21.2133 76.3433 21.48C76.7913 21.736 77.2873 21.864 77.8313 21.864C78.3753 21.864 78.8713 21.736 79.3193 21.48C79.778 21.2133 80.1406 20.8347 80.4073 20.344C80.674 19.8427 80.8073 19.2613 80.8073 18.6ZM88.0038 21.656L90.7238 14.232H92.2758L88.8358 23H87.1398L83.6998 14.232H85.2678L88.0038 21.656ZM101.709 18.28C101.709 18.5573 101.693 18.8507 101.661 19.16H94.6526C94.7059 20.024 94.9992 20.7013 95.5326 21.192C96.0766 21.672 96.7326 21.912 97.5006 21.912C98.1299 21.912 98.6526 21.768 99.0686 21.48C99.4952 21.1813 99.7939 20.7867 99.9646 20.296H101.533C101.298 21.1387 100.829 21.8267 100.125 22.36C99.4206 22.8827 98.5459 23.144 97.5006 23.144C96.6686 23.144 95.9219 22.9573 95.2606 22.584C94.6099 22.2107 94.0979 21.6827 93.7246 21C93.3512 20.3067 93.1646 19.5067 93.1646 18.6C93.1646 17.6933 93.3459 16.8987 93.7086 16.216C94.0712 15.5333 94.5779 15.0107 95.2286 14.648C95.8899 14.2747 96.6472 14.088 97.5006 14.088C98.3326 14.088 99.0686 14.2693 99.7086 14.632C100.349 14.9947 100.839 15.496 101.181 16.136C101.533 16.7653 101.709 17.48 101.709 18.28ZM100.205 17.976C100.205 17.4213 100.082 16.9467 99.8366 16.552C99.5912 16.1467 99.2552 15.8427 98.8286 15.64C98.4126 15.4267 97.9486 15.32 97.4366 15.32C96.7006 15.32 96.0712 15.5547 95.5486 16.024C95.0366 16.4933 94.7432 17.144 94.6686 17.976H100.205ZM107.352 18.584C107.352 17.688 107.533 16.904 107.896 16.232C108.259 15.5493 108.755 15.0213 109.384 14.648C110.024 14.2747 110.733 14.088 111.512 14.088C112.28 14.088 112.947 14.2533 113.512 14.584C114.077 14.9147 114.499 15.3307 114.776 15.832V14.232H116.248V23H114.776V21.368C114.488 21.88 114.056 22.3067 113.48 22.648C112.915 22.9787 112.253 23.144 111.496 23.144C110.717 23.144 110.013 22.952 109.384 22.568C108.755 22.184 108.259 21.6453 107.896 20.952C107.533 20.2587 107.352 19.4693 107.352 18.584ZM114.776 18.6C114.776 17.9387 114.643 17.3627 114.376 16.872C114.109 16.3813 113.747 16.008 113.288 15.752C112.84 15.4853 112.344 15.352 111.8 15.352C111.256 15.352 110.76 15.48 110.312 15.736C109.864 15.992 109.507 16.3653 109.24 16.856C108.973 17.3467 108.84 17.9227 108.84 18.584C108.84 19.256 108.973 19.8427 109.24 20.344C109.507 20.8347 109.864 21.2133 110.312 21.48C110.76 21.736 111.256 21.864 111.8 21.864C112.344 21.864 112.84 21.736 113.288 21.48C113.747 21.2133 114.109 20.8347 114.376 20.344C114.643 19.8427 114.776 19.2613 114.776 18.6ZM126.078 23.144C125.406 23.144 124.804 23.032 124.27 22.808C123.737 22.5733 123.316 22.2533 123.006 21.848C122.697 21.432 122.526 20.9573 122.494 20.424H123.998C124.041 20.8613 124.244 21.2187 124.606 21.496C124.98 21.7733 125.465 21.912 126.062 21.912C126.617 21.912 127.054 21.7893 127.374 21.544C127.694 21.2987 127.854 20.9893 127.854 20.616C127.854 20.232 127.684 19.9493 127.342 19.768C127.001 19.576 126.473 19.3893 125.758 19.208C125.108 19.0373 124.574 18.8667 124.158 18.696C123.753 18.5147 123.401 18.2533 123.102 17.912C122.814 17.56 122.67 17.1013 122.67 16.536C122.67 16.088 122.804 15.6773 123.07 15.304C123.337 14.9307 123.716 14.6373 124.206 14.424C124.697 14.2 125.257 14.088 125.886 14.088C126.857 14.088 127.641 14.3333 128.238 14.824C128.836 15.3147 129.156 15.9867 129.198 16.84H127.742C127.71 16.3813 127.524 16.0133 127.182 15.736C126.852 15.4587 126.404 15.32 125.838 15.32C125.316 15.32 124.9 15.432 124.59 15.656C124.281 15.88 124.126 16.1733 124.126 16.536C124.126 16.824 124.217 17.064 124.398 17.256C124.59 17.4373 124.825 17.5867 125.102 17.704C125.39 17.8107 125.785 17.9333 126.286 18.072C126.916 18.2427 127.428 18.4133 127.822 18.584C128.217 18.744 128.553 18.9893 128.83 19.32C129.118 19.6507 129.268 20.0827 129.278 20.616C129.278 21.096 129.145 21.528 128.878 21.912C128.612 22.296 128.233 22.6 127.742 22.824C127.262 23.0373 126.708 23.144 126.078 23.144ZM132.79 15.848C133.078 15.3467 133.504 14.9307 134.07 14.6C134.646 14.2587 135.312 14.088 136.07 14.088C136.848 14.088 137.552 14.2747 138.182 14.648C138.822 15.0213 139.323 15.5493 139.686 16.232C140.048 16.904 140.23 17.688 140.23 18.584C140.23 19.4693 140.048 20.2587 139.686 20.952C139.323 21.6453 138.822 22.184 138.182 22.568C137.552 22.952 136.848 23.144 136.07 23.144C135.323 23.144 134.662 22.9787 134.086 22.648C133.52 22.3067 133.088 21.8853 132.79 21.384V27.16H131.334V14.232H132.79V15.848ZM138.742 18.584C138.742 17.9227 138.608 17.3467 138.342 16.856C138.075 16.3653 137.712 15.992 137.254 15.736C136.806 15.48 136.31 15.352 135.766 15.352C135.232 15.352 134.736 15.4853 134.278 15.752C133.83 16.008 133.467 16.3867 133.19 16.888C132.923 17.3787 132.79 17.9493 132.79 18.6C132.79 19.2613 132.923 19.8427 133.19 20.344C133.467 20.8347 133.83 21.2133 134.278 21.48C134.736 21.736 135.232 21.864 135.766 21.864C136.31 21.864 136.806 21.736 137.254 21.48C137.712 21.2133 138.075 20.8347 138.342 20.344C138.608 19.8427 138.742 19.256 138.742 18.584ZM150.146 18.28C150.146 18.5573 150.13 18.8507 150.098 19.16H143.09C143.143 20.024 143.437 20.7013 143.97 21.192C144.514 21.672 145.17 21.912 145.938 21.912C146.567 21.912 147.09 21.768 147.506 21.48C147.933 21.1813 148.231 20.7867 148.402 20.296H149.97C149.735 21.1387 149.266 21.8267 148.562 22.36C147.858 22.8827 146.983 23.144 145.938 23.144C145.106 23.144 144.359 22.9573 143.698 22.584C143.047 22.2107 142.535 21.6827 142.162 21C141.789 20.3067 141.602 19.5067 141.602 18.6C141.602 17.6933 141.783 16.8987 142.146 16.216C142.509 15.5333 143.015 15.0107 143.666 14.648C144.327 14.2747 145.085 14.088 145.938 14.088C146.77 14.088 147.506 14.2693 148.146 14.632C148.786 14.9947 149.277 15.496 149.618 16.136C149.97 16.7653 150.146 17.48 150.146 18.28ZM148.642 17.976C148.642 17.4213 148.519 16.9467 148.274 16.552C148.029 16.1467 147.693 15.8427 147.266 15.64C146.85 15.4267 146.386 15.32 145.874 15.32C145.138 15.32 144.509 15.5547 143.986 16.024C143.474 16.4933 143.181 17.144 143.106 17.976H148.642ZM151.524 18.6C151.524 17.6933 151.705 16.904 152.068 16.232C152.431 15.5493 152.932 15.0213 153.572 14.648C154.223 14.2747 154.964 14.088 155.796 14.088C156.873 14.088 157.759 14.3493 158.452 14.872C159.156 15.3947 159.62 16.12 159.844 17.048H158.276C158.127 16.5147 157.833 16.0933 157.396 15.784C156.969 15.4747 156.436 15.32 155.796 15.32C154.964 15.32 154.292 15.608 153.78 16.184C153.268 16.7493 153.012 17.5547 153.012 18.6C153.012 19.656 153.268 20.472 153.78 21.048C154.292 21.624 154.964 21.912 155.796 21.912C156.436 21.912 156.969 21.7627 157.396 21.464C157.823 21.1653 158.116 20.7387 158.276 20.184H159.844C159.609 21.08 159.14 21.8 158.436 22.344C157.732 22.8773 156.852 23.144 155.796 23.144C154.964 23.144 154.223 22.9573 153.572 22.584C152.932 22.2107 152.431 21.6827 152.068 21C151.705 20.3173 151.524 19.5173 151.524 18.6ZM162.539 12.808C162.261 12.808 162.027 12.712 161.835 12.52C161.643 12.328 161.547 12.0933 161.547 11.816C161.547 11.5387 161.643 11.304 161.835 11.112C162.027 10.92 162.261 10.824 162.539 10.824C162.805 10.824 163.029 10.92 163.211 11.112C163.403 11.304 163.499 11.5387 163.499 11.816C163.499 12.0933 163.403 12.328 163.211 12.52C163.029 12.712 162.805 12.808 162.539 12.808ZM163.243 14.232V23H161.787V14.232H163.243ZM165.18 18.584C165.18 17.688 165.362 16.904 165.724 16.232C166.087 15.5493 166.583 15.0213 167.212 14.648C167.852 14.2747 168.562 14.088 169.34 14.088C170.108 14.088 170.775 14.2533 171.34 14.584C171.906 14.9147 172.327 15.3307 172.604 15.832V14.232H174.076V23H172.604V21.368C172.316 21.88 171.884 22.3067 171.308 22.648C170.743 22.9787 170.082 23.144 169.324 23.144C168.546 23.144 167.842 22.952 167.212 22.568C166.583 22.184 166.087 21.6453 165.724 20.952C165.362 20.2587 165.18 19.4693 165.18 18.584ZM172.604 18.6C172.604 17.9387 172.471 17.3627 172.204 16.872C171.938 16.3813 171.575 16.008 171.116 15.752C170.668 15.4853 170.172 15.352 169.628 15.352C169.084 15.352 168.588 15.48 168.14 15.736C167.692 15.992 167.335 16.3653 167.068 16.856C166.802 17.3467 166.668 17.9227 166.668 18.584C166.668 19.256 166.802 19.8427 167.068 20.344C167.335 20.8347 167.692 21.2133 168.14 21.48C168.588 21.736 169.084 21.864 169.628 21.864C170.172 21.864 170.668 21.736 171.116 21.48C171.575 21.2133 171.938 20.8347 172.204 20.344C172.471 19.8427 172.604 19.2613 172.604 18.6ZM177.993 11.16V23H176.537V11.16H177.993ZM44.4528 30.808C44.1754 30.808 43.9408 30.712 43.7488 30.52C43.5568 30.328 43.4608 30.0933 43.4608 29.816C43.4608 29.5387 43.5568 29.304 43.7488 29.112C43.9408 28.92 44.1754 28.824 44.4528 28.824C44.7194 28.824 44.9434 28.92 45.1248 29.112C45.3168 29.304 45.4128 29.5387 45.4128 29.816C45.4128 30.0933 45.3168 30.328 45.1248 30.52C44.9434 30.712 44.7194 30.808 44.4528 30.808ZM45.1568 32.232V41H43.7008V32.232H45.1568ZM51.9103 32.072C52.9769 32.072 53.8409 32.3973 54.5023 33.048C55.1636 33.688 55.4943 34.616 55.4943 35.832V41H54.0543V36.04C54.0543 35.1653 53.8356 34.4987 53.3983 34.04C52.9609 33.5707 52.3636 33.336 51.6063 33.336C50.8383 33.336 50.2249 33.576 49.7663 34.056C49.3183 34.536 49.0943 35.2347 49.0943 36.152V41H47.6383V32.232H49.0943V33.48C49.3823 33.032 49.7716 32.6853 50.2623 32.44C50.7636 32.1947 51.3129 32.072 51.9103 32.072ZM59.6486 33.432V38.6C59.6486 39.0267 59.7393 39.3307 59.9206 39.512C60.102 39.6827 60.4166 39.768 60.8646 39.768H61.9366V41H60.6246C59.814 41 59.206 40.8133 58.8006 40.44C58.3953 40.0667 58.1926 39.4533 58.1926 38.6V33.432H57.0566V32.232H58.1926V30.024H59.6486V32.232H61.9366V33.432H59.6486ZM71.7008 36.28C71.7008 36.5573 71.6848 36.8507 71.6528 37.16H64.6448C64.6981 38.024 64.9914 38.7013 65.5248 39.192C66.0688 39.672 66.7248 39.912 67.4928 39.912C68.1221 39.912 68.6448 39.768 69.0608 39.48C69.4874 39.1813 69.7861 38.7867 69.9568 38.296H71.5248C71.2901 39.1387 70.8208 39.8267 70.1168 40.36C69.4128 40.8827 68.5381 41.144 67.4928 41.144C66.6608 41.144 65.9141 40.9573 65.2528 40.584C64.6021 40.2107 64.0901 39.6827 63.7168 39C63.3434 38.3067 63.1568 37.5067 63.1568 36.6C63.1568 35.6933 63.3381 34.8987 63.7008 34.216C64.0634 33.5333 64.5701 33.0107 65.2208 32.648C65.8821 32.2747 66.6394 32.088 67.4928 32.088C68.3248 32.088 69.0608 32.2693 69.7008 32.632C70.3408 32.9947 70.8314 33.496 71.1728 34.136C71.5248 34.7653 71.7008 35.48 71.7008 36.28ZM70.1968 35.976C70.1968 35.4213 70.0741 34.9467 69.8288 34.552C69.5834 34.1467 69.2474 33.8427 68.8208 33.64C68.4048 33.4267 67.9408 33.32 67.4288 33.32C66.6928 33.32 66.0634 33.5547 65.5408 34.024C65.0288 34.4933 64.7354 35.144 64.6608 35.976H70.1968ZM75.0786 33.656C75.3346 33.1547 75.6973 32.7653 76.1666 32.488C76.6466 32.2107 77.228 32.072 77.9106 32.072V33.576H77.5266C75.8946 33.576 75.0786 34.4613 75.0786 36.232V41H73.6226V32.232H75.0786V33.656ZM87.5914 36.28C87.5914 36.5573 87.5754 36.8507 87.5434 37.16H80.5354C80.5887 38.024 80.882 38.7013 81.4154 39.192C81.9594 39.672 82.6154 39.912 83.3834 39.912C84.0127 39.912 84.5354 39.768 84.9514 39.48C85.378 39.1813 85.6767 38.7867 85.8474 38.296H87.4154C87.1807 39.1387 86.7114 39.8267 86.0074 40.36C85.3034 40.8827 84.4287 41.144 83.3834 41.144C82.5514 41.144 81.8047 40.9573 81.1434 40.584C80.4927 40.2107 79.9807 39.6827 79.6074 39C79.234 38.3067 79.0474 37.5067 79.0474 36.6C79.0474 35.6933 79.2287 34.8987 79.5914 34.216C79.954 33.5333 80.4607 33.0107 81.1114 32.648C81.7727 32.2747 82.53 32.088 83.3834 32.088C84.2154 32.088 84.9514 32.2693 85.5914 32.632C86.2314 32.9947 86.722 33.496 87.0634 34.136C87.4154 34.7653 87.5914 35.48 87.5914 36.28ZM86.0874 35.976C86.0874 35.4213 85.9647 34.9467 85.7194 34.552C85.474 34.1467 85.138 33.8427 84.7114 33.64C84.2954 33.4267 83.8314 33.32 83.3194 33.32C82.5834 33.32 81.954 33.5547 81.4314 34.024C80.9194 34.4933 80.626 35.144 80.5514 35.976H86.0874ZM92.6173 41.144C91.9453 41.144 91.3426 41.032 90.8093 40.808C90.2759 40.5733 89.8546 40.2533 89.5453 39.848C89.2359 39.432 89.0653 38.9573 89.0333 38.424H90.5373C90.5799 38.8613 90.7826 39.2187 91.1453 39.496C91.5186 39.7733 92.0039 39.912 92.6013 39.912C93.1559 39.912 93.5933 39.7893 93.9133 39.544C94.2333 39.2987 94.3933 38.9893 94.3933 38.616C94.3933 38.232 94.2226 37.9493 93.8813 37.768C93.5399 37.576 93.0119 37.3893 92.2973 37.208C91.6466 37.0373 91.1133 36.8667 90.6973 36.696C90.2919 36.5147 89.9399 36.2533 89.6413 35.912C89.3533 35.56 89.2093 35.1013 89.2093 34.536C89.2093 34.088 89.3426 33.6773 89.6093 33.304C89.8759 32.9307 90.2546 32.6373 90.7453 32.424C91.2359 32.2 91.7959 32.088 92.4253 32.088C93.3959 32.088 94.1799 32.3333 94.7773 32.824C95.3746 33.3147 95.6946 33.9867 95.7373 34.84H94.2813C94.2493 34.3813 94.0626 34.0133 93.7213 33.736C93.3906 33.4587 92.9426 33.32 92.3773 33.32C91.8546 33.32 91.4386 33.432 91.1293 33.656C90.8199 33.88 90.6653 34.1733 90.6653 34.536C90.6653 34.824 90.7559 35.064 90.9373 35.256C91.1293 35.4373 91.3639 35.5867 91.6413 35.704C91.9293 35.8107 92.3239 35.9333 92.8253 36.072C93.4546 36.2427 93.9666 36.4133 94.3613 36.584C94.7559 36.744 95.0919 36.9893 95.3693 37.32C95.6573 37.6507 95.8066 38.0827 95.8173 38.616C95.8173 39.096 95.6839 39.528 95.4173 39.912C95.1506 40.296 94.7719 40.6 94.2813 40.824C93.8013 41.0373 93.2466 41.144 92.6173 41.144ZM99.6486 33.432V38.6C99.6486 39.0267 99.7393 39.3307 99.9206 39.512C100.102 39.6827 100.417 39.768 100.865 39.768H101.937V41H100.625C99.814 41 99.206 40.8133 98.8006 40.44C98.3953 40.0667 98.1926 39.4533 98.1926 38.6V33.432H97.0566V32.232H98.1926V30.024H99.6486V32.232H101.937V33.432H99.6486ZM108.718 30.808C108.441 30.808 108.206 30.712 108.014 30.52C107.822 30.328 107.726 30.0933 107.726 29.816C107.726 29.5387 107.822 29.304 108.014 29.112C108.206 28.92 108.441 28.824 108.718 28.824C108.985 28.824 109.209 28.92 109.39 29.112C109.582 29.304 109.678 29.5387 109.678 29.816C109.678 30.0933 109.582 30.328 109.39 30.52C109.209 30.712 108.985 30.808 108.718 30.808ZM109.422 32.232V41H107.966V32.232H109.422ZM116.176 32.072C117.243 32.072 118.107 32.3973 118.768 33.048C119.429 33.688 119.76 34.616 119.76 35.832V41H118.32V36.04C118.32 35.1653 118.101 34.4987 117.664 34.04C117.227 33.5707 116.629 33.336 115.872 33.336C115.104 33.336 114.491 33.576 114.032 34.056C113.584 34.536 113.36 35.2347 113.36 36.152V41H111.904V32.232H113.36V33.48C113.648 33.032 114.037 32.6853 114.528 32.44C115.029 32.1947 115.579 32.072 116.176 32.072ZM127.86 29.16V41H126.404V29.16H127.86ZM138.341 36.28C138.341 36.5573 138.325 36.8507 138.293 37.16H131.285C131.339 38.024 131.632 38.7013 132.165 39.192C132.709 39.672 133.365 39.912 134.133 39.912C134.763 39.912 135.285 39.768 135.701 39.48C136.128 39.1813 136.427 38.7867 136.597 38.296H138.165C137.931 39.1387 137.4610 39.8267 136.7570 40.36C136.0530 40.8827 135.1783 41.144 134.1330 41.144C133.3010 41.144 132.5543 40.9573 131.8930 40.584C131.2423 40.2107 130.7303 39.6827 130.3570 39C129.9836 38.3067 129.7970 37.5067 129.7970 36.6C129.7970 35.6933 129.9783 34.8987 130.3410 34.216C130.7036 33.5333 131.2103 33.0107 131.8610 32.648C132.5223 32.2747 133.2796 32.088 134.1330 32.088C134.9650 32.088 135.7010 32.2693 136.3410 32.632C136.9810 32.9947 137.4716 33.496 137.8130 34.136C138.1650 34.7653 138.3410 35.48 138.3410 36.28ZM136.8370 35.976C136.8370 35.4213 136.7143 34.9467 136.4690 34.552C136.2236 34.1467 135.8876 33.8427 135.4610 33.64C135.0450 33.4267 134.5810 33.32 134.0690 33.32C133.3330 33.32 132.7036 33.5547 132.1810 34.024C131.6690 34.4933 131.3756 35.144 131.3010 35.976H136.8370ZM61 39.8267 136.757 40.36C136.053 40.8827 135.179 41.144 134.133 41.144C133.301 41.144 132.555 40.9573 131.893 40.584C131.243 40.2107 130.731 39.6827 130.357 39C129.984 38.3067 129.797 37.5067 129.797 36.6C129.797 35.6933 129.979 34.8987 130.341 34.216C130.704 33.5333 131.211 33.0107 131.861 32.648C132.523 32.2747 133.28 32.088 134.133 32.088C134.965 32.088 135.701 32.2693 136.341 32.632C136.981 32.9947 137.472 33.496 137.813 34.136C138.165 34.7653 138.341 35.48 138.341 36.28ZM136.837 35.976C136.837 35.4213 136.715 34.9467 136.469 34.552C136.224 34.1467 135.888 33.8427 135.461 33.64C135.045 33.4267 134.581 33.32 134.069 33.32C133.333 33.32 132.704 33.5547 132.181 34.024C131.669 34.4933 131.376 35.144 131.301 35.976H136.837ZM139.719 36.584C139.719 35.688 139.901 34.904 140.263 34.232C140.626 33.5493 141.122 33.0213 141.751 32.648C142.391 32.2747 143.101 32.088 143.879 32.088C144.647 32.088 145.314 32.2533 145.879 32.584C146.445 32.9147 146.866 33.3307 147.143 33.832V32.232H148.615V41H147.143V39.368C146.855 39.88 146.423 40.3067 145.847 40.648C145.282 40.9787 144.621 41.144 143.863 41.144C143.085 41.144 142.381 40.952 141.751 40.568C141.122 40.184 140.626 39.6453 140.263 38.952C139.901 38.2587 139.719 37.4693 139.719 36.584ZM147.143 36.6C147.143 35.9387 147.01 35.3627 146.743 34.872C146.477 34.3813 146.114 34.008 145.655 33.752C145.207 33.4853 144.711 33.352 144.167 33.352C143.623 33.352 143.127 33.48 142.679 33.736C142.231 33.992 141.874 34.3653 141.607 34.856C141.341 35.3467 141.207 35.9227 141.207 36.584C141.207 37.256 141.341 37.8427 141.607 38.344C141.874 38.8347 142.231 39.2133 142.679 39.48C143.127 39.736 143.623 39.864 144.167 39.864C144.711 39.864 145.207 39.736 145.655 39.48C146.114 39.2133 146.477 38.8347 146.743 38.344C147.01 37.8427 147.143 37.2613 147.143 36.6ZM152.532 33.656C152.788 33.1547 153.15 32.7653 153.62 32.488C154.1 32.2107 154.681 32.072 155.364 32.072V33.576H154.98C153.348 33.576 152.532 34.4613 152.532 36.232V41H151.076V32.232H152.532V33.656ZM161.317 32.072C162.383 32.072 163.247 32.3973 163.909 33.048C164.57 33.688 164.901 34.616 164.901 35.832V41H163.461V36.04C163.461 35.1653 163.242 34.4987 162.805 34.04C162.367 33.5707 161.77 33.336 161.013 33.336C160.245 33.336 159.631 33.576 159.173 34.056C158.725 34.536 158.501 35.2347 158.501 36.152V41H157.045V32.232H158.501V33.48C158.789 33.032 159.178 32.6853 159.669 32.44C160.17 32.1947 160.719 32.072 161.317 32.072ZM168.031 30.808C167.754 30.808 167.519 30.712 167.327 30.52C167.135 30.328 167.039 30.0933 167.039 29.816C167.039 29.5387 167.135 29.304 167.327 29.112C167.519 28.92 167.754 28.824 168.031 28.824C168.298 28.824 168.522 28.92 168.703 29.112C168.895 29.304 168.991 29.5387 168.991 29.816C168.991 30.0933 168.895 30.328 168.703 30.52C168.522 30.712 168.298 30.808 168.031 30.808ZM168.735 32.232V41H167.279V32.232H168.735ZM175.488 32.072C176.555 32.072 177.419 32.3973 178.08 33.048C178.742 33.688 179.072 34.616 179.072 35.832V41H177.632V36.04C177.632 35.1653 177.414 34.4987 176.976 34.04C176.539 33.5707 175.942 33.336 175.184 33.336C174.416 33.336 173.803 33.576 173.344 34.056C172.896 34.536 172.672 35.2347 172.672 36.152V41H171.216V32.232H172.672V33.48C172.96 33.032 173.35 32.6853 173.84 32.44C174.342 32.1947 174.891 32.072 175.488 32.072ZM185.067 32.088C185.824 32.088 186.485 32.2533 187.051 32.584C187.627 32.9147 188.053 33.3307 188.331 33.832V32.232H189.803V41.192C189.803 41.992 189.632 42.7013 189.291 43.32C188.949 43.9493 188.459 44.44 187.819 44.792C187.189 45.144 186.453 45.32 185.611 45.32C184.459 45.32 183.499 45.048 182.731 44.504C181.963 43.96 181.509 43.2187 181.371 42.28H182.811C182.971 42.8133 183.301 43.24 183.803 43.56C184.304 43.8907 184.907 44.056 185.611 44.056C186.411 44.056 187.061 43.8053 187.563 43.304C188.075 42.8027 188.331 42.0987 188.331 41.192V39.352C188.043 39.864 187.616 40.2907 187.051 40.632C186.485 40.9733 185.824 41.144 185.067 41.144C184.288 41.144 183.579 40.952 182.939 40.568C182.309 40.184 181.813 39.6453 181.451 38.952C181.088 38.2587 180.907 37.4693 180.907 36.584C180.907 35.688 181.088 34.904 181.451 34.232C181.813 33.5493 182.309 33.0213 182.939 32.648C183.579 32.2747 184.288 32.088 185.067 32.088ZM188.331 36.6C188.331 35.9387 188.197 35.3627 187.931 34.872C187.664 34.3813 187.301 34.008 186.843 33.752C186.395 33.4853 185.899 33.352 185.355 33.352C184.811 33.352 184.315 33.48 183.867 33.736C183.419 33.992 183.061 34.3653 182.795 34.856C182.528 35.3467 182.395 35.9227 182.395 36.584C182.395 37.256 182.528 37.8427 182.795 38.344C183.061 38.8347 183.419 39.2133 183.867 39.48C184.315 39.736 184.811 39.864 185.355 39.864C185.899 39.864 186.395 39.736 186.843 39.48C187.301 39.2133 187.664 38.8347 187.931 38.344C188.197 37.8427 188.331 37.2613 188.331 36.6Z" fill="black"/>
<path d="M89.743 72.4443C91.3176 72.4443 92.594 71.1674 92.594 69.5922C92.594 68.017 91.3176 66.74 89.743 66.74C88.1685 66.74 86.8921 68.017 86.8921 69.5922C86.8921 71.1674 88.1685 72.4443 89.743 72.4443Z" fill="black"/>
<path d="M105.736 69.5921C105.736 67.3521 103.108 65.4043 99.019 64.2356C100.048 60.1034 99.6865 56.8477 97.7396 55.7347C95.7926 54.6077 92.8026 55.9295 89.743 58.8791C86.6835 55.9156 83.6935 54.6077 81.7465 55.7347C80.1333 56.6669 79.5353 59.0321 80.0777 62.3991C80.175 62.9973 80.3141 63.6095 80.4671 64.2495C76.3784 65.4182 73.75 67.366 73.75 69.606C73.75 71.846 76.3784 73.7799 80.4671 74.9625C80.3141 75.5886 80.175 76.2147 80.0777 76.813C79.5353 80.1799 80.1333 82.5451 81.7465 83.4773C82.2194 83.7556 82.7617 83.8947 83.3597 83.8947C84.7782 83.8947 86.4888 83.1156 88.3523 81.5991C88.8113 81.2234 89.2841 80.7921 89.743 80.3469C90.202 80.7921 90.6748 81.2234 91.1337 81.5991C92.9973 83.1156 94.7078 83.8947 96.1264 83.8947C96.7244 83.8947 97.2667 83.7556 97.7396 83.4773C99.3528 82.5451 99.9508 80.1799 99.4223 76.813C99.325 76.2147 99.1859 75.6025 99.0329 74.9625C103.122 73.7938 105.75 71.846 105.75 69.606L105.736 69.5921ZM97.0442 56.9312C98.2958 57.6547 98.574 60.2982 97.67 63.8877C96.3628 63.5817 94.9304 63.3591 93.4145 63.2199C92.5384 61.9817 91.6205 60.8547 90.7165 59.8669C92.8304 57.8217 94.7913 56.7086 96.1403 56.7086C96.4879 56.7086 96.7939 56.7782 97.0581 56.9312H97.0442ZM94.2072 72.166C93.7065 73.0147 93.192 73.8495 92.6635 74.6286C91.7317 74.6982 90.7583 74.7399 89.757 74.7399C88.7556 74.7399 87.7822 74.6982 86.8504 74.6286C86.3219 73.8495 85.7935 73.0147 85.3067 72.166C84.8061 71.3034 84.361 70.4547 83.9438 69.5921C84.361 68.7295 84.8061 67.8808 85.3067 67.0182C85.8074 66.1417 86.3358 65.3208 86.8504 64.5556C87.7822 64.486 88.7556 64.4443 89.757 64.4443C90.7583 64.4443 91.7317 64.486 92.6635 64.5556C93.192 65.3208 93.7065 66.1417 94.2072 67.0182C94.6939 67.8669 95.1529 68.7295 95.5701 69.5921C95.1668 70.4408 94.7218 71.2895 94.2072 72.166ZM96.2932 71.2199C96.6826 72.1521 97.0164 73.0564 97.2945 73.9469C96.4045 74.1417 95.4449 74.3225 94.4297 74.4477C94.7635 73.933 95.0833 73.4043 95.4032 72.8617C95.7231 72.3191 96.0151 71.7625 96.2932 71.2199ZM89.743 78.3156C89.1172 77.6338 88.4914 76.8825 87.8795 76.0756C88.4914 76.1034 89.1033 76.1173 89.743 76.1173C90.3828 76.1173 90.9947 76.1034 91.6066 76.0756C90.9947 76.8825 90.3689 77.6199 89.743 78.3156ZM85.0564 74.4477C84.0412 74.3225 83.0816 74.1556 82.1915 73.9469C82.4697 73.0564 82.8035 72.1521 83.1929 71.2199C83.471 71.7625 83.763 72.3191 84.0829 72.8617C84.4028 73.4043 84.7226 73.933 85.0564 74.4477ZM83.1929 67.9504C82.8035 67.0182 82.4697 66.1138 82.1915 65.2234C83.0816 65.0286 84.0412 64.8477 85.0564 64.7225C84.7226 65.2373 84.4028 65.766 84.0829 66.3086C83.763 66.8512 83.471 67.3938 83.1929 67.9504ZM89.743 60.8547C90.355 61.5225 90.9808 62.2738 91.6066 63.0947C90.9947 63.0669 90.3828 63.053 89.743 63.053C89.1033 63.053 88.4914 63.0669 87.8795 63.0947C88.5053 62.2738 89.1172 61.5225 89.743 60.8547ZM95.4032 66.3225C95.0833 65.7799 94.7635 65.2512 94.4297 64.7364C95.4449 64.8617 96.4045 65.0286 97.2945 65.2373C97.0303 66.1138 96.6965 67.0182 96.2932 67.9643C96.0151 67.4217 95.7091 66.8651 95.4032 66.3225ZM81.4406 62.1764C81.0095 59.4634 81.371 57.5573 82.4419 56.9451C82.7061 56.7921 83.0121 56.7225 83.3597 56.7225C84.7087 56.7225 86.6696 57.8356 88.7835 59.8808C87.8656 60.8686 86.9616 61.9956 86.0855 63.2338C84.5696 63.373 83.1372 63.5956 81.83 63.9017C81.677 63.3173 81.5518 62.733 81.4684 62.1904L81.4406 62.1764ZM75.1407 69.5921C75.1407 68.1451 77.2824 66.5869 80.8426 65.5712C81.2459 66.8651 81.7743 68.2147 82.4002 69.5921C81.7743 70.9556 81.2459 72.3051 80.8426 73.613C77.2963 72.5973 75.1407 71.053 75.1407 69.5921ZM87.4762 80.486C85.3484 82.2112 83.5127 82.8512 82.4419 82.2391C81.371 81.6269 81.0095 79.7069 81.4406 77.0077C81.524 76.4512 81.6631 75.8808 81.8022 75.2964C83.1094 75.6025 84.5418 75.8251 86.0577 75.9643C86.9338 77.1886 87.8378 78.3295 88.7556 79.3312C88.3245 79.7486 87.8934 80.1521 87.4623 80.4999L87.4762 80.486ZM98.0455 77.0077C98.4766 79.7208 98.1151 81.6269 97.0442 82.2391C95.9734 82.8512 94.1377 82.2112 92.0099 80.486C91.5788 80.1382 91.1477 79.7347 90.7165 79.3173C91.6483 78.3156 92.5523 77.1886 93.4145 75.9643C94.9304 75.8251 96.3628 75.6025 97.67 75.2964C97.823 75.8808 97.9482 76.4651 98.0316 77.0077H98.0455ZM98.6435 73.5991C98.2402 72.3051 97.7118 70.9556 97.0859 69.5782C97.7257 68.1869 98.2402 66.8373 98.6435 65.5573C102.204 66.573 104.345 68.1173 104.345 69.5782C104.345 71.0391 102.204 72.5834 98.6435 73.5991Z" fill="black"/>
<path d="M77.0361 102L75.2841 98.82H74.7921V102H72.7401V93.576H76.1841C76.8481 93.576 77.4121 93.692 77.8761 93.924C78.3481 94.156 78.7001 94.476 78.9321 94.884C79.1641 95.284 79.2801 95.732 79.2801 96.228C79.2801 96.788 79.1201 97.288 78.8001 97.728C78.4881 98.168 78.0241 98.48 77.4081 98.664L79.3521 102H77.0361ZM74.7921 97.368H76.0641C76.4401 97.368 76.7201 97.276 76.9041 97.092C77.0961 96.908 77.1921 96.648 77.1921 96.312C77.1921 95.992 77.0961 95.74 76.9041 95.556C76.7201 95.372 76.4401 95.28 76.0641 95.28H74.7921V97.368ZM86.8802 98.544C86.8802 98.736 86.8682 98.936 86.8442 99.144H82.2002C82.2322 99.56 82.3642 99.88 82.5962 100.104C82.8362 100.32 83.1282 100.428 83.4722 100.428C83.9842 100.428 84.3402 100.212 84.5402 99.78H86.7242C86.6122 100.22 86.4082 100.616 86.1122 100.968C85.8242 101.32 85.4602 101.596 85.0202 101.796C84.5802 101.996 84.0882 102.096 83.5442 102.096C82.8882 102.096 82.3042 101.956 81.7922 101.676C81.2802 101.396 80.8802 100.996 80.5922 100.476C80.3042 99.956 80.1602 99.348 80.1602 98.652C80.1602 97.956 80.3002 97.348 80.5802 96.828C80.8682 96.308 81.2682 95.908 81.7802 95.628C82.2922 95.348 82.8802 95.208 83.5442 95.208C84.1922 95.208 84.7682 95.344 85.2722 95.616C85.7762 95.888 86.1682 96.276 86.4482 96.78C86.7362 97.284 86.8802 97.872 86.8802 98.544ZM84.7802 98.004C84.7802 97.652 84.6602 97.372 84.4202 97.164C84.1802 96.956 83.8802 96.852 83.5202 96.852C83.1762 96.852 82.8842 96.952 82.6442 97.152C82.4122 97.352 82.2682 97.636 82.2122 98.004H84.7802ZM87.5548 98.64C87.5548 97.952 87.6828 97.348 87.9388 96.828C88.2028 96.308 88.5588 95.908 89.0068 95.628C89.4548 95.348 89.9548 95.208 90.5068 95.208C90.9788 95.208 91.3908 95.304 91.7428 95.496C92.1028 95.688 92.3788 95.94 92.5708 96.252V95.304H94.6228V102H92.5708V101.052C92.3708 101.364 92.0908 101.616 91.7308 101.808C91.3788 102 90.9668 102.096 90.4948 102.096C89.9508 102.096 89.4548 101.956 89.0068 101.676C88.5588 101.388 88.2028 100.984 87.9388 100.464C87.6828 99.936 87.5548 99.328 87.5548 98.64ZM92.5708 98.652C92.5708 98.14 92.4268 97.736 92.1388 97.44C91.8588 97.144 91.5148 96.996 91.1068 96.996C90.6988 96.996 90.3508 97.144 90.0628 97.44C89.7828 97.728 89.6428 98.128 89.6428 98.64C89.6428 99.152 89.7828 99.56 90.0628 99.864C90.3508 100.16 90.6988 100.308 91.1068 100.308C91.5148 100.308 91.8588 100.16 92.1388 99.864C92.4268 99.568 92.5708 99.164 92.5708 98.652ZM95.6993 98.652C95.6993 97.956 95.8393 97.348 96.1193 96.828C96.4073 96.308 96.8033 95.908 97.3073 95.628C97.8193 95.348 98.4033 95.208 99.0593 95.208C99.8993 95.208 100.599 95.428 101.159 95.868C101.727 96.308 102.099 96.928 102.275 97.728H100.091C99.9073 97.216 99.5513 96.96 99.0233 96.96C98.6473 96.96 98.3473 97.108 98.1233 97.404C97.8993 97.692 97.7873 98.108 97.7873 98.652C97.7873 99.196 97.8993 99.616 98.1233 99.912C98.3473 100.2 98.6473 100.344 99.0233 100.344C99.5513 100.344 99.9073 100.088 100.091 99.576H102.275C102.099 100.36 101.727 100.976 101.159 101.424C100.591 101.872 99.8913 102.096 99.0593 102.096C98.4033 102.096 97.8193 101.956 97.3073 101.676C96.8033 101.396 96.4073 100.996 96.1193 100.476C95.8393 99.956 95.6993 99.348 95.6993 98.652ZM107.105 100.26V102H106.061C105.317 102 104.737 101.82 104.321 101.46C103.905 101.092 103.697 100.496 103.697 99.672V97.008H102.881V95.304H103.697V93.672H105.749V95.304H107.093V97.008H105.749V99.696C105.749 99.896 105.797 100.04 105.893 100.128C105.989 100.216 106.149 100.26 106.373 100.26H107.105Z" fill="black"/>
<path d="M146.445 56.6667L142.751 63.0667L139.055 56.6667H126.75L142.751 84.3805L158.75 56.6667H146.445Z" fill="#41B883"/>
<path d="M146.445 56.6667L142.751 63.0667L139.055 56.6667H133.15L142.751 73.2945L152.35 56.6667H146.445Z" fill="#34495E"/>
<path d="M132.476 93.576L129.488 102H126.92L123.932 93.576H126.116L128.204 99.936L130.304 93.576H132.476ZM139.946 95.304V102H137.894V101.088C137.686 101.384 137.402 101.624 137.042 101.808C136.69 101.984 136.298 102.072 135.866 102.072C135.354 102.072 134.902 101.96 134.51 101.736C134.118 101.504 133.814 101.172 133.598 100.74C133.382 100.308 133.274 99.8 133.274 99.216V95.304H135.314V98.94C135.314 99.388 135.43 99.736 135.662 99.984C135.894 100.232 136.206 100.356 136.598 100.356C136.998 100.356 137.314 100.232 137.546 99.984C137.778 99.736 137.894 99.388 137.894 98.94V95.304H139.946ZM147.732 98.544C147.732 98.736 147.72 98.936 147.696 99.144H143.052C143.084 99.56 143.216 99.88 143.448 100.104C143.688 100.32 143.98 100.428 144.324 100.428C144.836 100.428 145.192 100.212 145.392 99.78H147.576C147.464 100.22 147.26 100.616 146.964 100.968C146.676 101.32 146.312 101.596 145.872 101.796C145.432 101.996 144.94 102.096 144.396 102.096C143.74 102.096 143.156 101.956 142.644 101.676C142.132 101.396 141.732 100.996 141.444 100.476C141.156 99.956 141.012 99.348 141.012 98.652C141.012 97.956 141.152 97.348 141.432 96.828C141.72 96.308 142.12 95.908 142.632 95.628C143.144 95.348 143.732 95.208 144.396 95.208C145.044 95.208 145.62 95.344 146.124 95.616C146.628 95.888 147.02 96.276 147.3 96.78C147.588 97.284 147.732 97.872 147.732 98.544ZM145.632 98.004C145.632 97.652 145.512 97.372 145.272 97.164C145.032 96.956 144.732 96.852 144.372 96.852C144.028 96.852 143.736 96.952 143.496 97.152C143.264 97.352 143.12 97.636 143.064 98.004H145.632ZM149.774 102.096C149.414 102.096 149.118 101.992 148.886 101.784C148.662 101.568 148.55 101.304 148.55 100.992C148.55 100.672 148.662 100.404 148.886 100.188C149.118 99.972 149.414 99.864 149.774 99.864C150.126 99.864 150.414 99.972 150.638 100.188C150.87 100.404 150.986 100.672 150.986 100.992C150.986 101.304 150.87 101.568 150.638 101.784C150.414 101.992 150.126 102.096 149.774 102.096ZM153.221 94.608C152.861 94.608 152.565 94.504 152.333 94.296C152.109 94.08 151.997 93.816 151.997 93.504C151.997 93.184 152.109 92.92 152.333 92.712C152.565 92.496 152.861 92.388 153.221 92.388C153.573 92.388 153.861 92.496 154.085 92.712C154.317 92.92 154.433 93.184 154.433 93.504C154.433 93.816 154.317 94.08 154.085 94.296C153.861 94.504 153.573 94.608 153.221 94.608ZM154.253 102.864C154.253 103.688 154.045 104.28 153.629 104.64C153.213 105.008 152.633 105.192 151.889 105.192H151.085V103.452H151.577C151.801 103.452 151.961 103.408 152.057 103.32C152.153 103.232 152.201 103.088 152.201 102.888V95.304H154.253V102.864ZM158.452 102.096C157.868 102.096 157.348 101.996 156.892 101.796C156.436 101.596 156.076 101.324 155.812 100.98C155.548 100.628 155.4 100.236 155.368 99.804H157.396C157.42 100.036 157.528 100.224 157.72 100.368C157.912 100.512 158.148 100.584 158.428 100.584C158.684 100.584 158.88 100.536 159.016 100.44C159.16 100.336 159.232 100.204 159.232 100.044C159.232 99.852 159.132 99.712 158.932 99.624C158.732 99.528 158.408 99.424 157.96 99.312C157.48 99.2 157.08 99.084 156.76 98.964C156.44 98.836 156.164 98.64 155.932 98.376C155.7 98.104 155.584 97.74 155.584 97.284C155.584 96.9 155.688 96.552 155.896 96.24C156.112 95.92 156.424 95.668 156.832 95.484C157.248 95.3 157.74 95.208 158.308 95.208C159.148 95.208 159.808 95.416 160.288 95.832C160.776 96.248 161.056 96.8 161.128 97.488H159.232C159.2 97.256 159.096 97.072 158.92 96.936C158.752 96.8 158.528 96.732 158.248 96.732C158.008 96.732 157.824 96.78 157.696 96.876C157.568 96.964 157.504 97.088 157.504 97.248C157.504 97.44 157.604 97.584 157.804 97.68C158.012 97.776 158.332 97.872 158.764 97.968C159.26 98.096 159.664 98.224 159.976 98.352C160.288 98.472 160.56 98.672 160.792 98.952C161.032 99.224 161.156 99.592 161.164 100.056C161.164 100.448 161.052 100.8 160.828 101.112C160.612 101.416 160.296 101.656 159.88 101.832C159.472 102.008 158.996 102.096 158.452 102.096Z" fill="black"/>
<defs>
<filter id="filter0_d_105209_1829" x="26.75" y="0" width="177" height="133.939" filterUnits="userSpaceOnUse" color-interpolation-filters="sRGB">
<feFlood flood-opacity="0" result="BackgroundImageFix"/>
<feColorMatrix in="SourceAlpha" type="matrix" values="0 0 0 0 0 0 0 0 0 0 0 0 0 0 0 0 0 0 127 0" result="hardAlpha"/>
<feOffset dy="4"/>
<feGaussianBlur stdDeviation="2"/>
<feComposite in2="hardAlpha" operator="out"/>
<feColorMatrix type="matrix" values="0 0 0 0 0 0 0 0 0 0 0 0 0 0 0 0 0 0 0.25 0"/>
<feBlend mode="normal" in2="BackgroundImageFix" result="effect1_dropShadow_105209_1829"/>
<feBlend mode="normal" in="SourceGraphic" in2="effect1_dropShadow_105209_1829" result="shape"/>
</filter>
<linearGradient id="paint0_linear_105209_1829" x1="115.25" y1="14.4358" x2="115.258" y2="102.358" gradientUnits="userSpaceOnUse">
<stop stop-color="white"/>
<stop offset="1" stop-color="#EAF0FF"/>
</linearGradient>
<clipPath id="clip0_105209_1829">
<rect width="76.0417" height="75" fill="white" transform="translate(0 102.125)"/>
</clipPath>
</defs>
</svg>
