<svg width="77" height="75" viewBox="0 0 77 75" fill="none" xmlns="http://www.w3.org/2000/svg">
<g clip-path="url(#clip0_105209_1823)">
<path d="M63.1512 31.6751L38.8008 45.3693C38.3626 45.6239 37.8211 45.6239 37.37 45.3693L13.0196 31.6751C12.0657 31.1406 12.0657 29.7788 13.0196 29.2316L37.37 15.5373C37.8083 15.2828 38.3497 15.2828 38.8008 15.5373L63.1512 29.2316C64.1051 29.7661 64.1051 31.1279 63.1512 31.6751Z" fill="white"/>
<path d="M58.936 36.2822V47.571C58.936 48.0801 58.6653 48.5383 58.2141 48.7928L38.8008 59.7126C38.3626 59.9671 37.8212 59.9671 37.37 59.7126L17.9567 48.7928C17.5056 48.5383 17.2349 48.0801 17.2349 47.571V36.2822L27.9985 42.3275L37.37 47.6092C37.8083 47.8638 38.3497 47.8638 38.8008 47.6092L48.1723 42.3275L58.936 36.2822Z" fill="white"/>
<path d="M70.2795 17.6501L70.9498 17.1919C71.7619 16.6319 71.6588 15.4229 70.7693 15.0029L65.4326 12.4957C64.5303 12.0757 63.5119 12.7757 63.5893 13.7556L64.1049 19.5719C64.1951 20.5391 65.3166 21.0609 66.1287 20.5009L67.0826 19.8519C75.5647 33.3424 73.283 51.3129 61.4237 62.2581C49.7577 73.0251 31.7753 74.336 18.6655 65.3762C17.789 64.778 16.5773 64.9944 15.9714 65.8598C15.3655 66.7253 15.5847 67.9216 16.4612 68.5198C22.9452 72.9488 30.4862 75.1251 38.0143 75.1251C47.4374 75.1251 56.8346 71.7142 64.0662 65.0453C77.3049 52.8147 79.8572 32.6934 70.2795 17.6501Z" fill="white"/>
<path d="M59.7093 6.73042C45.1171 -3.24752 25.098 -1.78391 12.1043 10.2049C-1.46953 22.7409 -3.90586 42.7732 6.21327 58.071L5.27225 58.7073C4.46014 59.2673 4.56327 60.4764 5.45272 60.8964L10.7894 63.4036C11.6918 63.8236 12.7101 63.1236 12.6328 62.1436L12.1172 56.3274C12.0269 55.3601 10.9054 54.8383 10.0933 55.3983L9.39724 55.882C0.399604 42.1496 2.57812 24.2173 14.7468 12.9921C26.4128 2.22508 44.3952 0.901474 57.505 9.87398C58.3815 10.4721 59.5933 10.2558 60.1991 9.39036C60.805 8.52493 60.5858 7.32859 59.7093 6.73042Z" fill="white"/>
</g>
<defs>
<clipPath id="clip0_105209_1823">
<rect width="76.0417" height="75" fill="white" transform="translate(0 0.125)"/>
</clipPath>
</defs>
</svg>
