<svg width="75" height="75" viewBox="0 0 75 75" fill="none" xmlns="http://www.w3.org/2000/svg">
<path d="M64.75 0H10.75C7.0225 0 4 3.0225 4 6.75V68.25C4 71.9775 7.0225 75 10.75 75H64.75C68.4775 75 71.5 71.9775 71.5 68.25V6.75C71.5 3.0225 68.4775 0 64.75 0ZM20.875 63.75V48.75L29.3125 56.25L20.875 63.75ZM47.125 63.75V41.3531C47.0884 39.6028 46.2456 37.5 42.4375 37.5C34.8119 37.5 26.2581 41.3353 26.1728 41.3737L20.875 43.7738V11.25H28.375V32.5416C32.1194 31.3228 37.3534 30 42.4375 30C47.0734 30 49.8484 31.8225 51.3597 33.3516C54.5856 36.6141 54.6297 40.77 54.6252 41.25V63.75H47.125ZM49 23.4375H41.5C44.4475 19.5703 46.2981 15.5006 47.125 11.25H54.625C54.1188 15.51 52.3919 19.5938 49 23.4375Z" fill="white"/>
</svg>
