<svg width="177" height="134" viewBox="0 0 177 134" fill="none" xmlns="http://www.w3.org/2000/svg">
<g filter="url(#filter0_d_105209_1864)">
<rect x="4" width="169" height="112" rx="20" fill="url(#paint0_linear_105209_1864)"/>
<path d="M43.8528 124.205L35.4629 112H58.8352L50.4453 124.205C48.856 126.517 45.4421 126.517 43.8528 124.205Z" fill="#EAEFFF"/>
</g>
<path d="M30.1958 11.848V23H28.7398V11.848H30.1958ZM41.2949 14.072C41.9563 14.072 42.5536 14.216 43.0869 14.504C43.6203 14.7813 44.0363 15.2027 44.3349 15.768C44.6443 16.3333 44.7989 17.0213 44.7989 17.832V23H43.3589V18.04C43.3589 17.1653 43.1403 16.4987 42.7029 16.04C42.2656 15.5707 41.6683 15.336 40.9109 15.336C40.1429 15.336 39.5296 15.576 39.0709 16.056C38.6229 16.536 38.3989 17.2347 38.3989 18.152V23H36.9429V11.16H38.3989V15.48C38.6869 15.032 39.0816 14.6853 39.5829 14.44C40.0949 14.1947 40.6656 14.072 41.2949 14.072ZM46.6333 18.584C46.6333 17.688 46.8146 16.904 47.1773 16.232C47.54 15.5493 48.036 15.0213 48.6653 14.648C49.3053 14.2747 50.0146 14.088 50.7933 14.088C51.5613 14.088 52.228 14.2533 52.7933 14.584C53.3586 14.9147 53.78 15.3307 54.0573 15.832V14.232H55.5293V23H54.0573V21.368C53.7693 21.88 53.3373 22.3067 52.7613 22.648C52.196 22.9787 51.5346 23.144 50.7773 23.144C49.9986 23.144 49.2946 22.952 48.6653 22.568C48.036 22.184 47.54 21.6453 47.1773 20.952C46.8146 20.2587 46.6333 19.4693 46.6333 18.584ZM54.0573 18.6C54.0573 17.9387 53.924 17.3627 53.6573 16.872C53.3906 16.3813 53.028 16.008 52.5693 15.752C52.1213 15.4853 51.6253 15.352 51.0813 15.352C50.5373 15.352 50.0413 15.48 49.5933 15.736C49.1453 15.992 48.788 16.3653 48.5213 16.856C48.2546 17.3467 48.1213 17.9227 48.1213 18.584C48.1213 19.256 48.2546 19.8427 48.5213 20.344C48.788 20.8347 49.1453 21.2133 49.5933 21.48C50.0413 21.736 50.5373 21.864 51.0813 21.864C51.6253 21.864 52.1213 21.736 52.5693 21.48C53.028 21.2133 53.3906 20.8347 53.6573 20.344C53.924 19.8427 54.0573 19.2613 54.0573 18.6ZM61.2538 21.656L63.9738 14.232H65.5258L62.0858 23H60.3898L56.9498 14.232H58.5178L61.2538 21.656ZM74.9586 18.28C74.9586 18.5573 74.9426 18.8507 74.9106 19.16H67.9026C67.9559 20.024 68.2492 20.7013 68.7826 21.192C69.3266 21.672 69.9826 21.912 70.7506 21.912C71.3799 21.912 71.9026 21.768 72.3186 21.48C72.7452 21.1813 73.0439 20.7867 73.2146 20.296H74.7826C74.5479 21.1387 74.0786 21.8267 73.3746 22.36C72.6706 22.8827 71.7959 23.144 70.7506 23.144C69.9186 23.144 69.1719 22.9573 68.5106 22.584C67.8599 22.2107 67.3479 21.6827 66.9746 21C66.6012 20.3067 66.4146 19.5067 66.4146 18.6C66.4146 17.6933 66.5959 16.8987 66.9586 16.216C67.3212 15.5333 67.8279 15.0107 68.4786 14.648C69.1399 14.2747 69.8972 14.088 70.7506 14.088C71.5826 14.088 72.3186 14.2693 72.9586 14.632C73.5986 14.9947 74.0892 15.496 74.4306 16.136C74.7826 16.7653 74.9586 17.48 74.9586 18.28ZM73.4546 17.976C73.4546 17.4213 73.3319 16.9467 73.0866 16.552C72.8412 16.1467 72.5052 15.8427 72.0786 15.64C71.6626 15.4267 71.1986 15.32 70.6866 15.32C69.9506 15.32 69.3212 15.5547 68.7986 16.024C68.2866 16.4933 67.9932 17.144 67.9186 17.976H73.4546ZM80.6021 18.584C80.6021 17.688 80.7834 16.904 81.1461 16.232C81.5087 15.5493 82.0047 15.0213 82.6341 14.648C83.2741 14.2747 83.9834 14.088 84.7621 14.088C85.5301 14.088 86.1967 14.2533 86.7621 14.584C87.3274 14.9147 87.7487 15.3307 88.0261 15.832V14.232H89.4981V23H88.0261V21.368C87.7381 21.88 87.3061 22.3067 86.7301 22.648C86.1647 22.9787 85.5034 23.144 84.7461 23.144C83.9674 23.144 83.2634 22.952 82.6341 22.568C82.0047 22.184 81.5087 21.6453 81.1461 20.952C80.7834 20.2587 80.6021 19.4693 80.6021 18.584ZM88.0261 18.6C88.0261 17.9387 87.8927 17.3627 87.6261 16.872C87.3594 16.3813 86.9967 16.008 86.5381 15.752C86.0901 15.4853 85.5941 15.352 85.0501 15.352C84.5061 15.352 84.0101 15.48 83.5621 15.736C83.1141 15.992 82.7567 16.3653 82.4901 16.856C82.2234 17.3467 82.0901 17.9227 82.0901 18.584C82.0901 19.256 82.2234 19.8427 82.4901 20.344C82.7567 20.8347 83.1141 21.2133 83.5621 21.48C84.0101 21.736 84.5061 21.864 85.0501 21.864C85.5941 21.864 86.0901 21.736 86.5381 21.48C86.9967 21.2133 87.3594 20.8347 87.6261 20.344C87.8927 19.8427 88.0261 19.2613 88.0261 18.6ZM99.3282 23.144C98.6562 23.144 98.0535 23.032 97.5202 22.808C96.9869 22.5733 96.5655 22.2533 96.2562 21.848C95.9469 21.432 95.7762 20.9573 95.7442 20.424H97.2482C97.2909 20.8613 97.4935 21.2187 97.8562 21.496C98.2295 21.7733 98.7149 21.912 99.3122 21.912C99.8669 21.912 100.304 21.7893 100.624 21.544C100.944 21.2987 101.104 20.9893 101.104 20.616C101.104 20.232 100.934 19.9493 100.592 19.768C100.251 19.576 99.7229 19.3893 99.0082 19.208C98.3575 19.0373 97.8242 18.8667 97.4082 18.696C97.0029 18.5147 96.6509 18.2533 96.3522 17.912C96.0642 17.56 95.9202 17.1013 95.9202 16.536C95.9202 16.088 96.0535 15.6773 96.3202 15.304C96.5869 14.9307 96.9655 14.6373 97.4562 14.424C97.9469 14.2 98.5069 14.088 99.1362 14.088C100.107 14.088 100.891 14.3333 101.488 14.824C102.086 15.3147 102.406 15.9867 102.448 16.84H100.992C100.96 16.3813 100.774 16.0133 100.432 15.736C100.102 15.4587 99.6535 15.32 99.0882 15.32C98.5655 15.32 98.1495 15.432 97.8402 15.656C97.5309 15.88 97.3762 16.1733 97.3762 16.536C97.3762 16.824 97.4669 17.064 97.6482 17.256C97.8402 17.4373 98.0749 17.5867 98.3522 17.704C98.6402 17.8107 99.0349 17.9333 99.5362 18.072C100.166 18.2427 100.678 18.4133 101.072 18.584C101.467 18.744 101.803 18.9893 102.08 19.32C102.368 19.6507 102.518 20.0827 102.528 20.616C102.528 21.096 102.395 21.528 102.128 21.912C101.862 22.296 101.483 22.6 100.992 22.824C100.512 23.0373 99.9575 23.144 99.3282 23.144ZM106.04 15.848C106.328 15.3467 106.754 14.9307 107.32 14.6C107.896 14.2587 108.562 14.088 109.32 14.088C110.098 14.088 110.802 14.2747 111.432 14.648C112.072 15.0213 112.573 15.5493 112.936 16.232C113.298 16.904 113.48 17.688 113.48 18.584C113.48 19.4693 113.298 20.2587 112.936 20.952C112.573 21.6453 112.072 22.184 111.432 22.568C110.802 22.952 110.098 23.144 109.32 23.144C108.573 23.144 107.912 22.9787 107.336 22.648C106.77 22.3067 106.338 21.8853 106.04 21.384V27.16H104.584V14.232H106.04V15.848ZM111.992 18.584C111.992 17.9227 111.858 17.3467 111.592 16.856C111.325 16.3653 110.962 15.992 110.504 15.736C110.056 15.48 109.56 15.352 109.016 15.352C108.482 15.352 107.986 15.4853 107.528 15.752C107.08 16.008 106.717 16.3867 106.44 16.888C106.173 17.3787 106.04 17.9493 106.04 18.6C106.04 19.2613 106.173 19.8427 106.44 20.344C106.717 20.8347 107.08 21.2133 107.528 21.48C107.986 21.736 108.482 21.864 109.016 21.864C109.56 21.864 110.056 21.736 110.504 21.48C110.962 21.2133 111.325 20.8347 111.592 20.344C111.858 19.8427 111.992 19.256 111.992 18.584ZM123.396 18.28C123.396 18.5573 123.38 18.8507 123.348 19.16H116.34C116.393 20.024 116.687 20.7013 117.22 21.192C117.764 21.672 118.42 21.912 119.188 21.912C119.817 21.912 120.34 21.768 120.756 21.48C121.183 21.1813 121.481 20.7867 121.652 20.296H123.22C122.985 21.1387 122.516 21.8267 121.812 22.36C121.108 22.8827 120.233 23.144 119.188 23.144C118.356 23.144 117.609 22.9573 116.948 22.584C116.297 22.2107 115.785 21.6827 115.412 21C115.039 20.3067 114.852 19.5067 114.852 18.6C114.852 17.6933 115.033 16.8987 115.396 16.216C115.759 15.5333 116.265 15.0107 116.916 14.648C117.577 14.2747 118.335 14.088 119.188 14.088C120.02 14.088 120.756 14.2693 121.396 14.632C122.036 14.9947 122.527 15.496 122.868 16.136C123.22 16.7653 123.396 17.48 123.396 18.28ZM121.892 17.976C121.892 17.4213 121.769 16.9467 121.524 16.552C121.279 16.1467 120.943 15.8427 120.516 15.64C120.1 15.4267 119.636 15.32 119.124 15.32C118.388 15.32 117.759 15.5547 117.236 16.024C116.724 16.4933 116.431 17.144 116.356 17.976H121.892ZM124.774 18.6C124.774 17.6933 124.955 16.904 125.318 16.232C125.681 15.5493 126.182 15.0213 126.822 14.648C127.473 14.2747 128.214 14.088 129.046 14.088C130.123 14.088 131.009 14.3493 131.702 14.872C132.406 15.3947 132.87 16.12 133.094 17.048H131.526C131.377 16.5147 131.083 16.0933 130.646 15.784C130.219 15.4747 129.686 15.32 129.046 15.32C128.214 15.32 127.542 15.608 127.03 16.184C126.518 16.7493 126.262 17.5547 126.262 18.6C126.262 19.656 126.518 20.472 127.03 21.048C127.542 21.624 128.214 21.912 129.046 21.912C129.686 21.912 130.219 21.7627 130.646 21.464C131.073 21.1653 131.366 20.7387 131.526 20.184H133.094C132.859 21.08 132.39 21.8 131.686 22.344C130.982 22.8773 130.102 23.144 129.046 23.144C128.214 23.144 127.473 22.9573 126.822 22.584C126.182 22.2107 125.681 21.6827 125.318 21C124.955 20.3173 124.774 19.5173 124.774 18.6ZM135.789 12.808C135.511 12.808 135.277 12.712 135.085 12.52C134.893 12.328 134.797 12.0933 134.797 11.816C134.797 11.5387 134.893 11.304 135.085 11.112C135.277 10.92 135.511 10.824 135.789 10.824C136.055 10.824 136.279 10.92 136.461 11.112C136.653 11.304 136.749 11.5387 136.749 11.816C136.749 12.0933 136.653 12.328 136.461 12.52C136.279 12.712 136.055 12.808 135.789 12.808ZM136.493 14.232V23H135.037V14.232H136.493ZM138.43 18.584C138.43 17.688 138.612 16.904 138.974 16.232C139.337 15.5493 139.833 15.0213 140.462 14.648C141.102 14.2747 141.812 14.088 142.59 14.088C143.358 14.088 144.025 14.2533 144.59 14.584C145.156 14.9147 145.577 15.3307 145.854 15.832V14.232H147.326V23H145.854V21.368C145.566 21.88 145.134 22.3067 144.558 22.648C143.993 22.9787 143.332 23.144 142.574 23.144C141.796 23.144 141.092 22.952 140.462 22.568C139.833 22.184 139.337 21.6453 138.974 20.952C138.612 20.2587 138.43 19.4693 138.43 18.584ZM145.854 18.6C145.854 17.9387 145.721 17.3627 145.454 16.872C145.188 16.3813 144.825 16.008 144.366 15.752C143.918 15.4853 143.422 15.352 142.878 15.352C142.334 15.352 141.838 15.48 141.39 15.736C140.942 15.992 140.585 16.3653 140.318 16.856C140.052 17.3467 139.918 17.9227 139.918 18.584C139.918 19.256 140.052 19.8427 140.318 20.344C140.585 20.8347 140.942 21.2133 141.39 21.48C141.838 21.736 142.334 21.864 142.878 21.864C143.422 21.864 143.918 21.736 144.366 21.48C144.825 21.2133 145.188 20.8347 145.454 20.344C145.721 19.8427 145.854 19.2613 145.854 18.6ZM151.243 11.16V23H149.787V11.16H151.243ZM17.7028 30.808C17.4254 30.808 17.1908 30.712 16.9988 30.52C16.8068 30.328 16.7108 30.0933 16.7108 29.816C16.7108 29.5387 16.8068 29.304 16.9988 29.112C17.1908 28.92 17.4254 28.824 17.7028 28.824C17.9694 28.824 18.1934 28.92 18.3748 29.112C18.5668 29.304 18.6628 29.5387 18.6628 29.816C18.6628 30.0933 18.5668 30.328 18.3748 30.52C18.1934 30.712 17.9694 30.808 17.7028 30.808ZM18.4068 32.232V41H16.9508V32.232H18.4068ZM25.1603 32.072C26.2269 32.072 27.0909 32.3973 27.7523 33.048C28.4136 33.688 28.7443 34.616 28.7443 35.832V41H27.3043V36.04C27.3043 35.1653 27.0856 34.4987 26.6483 34.04C26.2109 33.5707 25.6136 33.336 24.8563 33.336C24.0883 33.336 23.4749 33.576 23.0163 34.056C22.5683 34.536 22.3443 35.2347 22.3443 36.152V41H20.8883V32.232H22.3443V33.48C22.6323 33.032 23.0216 32.6853 23.5123 32.44C24.0136 32.1947 24.5629 32.072 25.1603 32.072ZM32.8986 33.432V38.6C32.8986 39.0267 32.9893 39.3307 33.1706 39.512C33.352 39.6827 33.6666 39.768 34.1146 39.768H35.1866V41H33.8746C33.064 41 32.456 40.8133 32.0506 40.44C31.6453 40.0667 31.4426 39.4533 31.4426 38.6V33.432H30.3066V32.232H31.4426V30.024H32.8986V32.232H35.1866V33.432H32.8986ZM44.9508 36.28C44.9508 36.5573 44.9348 36.8507 44.9028 37.16H37.8948C37.9481 38.024 38.2414 38.7013 38.7748 39.192C39.3188 39.672 39.9748 39.912 40.7428 39.912C41.3721 39.912 41.8948 39.768 42.3108 39.48C42.7374 39.1813 43.0361 38.7867 43.2068 38.296H44.7748C44.5401 39.1387 44.0708 39.8267 43.3668 40.36C42.6628 40.8827 41.7881 41.144 40.7428 41.144C39.9108 41.144 39.1641 40.9573 38.5028 40.584C37.8521 40.2107 37.3401 39.6827 36.9668 39C36.5934 38.3067 36.4068 37.5067 36.4068 36.6C36.4068 35.6933 36.5881 34.8987 36.9508 34.216C37.3134 33.5333 37.8201 33.0107 38.4708 32.648C39.1321 32.2747 39.8894 32.088 40.7428 32.088C41.5748 32.088 42.3108 32.2693 42.9508 32.632C43.5908 32.9947 44.0814 33.496 44.4228 34.136C44.7748 34.7653 44.9508 35.48 44.9508 36.28ZM43.4468 35.976C43.4468 35.4213 43.3241 34.9467 43.0788 34.552C42.8334 34.1467 42.4974 33.8427 42.0708 33.64C41.6548 33.4267 41.1908 33.32 40.6788 33.32C39.9428 33.32 39.3134 33.5547 38.7908 34.024C38.2788 34.4933 37.9854 35.144 37.9108 35.976H43.4468ZM48.3286 33.656C48.5846 33.1547 48.9473 32.7653 49.4166 32.488C49.8966 32.2107 50.478 32.072 51.1606 32.072V33.576H50.7766C49.1446 33.576 48.3286 34.4613 48.3286 36.232V41H46.8726V32.232H48.3286V33.656ZM60.8414 36.28C60.8414 36.5573 60.8254 36.8507 60.7934 37.16H53.7854C53.8387 38.024 54.132 38.7013 54.6654 39.192C55.2094 39.672 55.8654 39.912 56.6334 39.912C57.2627 39.912 57.7854 39.768 58.2014 39.48C58.628 39.1813 58.9267 38.7867 59.0974 38.296H60.6654C60.4307 39.1387 59.9614 39.8267 59.2574 40.36C58.5534 40.8827 57.6787 41.144 56.6334 41.144C55.8014 41.144 55.0547 40.9573 54.3934 40.584C53.7427 40.2107 53.2307 39.6827 52.8574 39C52.484 38.3067 52.2974 37.5067 52.2974 36.6C52.2974 35.6933 52.4787 34.8987 52.8414 34.216C53.204 33.5333 53.7107 33.0107 54.3614 32.648C55.0227 32.2747 55.78 32.088 56.6334 32.088C57.4654 32.088 58.2014 32.2693 58.8414 32.632C59.4814 32.9947 59.972 33.496 60.3134 34.136C60.6654 34.7653 60.8414 35.48 60.8414 36.28ZM59.3374 35.976C59.3374 35.4213 59.2147 34.9467 58.9694 34.552C58.724 34.1467 58.388 33.8427 57.9614 33.64C57.5454 33.4267 57.0814 33.32 56.5694 33.32C55.8334 33.32 55.204 33.5547 54.6814 34.024C54.1694 34.4933 53.876 35.144 53.8014 35.976H59.3374ZM65.8673 41.144C65.1953 41.144 64.5926 41.032 64.0593 40.808C63.5259 40.5733 63.1046 40.2533 62.7953 39.848C62.4859 39.432 62.3153 38.9573 62.2833 38.424H63.7873C63.8299 38.8613 64.0326 39.2187 64.3953 39.496C64.7686 39.7733 65.2539 39.912 65.8513 39.912C66.4059 39.912 66.8433 39.7893 67.1633 39.544C67.4833 39.2987 67.6433 38.9893 67.6433 38.616C67.6433 38.232 67.4726 37.9493 67.1313 37.768C66.7899 37.576 66.2619 37.3893 65.5473 37.208C64.8966 37.0373 64.3633 36.8667 63.9473 36.696C63.5419 36.5147 63.1899 36.2533 62.8913 35.912C62.6033 35.56 62.4593 35.1013 62.4593 34.536C62.4593 34.088 62.5926 33.6773 62.8593 33.304C63.1259 32.9307 63.5046 32.6373 63.9953 32.424C64.4859 32.2 65.0459 32.088 65.6753 32.088C66.6459 32.088 67.4299 32.3333 68.0273 32.824C68.6246 33.3147 68.9446 33.9867 68.9873 34.84H67.5313C67.4993 34.3813 67.3126 34.0133 66.9713 33.736C66.6406 33.4587 66.1926 33.32 65.6273 33.32C65.1046 33.32 64.6886 33.432 64.3793 33.656C64.0699 33.88 63.9153 34.1733 63.9153 34.536C63.9153 34.824 64.0059 35.064 64.1873 35.256C64.3793 35.4373 64.6139 35.5867 64.8913 35.704C65.1793 35.8107 65.5739 35.9333 66.0753 36.072C66.7046 36.2427 67.2166 36.4133 67.6113 36.584C68.0059 36.744 68.3419 36.9893 68.6193 37.32C68.9073 37.6507 69.0566 38.0827 69.0673 38.616C69.0673 39.096 68.9339 39.528 68.6673 39.912C68.4006 40.296 68.0219 40.6 67.5313 40.824C67.0513 41.0373 66.4966 41.144 65.8673 41.144ZM72.8986 33.432V38.6C72.8986 39.0267 72.9893 39.3307 73.1706 39.512C73.352 39.6827 73.6666 39.768 74.1146 39.768H75.1866V41H73.8746C73.064 41 72.456 40.8133 72.0506 40.44C71.6453 40.0667 71.4426 39.4533 71.4426 38.6V33.432H70.3066V32.232H71.4426V30.024H72.8986V32.232H75.1866V33.432H72.8986ZM81.9684 30.808C81.691 30.808 81.4564 30.712 81.2644 30.52C81.0724 30.328 80.9764 30.0933 80.9764 29.816C80.9764 29.5387 81.0724 29.304 81.2644 29.112C81.4564 28.92 81.691 28.824 81.9684 28.824C82.235 28.824 82.459 28.92 82.6404 29.112C82.8324 29.304 82.9284 29.5387 82.9284 29.816C82.9284 30.0933 82.8324 30.328 82.6404 30.52C82.459 30.712 82.235 30.808 81.9684 30.808ZM82.6724 32.232V41H81.2164V32.232H82.6724ZM89.4259 32.072C90.4925 32.072 91.3565 32.3973 92.0179 33.048C92.6792 33.688 93.0099 34.616 93.0099 35.832V41H91.5699V36.04C91.5699 35.1653 91.3512 34.4987 90.9139 34.04C90.4765 33.5707 89.8792 33.336 89.1219 33.336C88.3539 33.336 87.7405 33.576 87.2819 34.056C86.8339 34.536 86.6099 35.2347 86.6099 36.152V41H85.1539V32.232H86.6099V33.48C86.8979 33.032 87.2872 32.6853 87.7779 32.44C88.2792 32.1947 88.8285 32.072 89.4259 32.072ZM101.11 29.16V41H99.6539V29.16H101.11ZM111.591 36.28C111.591 36.5573 111.575 36.8507 111.543 37.16H104.535C104.589 38.024 104.882 38.7013 105.415 39.192C105.959 39.672 106.615 39.912 107.383 39.912C108.013 39.912 108.535 39.768 108.951 39.48C109.378 39.1813 109.677 38.7867 109.847 38.296H111.415C111.181 39.1387 110.711 39.8267 110.007 40.36C109.303 40.8827 108.429 41.144 107.383 41.144C106.551 41.144 105.805 40.9573 105.143 40.584C104.493 40.2107 103.981 39.6827 103.607 39C103.234 38.3067 103.047 37.5067 103.047 36.6C103.047 35.6933 103.229 34.8987 103.591 34.216C103.954 33.5333 104.461 33.0107 105.111 32.648C105.773 32.2747 106.53 32.088 107.383 32.088C108.215 32.088 108.951 32.2693 109.591 32.632C110.231 32.9947 110.722 33.496 111.063 34.136C111.415 34.7653 111.591 35.48 111.591 36.28ZM110.087 35.976C110.087 35.4213 109.965 34.9467 109.719 34.552C109.474 34.1467 109.138 33.8427 108.711 33.64C108.295 33.4267 107.831 33.32 107.319 33.32C106.583 33.32 105.954 33.5547 105.431 34.024C104.919 34.4933 104.626 35.144 104.551 35.976H110.087ZM112.969 36.584C112.969 35.688 113.151 34.904 113.513 34.232C113.876 33.5493 114.372 33.0213 115.001 32.648C115.641 32.2747 116.351 32.088 117.129 32.088C117.897 32.088 118.564 32.2533 119.129 32.584C119.695 32.9147 120.116 33.3307 120.393 33.832V32.232H121.865V41H120.393V39.368C120.105 39.88 119.673 40.3067 119.097 40.648C118.532 40.9787 117.871 41.144 117.113 41.144C116.335 41.144 115.631 40.952 115.001 40.568C114.372 40.184 113.876 39.6453 113.513 38.952C113.151 38.2587 112.969 37.4693 112.969 36.584ZM120.393 36.6C120.393 35.9387 120.26 35.3627 119.993 34.872C119.727 34.3813 119.364 34.008 118.905 33.752C118.457 33.4853 117.961 33.352 117.417 33.352C116.873 33.352 116.377 33.48 115.929 33.736C115.481 33.992 115.124 34.3653 114.857 34.856C114.591 35.3467 114.457 35.9227 114.457 36.584C114.457 37.256 114.591 37.8427 114.857 38.344C115.124 38.8347 115.481 39.2133 115.929 39.48C116.377 39.736 116.873 39.864 117.417 39.864C117.961 39.864 118.457 39.736 118.905 39.48C119.364 39.2133 119.727 38.8347 119.993 38.344C120.26 37.8427 120.393 37.2613 120.393 36.6ZM125.782 33.656C126.038 33.1547 126.4 32.7653 126.87 32.488C127.35 32.2107 127.931 32.072 128.614 32.072V33.576H128.23C126.598 33.576 125.782 34.4613 125.782 36.232V41H124.326V32.232H125.782V33.656ZM134.567 32.072C135.633 32.072 136.497 32.3973 137.159 33.048C137.82 33.688 138.151 34.616 138.151 35.832V41H136.711V36.04C136.711 35.1653 136.492 34.4987 136.055 34.04C135.617 33.5707 135.02 33.336 134.263 33.336C133.495 33.336 132.881 33.576 132.423 34.056C131.975 34.536 131.751 35.2347 131.751 36.152V41H130.295V32.232H131.751V33.48C132.039 33.032 132.428 32.6853 132.919 32.44C133.42 32.1947 133.969 32.072 134.567 32.072ZM141.281 30.808C141.004 30.808 140.769 30.712 140.577 30.52C140.385 30.328 140.289 30.0933 140.289 29.816C140.289 29.5387 140.385 29.304 140.577 29.112C140.769 28.92 141.004 28.824 141.281 28.824C141.548 28.824 141.772 28.92 141.953 29.112C142.145 29.304 142.241 29.5387 142.241 29.816C142.241 30.0933 142.145 30.328 141.953 30.52C141.772 30.712 141.548 30.808 141.281 30.808ZM141.985 32.232V41H140.529V32.232H141.985ZM148.738 32.072C149.805 32.072 150.669 32.3973 151.33 33.048C151.992 33.688 152.322 34.616 152.322 35.832V41H150.882V36.04C150.882 35.1653 150.664 34.4987 150.226 34.04C149.789 33.5707 149.192 33.336 148.434 33.336C147.666 33.336 147.053 33.576 146.594 34.056C146.146 34.536 145.922 35.2347 145.922 36.152V41H144.466V32.232H145.922V33.48C146.21 33.032 146.6 32.6853 147.09 32.44C147.592 32.1947 148.141 32.072 148.738 32.072ZM158.317 32.088C159.074 32.088 159.735 32.2533 160.301 32.584C160.877 32.9147 161.303 33.3307 161.581 33.832V32.232H163.053V41.192C163.053 41.992 162.882 42.7013 162.541 43.32C162.199 43.9493 161.709 44.44 161.069 44.792C160.439 45.144 159.703 45.32 158.861 45.32C157.709 45.32 156.749 45.048 155.981 44.504C155.213 43.96 154.759 43.2187 154.621 42.28H156.061C156.221 42.8133 156.551 43.24 157.053 43.56C157.554 43.8907 158.157 44.056 158.861 44.056C159.661 44.056 160.311 43.8053 160.813 43.304C161.325 42.8027 161.581 42.0987 161.581 41.192V39.352C161.293 39.864 160.866 40.2907 160.301 40.632C159.735 40.9733 159.074 41.144 158.317 41.144C157.538 41.144 156.829 40.952 156.189 40.568C155.559 40.184 155.063 39.6453 154.701 38.952C154.338 38.2587 154.157 37.4693 154.157 36.584C154.157 35.688 154.338 34.904 154.701 34.232C155.063 33.5493 155.559 33.0213 156.189 32.648C156.829 32.2747 157.538 32.088 158.317 32.088ZM161.581 36.6C161.581 35.9387 161.447 35.3627 161.181 34.872C160.914 34.3813 160.551 34.008 160.093 33.752C159.645 33.4853 159.149 33.352 158.605 33.352C158.061 33.352 157.565 33.48 157.117 33.736C156.669 33.992 156.311 34.3653 156.045 34.856C155.778 35.3467 155.645 35.9227 155.645 36.584C155.645 37.256 155.778 37.8427 156.045 38.344C156.311 38.8347 156.669 39.2133 157.117 39.48C157.565 39.736 158.061 39.864 158.605 39.864C159.149 39.864 159.645 39.736 160.093 39.48C160.551 39.2133 160.914 38.8347 161.181 38.344C161.447 37.8427 161.581 37.2613 161.581 36.6Z" fill="black"/>
<path d="M62.993 72.4443C64.5676 72.4443 65.844 71.1674 65.844 69.5922C65.844 68.017 64.5676 66.74 62.993 66.74C61.4185 66.74 60.1421 68.017 60.1421 69.5922C60.1421 71.1674 61.4185 72.4443 62.993 72.4443Z" fill="black"/>
<path d="M78.9861 69.5921C78.9861 67.3521 76.3577 65.4043 72.269 64.2356C73.2981 60.1034 72.9365 56.8477 70.9896 55.7347C69.0426 54.6077 66.0526 55.9295 62.993 58.8791C59.9335 55.9156 56.9435 54.6077 54.9965 55.7347C53.3833 56.6669 52.7853 59.0321 53.3277 62.3991C53.425 62.9973 53.5641 63.6095 53.7171 64.2495C49.6284 65.4182 47 67.366 47 69.606C47 71.846 49.6284 73.7799 53.7171 74.9625C53.5641 75.5886 53.425 76.2147 53.3277 76.813C52.7853 80.1799 53.3833 82.5451 54.9965 83.4773C55.4694 83.7556 56.0117 83.8947 56.6097 83.8947C58.0282 83.8947 59.7388 83.1156 61.6023 81.5991C62.0613 81.2234 62.5341 80.7921 62.993 80.3469C63.452 80.7921 63.9248 81.2234 64.3837 81.5991C66.2473 83.1156 67.9578 83.8947 69.3764 83.8947C69.9744 83.8947 70.5167 83.7556 70.9896 83.4773C72.6028 82.5451 73.2008 80.1799 72.6723 76.813C72.575 76.2147 72.4359 75.6025 72.2829 74.9625C76.3716 73.7938 79 71.846 79 69.606L78.9861 69.5921ZM70.2942 56.9312C71.5458 57.6547 71.824 60.2982 70.92 63.8877C69.6128 63.5817 68.1804 63.3591 66.6645 63.2199C65.7884 61.9817 64.8705 60.8547 63.9665 59.8669C66.0804 57.8217 68.0413 56.7086 69.3903 56.7086C69.7379 56.7086 70.0439 56.7782 70.3081 56.9312H70.2942ZM67.4572 72.166C66.9565 73.0147 66.442 73.8495 65.9135 74.6286C64.9817 74.6982 64.0083 74.7399 63.007 74.7399C62.0056 74.7399 61.0322 74.6982 60.1004 74.6286C59.5719 73.8495 59.0435 73.0147 58.5567 72.166C58.0561 71.3034 57.611 70.4547 57.1938 69.5921C57.611 68.7295 58.0561 67.8808 58.5567 67.0182C59.0574 66.1417 59.5858 65.3208 60.1004 64.5556C61.0322 64.486 62.0056 64.4443 63.007 64.4443C64.0083 64.4443 64.9817 64.486 65.9135 64.5556C66.442 65.3208 66.9565 66.1417 67.4572 67.0182C67.9439 67.8669 68.4029 68.7295 68.8201 69.5921C68.4168 70.4408 67.9718 71.2895 67.4572 72.166ZM69.5432 71.2199C69.9326 72.1521 70.2664 73.0564 70.5445 73.9469C69.6545 74.1417 68.6949 74.3225 67.6797 74.4477C68.0135 73.933 68.3333 73.4043 68.6532 72.8617C68.9731 72.3191 69.2651 71.7625 69.5432 71.2199ZM62.993 78.3156C62.3672 77.6338 61.7414 76.8825 61.1295 76.0756C61.7414 76.1034 62.3533 76.1173 62.993 76.1173C63.6328 76.1173 64.2447 76.1034 64.8566 76.0756C64.2447 76.8825 63.6189 77.6199 62.993 78.3156ZM58.3064 74.4477C57.2912 74.3225 56.3316 74.1556 55.4415 73.9469C55.7197 73.0564 56.0535 72.1521 56.4429 71.2199C56.721 71.7625 57.013 72.3191 57.3329 72.8617C57.6528 73.4043 57.9726 73.933 58.3064 74.4477ZM56.4429 67.9504C56.0535 67.0182 55.7197 66.1138 55.4415 65.2234C56.3316 65.0286 57.2912 64.8477 58.3064 64.7225C57.9726 65.2373 57.6528 65.766 57.3329 66.3086C57.013 66.8512 56.721 67.3938 56.4429 67.9504ZM62.993 60.8547C63.605 61.5225 64.2308 62.2738 64.8566 63.0947C64.2447 63.0669 63.6328 63.053 62.993 63.053C62.3533 63.053 61.7414 63.0669 61.1295 63.0947C61.7553 62.2738 62.3672 61.5225 62.993 60.8547ZM68.6532 66.3225C68.3333 65.7799 68.0135 65.2512 67.6797 64.7364C68.6949 64.8617 69.6545 65.0286 70.5445 65.2373C70.2803 66.1138 69.9465 67.0182 69.5432 67.9643C69.2651 67.4217 68.9591 66.8651 68.6532 66.3225ZM54.6906 62.1764C54.2595 59.4634 54.621 57.5573 55.6919 56.9451C55.9561 56.7921 56.2621 56.7225 56.6097 56.7225C57.9587 56.7225 59.9196 57.8356 62.0335 59.8808C61.1156 60.8686 60.2116 61.9956 59.3355 63.2338C57.8196 63.373 56.3872 63.5956 55.08 63.9017C54.927 63.3173 54.8018 62.733 54.7184 62.1904L54.6906 62.1764ZM48.3907 69.5921C48.3907 68.1451 50.5324 66.5869 54.0926 65.5712C54.4959 66.8651 55.0243 68.2147 55.6502 69.5921C55.0243 70.9556 54.4959 72.3051 54.0926 73.613C50.5463 72.5973 48.3907 71.053 48.3907 69.5921ZM60.7262 80.486C58.5984 82.2112 56.7627 82.8512 55.6919 82.2391C54.621 81.6269 54.2595 79.7069 54.6906 77.0077C54.774 76.4512 54.9131 75.8808 55.0522 75.2964C56.3594 75.6025 57.7918 75.8251 59.3077 75.9643C60.1838 77.1886 61.0878 78.3295 62.0056 79.3312C61.5745 79.7486 61.1434 80.1521 60.7123 80.4999L60.7262 80.486ZM71.2955 77.0077C71.7266 79.7208 71.3651 81.6269 70.2942 82.2391C69.2234 82.8512 67.3877 82.2112 65.2599 80.486C64.8288 80.1382 64.3977 79.7347 63.9665 79.3173C64.8983 78.3156 65.8023 77.1886 66.6645 75.9643C68.1804 75.8251 69.6128 75.6025 70.92 75.2964C71.073 75.8808 71.1982 76.4651 71.2816 77.0077H71.2955ZM71.8935 73.5991C71.4902 72.3051 70.9618 70.9556 70.3359 69.5782C70.9757 68.1869 71.4902 66.8373 71.8935 65.5573C75.4537 66.573 77.5954 68.1173 77.5954 69.5782C77.5954 71.0391 75.4537 72.5834 71.8935 73.5991Z" fill="black"/>
<path d="M50.2861 102L48.5341 98.82H48.0421V102H45.9901V93.576H49.4341C50.0981 93.576 50.6621 93.692 51.1261 93.924C51.5981 94.156 51.9501 94.476 52.1821 94.884C52.4141 95.284 52.5301 95.732 52.5301 96.228C52.5301 96.788 52.3701 97.288 52.0501 97.728C51.7381 98.168 51.2741 98.48 50.6581 98.664L52.6021 102H50.2861ZM48.0421 97.368H49.3141C49.6901 97.368 49.9701 97.276 50.1541 97.092C50.3461 96.908 50.4421 96.648 50.4421 96.312C50.4421 95.992 50.3461 95.74 50.1541 95.556C49.9701 95.372 49.6901 95.28 49.3141 95.28H48.0421V97.368ZM60.1302 98.544C60.1302 98.736 60.1182 98.936 60.0942 99.144H55.4502C55.4822 99.56 55.6142 99.88 55.8462 100.104C56.0862 100.32 56.3782 100.428 56.7222 100.428C57.2342 100.428 57.5902 100.212 57.7902 99.78H59.9742C59.8622 100.22 59.6582 100.616 59.3622 100.968C59.0742 101.32 58.7102 101.596 58.2702 101.796C57.8302 101.996 57.3382 102.096 56.7942 102.096C56.1382 102.096 55.5542 101.956 55.0422 101.676C54.5302 101.396 54.1302 100.996 53.8422 100.476C53.5542 99.956 53.4102 99.348 53.4102 98.652C53.4102 97.956 53.5502 97.348 53.8302 96.828C54.1182 96.308 54.5182 95.908 55.0302 95.628C55.5422 95.348 56.1302 95.208 56.7942 95.208C57.4422 95.208 58.0182 95.344 58.5222 95.616C59.0262 95.888 59.4182 96.276 59.6982 96.78C59.9862 97.284 60.1302 97.872 60.1302 98.544ZM58.0302 98.004C58.0302 97.652 57.9102 97.372 57.6702 97.164C57.4302 96.956 57.1302 96.852 56.7702 96.852C56.4262 96.852 56.1342 96.952 55.8942 97.152C55.6622 97.352 55.5182 97.636 55.4622 98.004H58.0302ZM60.8048 98.64C60.8048 97.952 60.9328 97.348 61.1888 96.828C61.4528 96.308 61.8088 95.908 62.2568 95.628C62.7048 95.348 63.2048 95.208 63.7568 95.208C64.2288 95.208 64.6408 95.304 64.9928 95.496C65.3528 95.688 65.6288 95.94 65.8208 96.252V95.304H67.8728V102H65.8208V101.052C65.6208 101.364 65.3408 101.616 64.9808 101.808C64.6288 102 64.2168 102.096 63.7448 102.096C63.2008 102.096 62.7048 101.956 62.2568 101.676C61.8088 101.388 61.4528 100.984 61.1888 100.464C60.9328 99.936 60.8048 99.328 60.8048 98.64ZM65.8208 98.652C65.8208 98.14 65.6768 97.736 65.3888 97.44C65.1088 97.144 64.7648 96.996 64.3568 96.996C63.9488 96.996 63.6008 97.144 63.3128 97.44C63.0328 97.728 62.8928 98.128 62.8928 98.64C62.8928 99.152 63.0328 99.56 63.3128 99.864C63.6008 100.16 63.9488 100.308 64.3568 100.308C64.7648 100.308 65.1088 100.16 65.3888 99.864C65.6768 99.568 65.8208 99.164 65.8208 98.652ZM68.9493 98.652C68.9493 97.956 69.0893 97.348 69.3693 96.828C69.6573 96.308 70.0533 95.908 70.5573 95.628C71.0693 95.348 71.6533 95.208 72.3093 95.208C73.1493 95.208 73.8493 95.428 74.4093 95.868C74.9773 96.308 75.3493 96.928 75.5253 97.728H73.3413C73.1573 97.216 72.8013 96.96 72.2733 96.96C71.8973 96.96 71.5973 97.108 71.3733 97.404C71.1493 97.692 71.0373 98.108 71.0373 98.652C71.0373 99.196 71.1493 99.616 71.3733 99.912C71.5973 100.2 71.8973 100.344 72.2733 100.344C72.8013 100.344 73.1573 100.088 73.3413 99.576H75.5253C75.3493 100.36 74.9773 100.976 74.4093 101.424C73.8413 101.872 73.1413 102.096 72.3093 102.096C71.6533 102.096 71.0693 101.956 70.5573 101.676C70.0533 101.396 69.6573 100.996 69.3693 100.476C69.0893 99.956 68.9493 99.348 68.9493 98.652ZM80.3549 100.26V102H79.3109C78.5669 102 77.9869 101.82 77.5709 101.46C77.1549 101.092 76.9469 100.496 76.9469 99.672V97.008H76.1309V95.304H76.9469V93.672H78.9989V95.304H80.3429V97.008H78.9989V99.696C78.9989 99.896 79.0469 100.04 79.1429 100.128C79.2389 100.216 79.3989 100.26 79.6229 100.26H80.3549Z" fill="black"/>
<path d="M119.695 56.6667L116.001 63.0667L112.305 56.6667H100L116.001 84.3805L132 56.6667H119.695Z" fill="#41B883"/>
<path d="M119.695 56.6667L116.001 63.0667L112.305 56.6667H106.4L116.001 73.2945L125.6 56.6667H119.695Z" fill="#34495E"/>
<path d="M105.726 93.576L102.738 102H100.17L97.1822 93.576H99.3662L101.454 99.936L103.554 93.576H105.726ZM113.196 95.304V102H111.144V101.088C110.936 101.384 110.652 101.624 110.292 101.808C109.94 101.984 109.548 102.072 109.116 102.072C108.604 102.072 108.152 101.96 107.76 101.736C107.368 101.504 107.064 101.172 106.848 100.74C106.632 100.308 106.524 99.8 106.524 99.216V95.304H108.564V98.94C108.564 99.388 108.68 99.736 108.912 99.984C109.144 100.232 109.456 100.356 109.848 100.356C110.248 100.356 110.564 100.232 110.796 99.984C111.028 99.736 111.144 99.388 111.144 98.94V95.304H113.196ZM120.982 98.544C120.982 98.736 120.97 98.936 120.946 99.144H116.302C116.334 99.56 116.466 99.88 116.698 100.104C116.938 100.32 117.23 100.428 117.574 100.428C118.086 100.428 118.442 100.212 118.642 99.78H120.826C120.714 100.22 120.51 100.616 120.214 100.968C119.926 101.32 119.562 101.596 119.122 101.796C118.682 101.996 118.19 102.096 117.646 102.096C116.99 102.096 116.406 101.956 115.894 101.676C115.382 101.396 114.982 100.996 114.694 100.476C114.406 99.956 114.262 99.348 114.262 98.652C114.262 97.956 114.402 97.348 114.682 96.828C114.97 96.308 115.37 95.908 115.882 95.628C116.394 95.348 116.982 95.208 117.646 95.208C118.294 95.208 118.87 95.344 119.374 95.616C119.878 95.888 120.27 96.276 120.55 96.78C120.838 97.284 120.982 97.872 120.982 98.544ZM118.882 98.004C118.882 97.652 118.762 97.372 118.522 97.164C118.282 96.956 117.982 96.852 117.622 96.852C117.278 96.852 116.986 96.952 116.746 97.152C116.514 97.352 116.37 97.636 116.314 98.004H118.882ZM123.024 102.096C122.664 102.096 122.368 101.992 122.136 101.784C121.912 101.568 121.8 101.304 121.8 100.992C121.8 100.672 121.912 100.404 122.136 100.188C122.368 99.972 122.664 99.864 123.024 99.864C123.376 99.864 123.664 99.972 123.888 100.188C124.12 100.404 124.236 100.672 124.236 100.992C124.236 101.304 124.12 101.568 123.888 101.784C123.664 101.992 123.376 102.096 123.024 102.096ZM126.471 94.608C126.111 94.608 125.815 94.504 125.583 94.296C125.359 94.08 125.247 93.816 125.247 93.504C125.247 93.184 125.359 92.92 125.583 92.712C125.815 92.496 126.111 92.388 126.471 92.388C126.823 92.388 127.111 92.496 127.335 92.712C127.567 92.92 127.683 93.184 127.683 93.504C127.683 93.816 127.567 94.08 127.335 94.296C127.111 94.504 126.823 94.608 126.471 94.608ZM127.503 102.864C127.503 103.688 127.295 104.28 126.879 104.64C126.463 105.008 125.883 105.192 125.139 105.192H124.335V103.452H124.827C125.051 103.452 125.211 103.408 125.307 103.32C125.403 103.232 125.451 103.088 125.451 102.888V95.304H127.503V102.864ZM131.702 102.096C131.118 102.096 130.598 101.996 130.142 101.796C129.686 101.596 129.326 101.324 129.062 100.98C128.798 100.628 128.65 100.236 128.618 99.804H130.646C130.67 100.036 130.778 100.224 130.97 100.368C131.162 100.512 131.398 100.584 131.678 100.584C131.934 100.584 132.13 100.536 132.266 100.44C132.41 100.336 132.482 100.204 132.482 100.044C132.482 99.852 132.382 99.712 132.182 99.624C131.982 99.528 131.658 99.424 131.21 99.312C130.73 99.2 130.33 99.084 130.01 98.964C129.69 98.836 129.414 98.64 129.182 98.376C128.95 98.104 128.834 97.74 128.834 97.284C128.834 96.9 128.938 96.552 129.146 96.24C129.362 95.92 129.674 95.668 130.082 95.484C130.498 95.3 130.99 95.208 131.558 95.208C132.398 95.208 133.058 95.416 133.538 95.832C134.026 96.248 134.306 96.8 134.378 97.488H132.482C132.45 97.256 132.346 97.072 132.17 96.936C132.002 96.8 131.778 96.732 131.498 96.732C131.258 96.732 131.074 96.78 130.946 96.876C130.818 96.964 130.754 97.088 130.754 97.248C130.754 97.44 130.854 97.584 131.054 97.68C131.262 97.776 131.582 97.872 132.014 97.968C132.51 98.096 132.914 98.224 133.226 98.352C133.538 98.472 133.81 98.672 134.042 98.952C134.282 99.224 134.406 99.592 134.414 100.056C134.414 100.448 134.302 100.8 134.078 101.112C133.862 101.416 133.546 101.656 133.13 101.832C132.722 102.008 132.246 102.096 131.702 102.096Z" fill="black"/>
<defs>
<filter id="filter0_d_105209_1864" x="0" y="0" width="177" height="133.939" filterUnits="userSpaceOnUse" color-interpolation-filters="sRGB">
<feFlood flood-opacity="0" result="BackgroundImageFix"/>
<feColorMatrix in="SourceAlpha" type="matrix" values="0 0 0 0 0 0 0 0 0 0 0 0 0 0 0 0 0 0 127 0" result="hardAlpha"/>
<feOffset dy="4"/>
<feGaussianBlur stdDeviation="2"/>
<feComposite in2="hardAlpha" operator="out"/>
<feColorMatrix type="matrix" values="0 0 0 0 0 0 0 0 0 0 0 0 0 0 0 0 0 0 0.25 0"/>
<feBlend mode="normal" in2="BackgroundImageFix" result="effect1_dropShadow_105209_1864"/>
<feBlend mode="normal" in="SourceGraphic" in2="effect1_dropShadow_105209_1864" result="shape"/>
</filter>
<linearGradient id="paint0_linear_105209_1864" x1="88.5" y1="14.4358" x2="88.5076" y2="102.358" gradientUnits="userSpaceOnUse">
<stop stop-color="white"/>
<stop offset="1" stop-color="#EAF0FF"/>
</linearGradient>
</defs>
</svg>
