<svg width="75" height="75" viewBox="0 0 75 75" fill="none" xmlns="http://www.w3.org/2000/svg">
<g clip-path="url(#clip0_105805_1643)">
<path d="M67.5413 59.5248C67.2774 59.0419 66.9551 58.4849 66.4921 57.9954C65.7978 57.2666 65.3716 56.3441 65.1099 55.0039C64.8352 53.5876 64.3204 51.9232 62.8494 50.7897C63.7904 46.5734 63.1804 42.3745 60.9653 37.6925C59.237 34.044 56.771 30.9612 54.3851 27.9806L53.8897 27.3605C51.7179 24.6388 50.7553 21.7801 50.8613 18.3622C50.9522 15.4643 50.7229 12.4706 50.1756 9.4661C49.2519 4.39474 46.2387 1.12697 41.6874 0.267601C40.7443 0.0913759 39.7082 0 38.6115 0C37.7397 0 36.7987 0.056566 35.8124 0.169698C30.7138 0.750587 27.1836 4.0597 26.3681 9.02228C25.942 11.6265 25.8295 14.4504 26.035 17.4202C26.3811 22.4328 25.2324 26.3511 22.4139 29.7515C20.904 31.5747 19.4698 33.6589 17.8972 36.311C15.8552 39.755 13.5753 44.4108 13.9409 50.0152C13.7765 50.2176 13.6207 50.4177 13.4671 50.6157C12.5716 51.7579 11.8643 52.6586 10.6572 53.0132C7.30436 53.9923 5.91778 56.3397 6.53212 59.9861C6.77655 61.4372 6.73329 62.5729 6.39584 63.6694C5.80963 65.5643 5.87452 67.0808 6.59052 68.3078C7.32166 69.5566 8.66281 70.3725 10.6897 70.8011C11.1028 70.8881 11.5181 70.9534 11.9227 70.999C15.0289 71.3406 17.4019 71.7866 19.6321 72.9462C21.0792 73.6968 22.721 73.9731 23.8307 74.1123C24.3499 74.1798 24.8539 74.2124 25.3276 74.2124C27.9926 74.2124 30.0671 73.1834 31.4991 71.1535C32.0031 71.0991 32.5071 71.0404 33.0111 70.9838C35.1093 70.7467 37.279 70.4986 39.3923 70.3986C39.4962 70.392 39.6022 70.3899 39.7082 70.3899C40.4112 70.3899 41.1531 70.4899 41.9405 70.5965C42.5224 70.6749 43.1238 70.7554 43.7403 70.8011C45.0208 73.4727 47.4068 75 50.3184 75C50.6277 75 50.9457 74.9826 51.2637 74.9478C53.9503 74.6584 56.3427 73.3378 58.3761 71.023C59.4901 69.7546 60.8939 68.7103 62.6656 67.8335L62.8105 67.7617C63.8574 67.2439 64.9412 66.7066 65.9752 66.0343C68.3784 64.4657 68.9495 62.0921 67.5413 59.5248ZM65.032 64.5723C64.0413 65.2206 62.9641 65.7449 61.8998 66.2736C60.072 67.1787 58.4474 68.3143 57.0782 69.8721C55.4904 71.6778 53.5414 72.9506 51.0776 73.2182C48.4429 73.501 46.3209 72.324 45.2263 69.8851C44.9581 69.2912 44.6618 69.1128 44.0344 69.0758C42.4554 68.9822 40.8741 68.5841 39.3102 68.6602C36.444 68.7973 33.5908 69.1802 30.7376 69.487C30.5689 69.5044 30.3786 69.7046 30.2747 69.8677C28.793 72.2 26.5433 72.7025 24.047 72.3871C22.8141 72.2304 21.5162 71.965 20.426 71.3994C17.7956 70.0331 14.9813 69.5849 12.1108 69.2694C11.7539 69.2281 11.397 69.1715 11.0466 69.0975C8.11553 68.4797 7.16375 67.0438 8.04848 64.185C8.51788 62.6621 8.49192 61.2109 8.23883 59.6967C7.78457 57.0033 8.55465 55.439 11.1396 54.6841C13.32 54.0466 14.287 52.2713 15.5784 50.7571C15.6952 50.62 15.7017 50.3459 15.6865 50.1414C15.2972 45.3594 17.032 41.1692 19.3833 37.203C20.6899 34.9991 22.1154 32.8322 23.7442 30.8655C27.0408 26.8863 28.1137 22.3784 27.7612 17.3005C27.5773 14.6506 27.6465 11.9202 28.077 9.30511C28.7757 5.03655 31.724 2.38665 36.007 1.89931C37.7743 1.69698 39.6346 1.65129 41.3695 1.97981C45.5854 2.77391 47.7486 5.79584 48.4732 9.77939C48.9815 12.5751 49.2216 15.4708 49.133 18.3078C49.0118 22.1913 50.1691 25.4786 52.5399 28.4505C55.0643 31.6139 57.6471 34.7337 59.4014 38.441C61.385 42.6312 62.2567 46.9302 60.8377 51.6361C62.5596 52.317 63.1068 53.7703 63.4118 55.339C63.6974 56.7944 64.2035 58.1063 65.2397 59.1985C65.5577 59.5335 65.8021 59.9534 66.0271 60.3646C66.9897 62.1203 66.6998 63.4866 65.032 64.5723Z" fill="white"/>
<path d="M36.7015 15.1531C36.8205 14.5592 37.026 13.9587 37.3115 13.4279C38.6505 10.9368 41.5707 10.8889 43.02 13.3082C44.1752 15.238 44.0259 17.7095 42.5896 19.463C42.0185 19.2259 41.495 19.0083 41.136 18.8582C41.2246 17.8074 41.415 16.8871 41.3479 15.9842C41.2895 15.1792 40.8894 14.3569 39.9224 14.3525C39.0204 14.346 38.6765 15.127 38.4666 15.8754C38.3325 16.3519 38.3369 16.8675 38.2806 17.3679C36.5825 17.0263 36.3792 16.7718 36.7015 15.1531Z" fill="white"/>
<path d="M30.0972 12.8101C30.8673 12.0747 31.8126 11.9986 32.6238 12.6752C33.8308 13.6847 34.2375 15.0684 34.0601 16.5609C34.0125 16.9481 33.3117 17.2549 32.7406 17.7444C32.5957 16.8654 32.574 15.4513 31.4579 15.1576C30.6229 14.94 30.4693 16.2584 30.4585 16.7936C30.452 17.1069 31.0274 18.9693 30.8695 19.0954C30.8478 19.1128 30.6099 19.3087 30.3806 19.4979C28.6241 18.0163 28.4965 14.3417 30.0994 12.8101H30.0972Z" fill="white"/>
<path d="M42.1785 19.8112C40.7097 19.1455 39.254 18.4427 37.7679 17.8183C37.0497 17.5159 36.2753 17.3528 35.5247 17.1287C34.19 17.2266 33.1388 17.7944 32.1783 18.6124C31.5229 19.1737 30.8588 19.7285 30.1709 20.2485C28.4664 21.5365 28.4448 22.6874 30.145 24.0341C30.8761 24.6171 31.6678 25.124 32.3773 25.731C34.1078 27.2148 35.8146 27.4541 37.8436 26.4207C39.122 25.7702 40.4004 25.1153 41.6615 24.4322C42.0682 24.2103 42.4576 23.9318 42.7972 23.6142C44.346 22.163 44.0972 20.6836 42.1785 19.8112ZM34.5253 24.839C32.4509 24.6672 30.9843 23.4031 29.7037 21.915C29.7686 21.8215 29.8335 21.7257 29.9005 21.6322C30.225 21.9172 30.5538 22.1978 30.8761 22.4872C33.3443 24.715 35.2824 24.9892 38.2524 23.4815C39.1501 23.0268 39.9981 22.4763 40.8828 21.9977C41.2938 21.7736 41.7416 21.6191 42.172 21.4342C42.2131 21.5452 42.2564 21.6561 42.2975 21.7671C39.7753 22.9658 37.6186 25.0958 34.5253 24.839Z" fill="white"/>
<path d="M29.4918 69.4827C28.5443 71.1732 26.8873 71.5126 24.4992 71.654C23.5712 71.3951 21.9489 71.1927 20.5666 70.5009C17.9536 69.1955 15.1999 68.693 12.3597 68.4188C12.072 68.3927 11.7886 68.347 11.5053 68.2927C8.74077 67.7575 8.0875 66.8111 8.97439 64.1459C9.5195 62.5033 9.30751 60.9391 9.08255 59.3291C8.78836 57.2188 9.33996 56.1592 11.356 55.5131C13.0952 54.954 14.339 53.914 15.3859 52.4433C17.1597 49.9544 19.1779 49.8782 21.0988 52.2605C22.0419 53.4288 22.7017 54.8234 23.5107 56.1049C24.7004 57.9911 25.8901 59.8774 27.1145 61.7419C27.7483 62.7057 28.4837 63.6042 29.1197 64.568C30.1472 66.1257 30.4392 67.7901 29.4918 69.4827Z" fill="white"/>
<path d="M45.4211 63.1254C41.1164 65.9581 36.589 67.0394 31.6051 64.9616C29.8356 64.2219 28.9639 62.7316 27.9602 61.3066C28.0467 61.2131 28.0857 61.1304 28.1419 61.1152C30.2207 60.5604 30.8328 59.379 29.6691 57.521C28.8038 56.1395 27.5881 54.956 26.4179 53.7964C25.7105 53.0937 24.8085 52.5802 23.9649 52.0276C20.5558 49.7845 19.4504 47.2761 20.1816 43.2338C20.7569 40.0465 22.3101 37.2922 23.9627 34.5879C24.0514 34.6292 24.1379 34.6684 24.2245 34.7097C23.8026 35.5625 23.3917 36.4219 22.9569 37.2682C21.6763 39.7506 20.7375 42.3331 21.1204 45.1788C21.2696 46.3014 21.752 47.3783 22.083 48.477C22.1868 48.4444 22.2928 48.4117 22.3966 48.3769C22.6302 46.9998 22.7168 45.5769 23.1299 44.2563C23.807 42.0894 24.6182 39.9551 25.518 37.8709C27.0928 34.218 28.8233 30.6304 29.5869 26.6839C29.7145 26.0159 29.8032 25.3415 29.946 24.4495C30.7377 25.05 31.4104 25.5112 32.0269 26.0399C33.9629 27.7042 35.7864 28.0045 37.9972 26.8536C39.9591 25.8332 41.8713 24.7193 43.7619 23.6685C44.5904 25.9898 45.3778 28.5136 46.388 30.9415C47.6231 33.9113 49.0984 36.7765 50.3638 39.7332C51.0171 41.2561 51.4843 42.8639 51.9559 44.4565C52.3171 45.6792 52.2631 45.6944 53.7643 45.8728C55.1162 40.8428 53.0829 36.9375 50.0372 33.2564C50.1929 33.3369 50.3833 33.3848 50.4979 33.5066C53.7124 36.931 55.8084 40.808 55.2525 45.7118C55.1876 46.297 55.391 46.5211 55.8625 46.78C56.7429 47.2608 57.6601 47.7438 58.3934 48.4139C58.9147 48.8882 59.2262 49.6431 59.4944 50.3285C59.6004 50.6048 59.3387 51.0268 59.1462 51.3488C58.2376 48.8925 55.3996 46.9193 52.7303 46.9345C51.5233 46.941 50.8332 47.4849 50.4525 48.6902C50.3595 48.9861 50.2643 49.4038 50.0437 49.5148C47.7551 50.6744 47.3462 52.8304 47.0304 55.0626C46.6995 57.421 46.3534 59.7771 45.9705 62.1268C45.9121 62.4858 45.7044 62.9383 45.4211 63.1254Z" fill="white"/>
<path d="M56.479 51.2792C55.7262 52.3213 54.6814 53.0262 53.4117 53.0523C52.8341 53.0632 51.9407 52.6585 51.7244 52.1929C51.2788 51.227 51.0387 50.0978 51.0019 49.0252C50.8938 45.8967 58.19 48.9099 56.479 51.2792Z" fill="white"/>
<path d="M64.4739 63.8979C63.626 64.4374 62.7175 64.8899 61.809 65.3207C59.767 66.291 57.9391 67.5181 56.4487 69.2651C55.259 70.6597 53.7707 71.6692 51.9753 72.1695C48.2071 73.2182 45.1961 70.5683 45.7715 66.687C45.8774 65.9712 45.9964 65.2446 46.23 64.5679C47.277 61.5286 47.6945 58.3892 47.9065 55.1976C47.9714 54.2403 48.2115 53.2547 48.577 52.3671C48.8712 51.6491 49.4747 51.0617 50.0437 50.272C50.4611 51.425 50.658 52.2453 51.0387 52.9697C51.772 54.3687 52.9898 54.943 54.4738 54.4513C55.5445 54.0989 56.6023 53.555 57.5108 52.8827C59.0488 51.747 61.2249 52.1691 62.0383 53.9096C62.0707 53.9749 62.1183 54.0358 62.1334 54.1054C62.6288 56.5856 63.6476 58.7873 65.2073 60.8107C66.1785 62.0703 65.8367 63.032 64.4739 63.8979Z" fill="white"/>
</g>
<defs>
<clipPath id="clip0_105805_1643">
<rect width="62.2984" height="75" fill="white" transform="translate(6)"/>
</clipPath>
</defs>
</svg>
