<svg width="75" height="75" viewBox="0 0 75 75" fill="none" xmlns="http://www.w3.org/2000/svg">
<path fill-rule="evenodd" clip-rule="evenodd" d="M38.9649 73.2866C40.3298 74.4154 41.93 74.8968 43.6575 74.9859C44.3719 75.0232 45.1069 74.9882 45.8099 74.8602C46.925 74.6576 48.0371 74.4032 49.1217 74.0765C51.3305 73.41 53.2392 72.2584 54.6643 70.3984C55.4762 69.3382 56.1427 68.1918 56.5707 66.9244C56.9242 65.8787 57.2562 64.8222 57.5205 63.7521C57.7292 62.9089 57.8328 62.0384 57.9593 61.1769C58.0438 60.6072 58.0948 60.0314 58.1474 59.4563C58.2327 58.5233 58.3218 57.5918 58.3835 56.6564C58.4269 56.006 58.4254 55.3525 58.4505 54.7012C58.4589 54.5024 58.4909 54.3052 58.5099 54.1079C58.5259 53.9243 58.6189 53.8611 58.8062 53.8642C59.4643 53.8741 60.1239 53.8908 60.7812 53.8611C61.5178 53.8284 62.2596 53.7964 62.9847 53.6753C64.0166 53.5025 65.0403 53.2839 66.0527 53.0202C67.247 52.7072 68.343 52.1474 69.3987 51.5106C70.6265 50.768 71.7477 49.8974 72.6548 48.7755C73.4462 47.799 73.8209 46.6672 73.6297 45.4325C73.3525 43.6388 71.8452 42.4636 70.0926 42.3836C69.4574 42.3547 68.813 42.4217 68.1808 42.5017C67.4153 42.5991 66.6613 42.7713 65.8981 42.8848C65.371 42.964 64.8371 42.999 64.3115 43.0539L64.2971 42.9853C65.2796 41.1291 66.3033 39.2943 67.2325 37.413C67.9462 35.9689 68.5555 34.4737 69.1854 32.9885C70.2289 30.5298 71.0614 27.9958 71.7515 25.419C72.4118 22.9528 72.977 20.4598 73.156 17.9006C73.2276 16.8793 73.2771 15.8533 73.2702 14.8304C73.2657 14.0139 73.1773 13.1966 73.0958 12.3831C73.0029 11.4509 72.7211 10.5673 72.3311 9.71732C71.8177 8.59615 71.0203 7.67682 70.1817 6.80395C69.5107 6.10474 68.7719 5.46799 68.0399 4.83124C66.9956 3.92334 65.8212 3.19747 64.6025 2.55386C63.2211 1.82011 61.7576 1.25253 60.2427 0.862966C59.3196 0.630216 58.3906 0.421702 57.4566 0.237639C57.1245 0.170613 56.7893 0 56.455 0H50.1575C49.9298 0 49.7043 0.149286 49.4751 0.174421C47.9679 0.338928 46.4798 0.646244 45.0308 1.09223C44.49 1.25903 43.9964 1.16154 43.4823 1.11355C43.0877 1.07699 42.7001 0.975693 42.3055 0.955889C40.8043 0.881246 39.3015 0.77309 37.7995 0.789085C36.3615 0.804318 34.9379 1.04196 33.5464 1.4365C32.3818 1.76859 31.2416 2.17151 30.1966 2.78465C29.7502 3.04666 29.3953 2.99715 28.933 2.86462C27.3803 2.40975 25.8141 2.00233 24.2365 1.64291C23.2532 1.42279 22.241 1.31159 21.2363 1.208C20.2722 1.10786 19.3043 1.04763 18.3352 1.02749C17.3892 1.00692 16.4371 1.00768 15.4949 1.09147C13.9952 1.22476 12.5244 1.52942 11.094 2.02146C9.51726 2.56054 8.04392 3.36444 6.7373 4.39861C5.40438 5.45352 4.33501 6.73997 3.47661 8.21075C2.57099 9.76226 1.94871 11.4234 1.56331 13.1669C0.800619 16.6087 0.860327 20.4738 1.45515 23.9589C1.63338 25.0115 1.79409 26.0604 2.01041 27.1054C2.31279 28.5655 2.60146 30.0241 2.93659 31.4773C3.18032 32.5353 3.44462 33.5871 3.73482 34.6329C4.17658 36.2309 4.60768 37.8311 5.1081 39.4101C5.57347 40.8778 6.10359 42.3242 6.63295 43.7714C7.35829 45.7724 8.24737 47.7103 9.29116 49.5653C10.2013 51.1732 11.2395 52.679 12.6333 53.9167C13.5527 54.7332 14.5741 55.3601 15.763 55.6739C16.6918 55.9206 17.6652 55.9477 18.6063 55.7531C19.6972 55.5314 20.7163 55.0434 21.573 54.3326C21.6735 54.2511 21.7825 54.1879 21.902 54.3387C22.3545 54.9115 22.9592 55.2938 23.5922 55.6236C25.2998 56.5148 27.1606 56.7821 29.0503 56.8903C29.5088 56.9162 29.9704 56.8507 30.4312 56.8385C31.3307 56.8133 32.2036 56.6382 33.062 56.3899C33.5129 56.2596 33.9523 56.0936 34.4109 55.9397C34.4345 56.4279 34.4649 56.8971 34.4802 57.3671L34.5434 59.9285C34.5556 60.3185 34.5708 60.7085 34.6066 61.0969C34.6995 62.0978 34.7902 63.0986 34.9098 64.0964C34.992 64.7842 35.0788 65.4765 35.2403 66.1483C35.5649 67.5021 36.0089 68.8244 36.5671 70.0998C37.1015 71.3377 37.9235 72.4302 38.9649 73.2866ZM36.2297 60.515C36.1757 59.3124 36.1353 58.1091 36.1086 56.9055C36.0766 55.4263 36.066 53.9464 36.0454 52.4673L36.0416 52.4109C35.2898 52.8626 34.5487 53.3561 33.765 53.7636C32.8456 54.2412 31.8479 54.5177 30.8143 54.5961C30.0046 54.6571 29.1828 54.7127 28.377 54.6487C27.0547 54.5413 25.7325 54.3349 24.5488 53.6829C24.069 53.4186 23.5678 53.0964 23.2365 52.6752C22.4436 51.663 22.8237 50.3841 24.0195 49.7687C24.8459 49.3422 25.7477 49.1647 26.6434 48.9575C27.4231 48.7808 28.1946 48.5698 28.9558 48.3253C29.7068 48.0793 30.1806 47.47 30.649 46.8721L31.3909 45.9185L30.499 45.8256C29.6139 45.7433 28.7692 45.4988 27.9619 45.1408C27.2718 44.8354 27.2611 44.8019 26.7538 45.3518C25.9084 46.2696 25.0858 47.2103 24.2563 48.1441C23.6463 48.8311 23.0407 49.5219 22.4322 50.2112C21.832 50.8929 21.2683 51.6127 20.6202 52.2464C19.6589 53.1878 18.4997 53.7537 17.1165 53.6898C16.2292 53.6486 15.4172 53.3379 14.686 52.8298C13.1787 51.7803 12.1634 50.3102 11.238 48.7679C10.0536 46.7906 9.1434 44.6846 8.36574 42.5215C7.82724 41.0256 7.2857 39.5289 6.81651 38.0116C6.30543 36.3626 5.85681 34.6946 5.41581 33.025C5.0822 31.766 4.78667 30.4963 4.50486 29.2243C4.18043 27.7785 3.88029 26.3273 3.60457 24.8714C3.42101 23.8881 3.31514 22.8903 3.16661 21.9009C2.9663 20.5657 2.92974 19.2199 3.00286 17.8801C3.0676 16.6728 3.2405 15.4694 3.41263 14.2706C3.65103 12.6116 4.19791 11.0464 4.98394 9.56803C5.46882 8.66714 6.0631 7.82957 6.75329 7.07434C7.88817 5.81836 9.26145 4.91121 10.7894 4.22953C11.8564 3.75348 12.9845 3.46786 14.1338 3.24317C15.84 2.91108 17.5613 2.92479 19.2827 2.95983C20.0352 2.97582 20.7854 3.11216 21.5372 3.18757C23.1565 3.34828 24.7431 3.6895 26.3098 4.10918C27.4523 4.41537 28.5712 4.81296 29.703 5.15723C29.8157 5.19151 29.9825 5.18846 30.0762 5.12829C31.611 4.12594 33.2874 3.46481 35.072 3.08627C35.7491 2.94307 36.4483 2.87985 37.1407 2.83568C37.9816 2.78312 38.8308 2.73285 39.6702 2.78236C40.6794 2.84025 41.6855 2.98877 42.6886 3.12587C43.1761 3.1929 43.6514 3.36123 44.1389 3.40693C44.3734 3.42901 44.621 3.25916 44.8678 3.20128C46.1276 2.90956 47.382 2.58585 48.6532 2.35659C49.5992 2.18598 50.5665 2.10524 51.5278 2.0504C52.6017 1.98871 53.6817 1.94377 54.7542 1.99556C56.1099 2.06106 57.4558 2.25377 58.7841 2.563C60.4309 2.94612 62.009 3.50213 63.5103 4.27446C64.6322 4.85257 65.6978 5.52131 66.6582 6.34391C67.2874 6.88393 67.9317 7.41633 68.4992 8.01805C69.1999 8.75991 69.9143 9.50101 70.3546 10.4508C70.6859 11.1675 70.922 11.9094 70.9875 12.6931C71.0683 13.6688 71.1665 14.6476 71.1581 15.6248C71.1498 16.5586 71.0218 17.4916 70.9319 18.4239C70.7255 20.5474 70.2647 22.6252 69.7034 24.6757C69.235 26.3693 68.7042 28.0451 68.1122 29.6996C67.5722 31.2252 66.9484 32.7226 66.3185 34.2147C65.8542 35.3195 65.3502 36.4071 64.8074 37.4754C63.7761 39.4954 62.7037 41.4947 61.4629 43.3989C61.2489 43.7272 61.0455 44.0638 60.8368 44.3997C61.3784 44.7646 61.9915 44.8933 62.6085 44.9603C63.1957 45.0235 63.7944 45.0624 64.3808 45.0182C65.32 44.9481 66.2561 44.8141 67.1899 44.6838C68.1145 44.5543 69.0201 44.2916 69.9707 44.3609C70.9182 44.4302 71.5976 45.1507 71.5329 46.0388C71.4918 46.6009 71.2336 47.0831 70.8603 47.4951C69.0971 49.4404 66.8837 50.6195 64.3519 51.2006C63.3899 51.4215 62.3982 51.535 61.4134 51.6272C60.5724 51.7014 59.7275 51.7213 58.8839 51.6866C58.2654 51.6637 57.6523 51.5221 57.0201 51.4307C56.9561 52.0088 56.896 52.6112 56.8229 53.2114L56.5281 55.5139C56.439 56.2436 56.3697 56.9763 56.2775 57.706C56.1876 58.4144 56.0757 59.1189 55.9812 59.8265C55.8936 60.4853 55.8289 61.148 55.7299 61.806C55.5798 62.8145 55.4359 63.8252 55.2386 64.826C55.0025 66.0219 54.6414 67.1796 54.0496 68.2589C53.3291 69.5758 52.3077 70.5789 51.0068 71.3215C49.6663 72.087 48.2 72.4854 46.7156 72.819C45.6629 73.0558 44.5806 73.0939 43.515 72.9972C41.668 72.8304 40.0914 72.0405 38.8994 70.6078C37.7622 69.2407 36.9922 67.6747 36.7172 65.9008C36.5877 65.0567 36.4871 64.2085 36.4156 63.3576C36.3331 62.4115 36.2711 61.4638 36.2297 60.515ZM38.306 48.3634C38.3174 48.9956 38.2519 49.6278 38.255 50.26C38.2679 53.2023 38.2893 56.1454 38.3144 59.0884C38.319 59.569 38.3426 60.0512 38.3769 60.531C38.4492 61.5364 38.5208 62.5426 38.6183 63.5449C38.6884 64.2571 38.7836 64.967 38.8955 65.6738C39.0555 66.6738 39.511 67.565 40.0274 68.4173C40.4722 69.15 41.0518 69.7715 41.8143 70.2011C43.1106 70.93 44.5052 70.991 45.9112 70.7229C46.861 70.5423 47.7948 70.2506 48.7165 69.9498C49.6235 69.6589 50.4517 69.1635 51.137 68.5018C51.7837 67.8758 52.2422 67.1118 52.5514 66.2686C53.1509 64.6341 53.339 62.912 53.5865 61.2043C53.6795 60.5645 53.7602 59.9232 53.8447 59.2827C53.9415 58.5537 54.039 57.8256 54.1319 57.0967C54.202 56.5528 54.2644 56.0098 54.3307 55.4667C54.4259 54.6868 54.5257 53.9076 54.6163 53.1276C54.6856 52.5244 54.7435 51.9189 54.806 51.3141C54.8852 50.541 54.9697 49.7702 55.039 48.9956C55.0908 48.4091 55.0695 47.8112 55.1738 47.2346C55.365 46.1782 55.8647 45.2794 56.8015 44.6975C57.193 44.4553 57.6363 44.2954 58.0705 44.0897L57.9958 43.9762C57.5944 43.4553 57.1831 42.9427 56.7893 42.4156C56.1709 41.5884 55.7261 40.666 55.279 39.7391C54.8555 38.8601 54.3375 38.0284 53.892 37.1593C53.1143 35.6436 52.3222 34.1317 51.6054 32.5878C50.7044 30.6456 49.9945 28.6363 49.7714 26.4854C49.6762 25.5759 49.6518 24.6665 49.8369 23.7655C50.1316 22.3259 50.8826 21.2002 52.147 20.4278C53.32 19.7119 54.6262 19.4803 55.9645 19.408C56.7947 19.363 57.6302 19.3996 58.4917 19.3996L58.4635 19.2541C57.9273 18.133 57.4268 16.9927 56.8396 15.899C56.0124 14.3543 54.9522 12.962 53.7731 11.6695C52.9031 10.7084 51.947 9.82881 50.9169 9.04172C49.8978 8.27016 48.8238 7.58085 47.6775 7.01798C46.3158 6.34062 44.8776 5.82918 43.3939 5.49465C41.9582 5.17627 40.5148 4.98129 39.0418 4.96529C37.7866 4.95158 36.539 5.00947 35.3157 5.29205C33.4694 5.71934 31.7808 6.47948 30.3131 7.71033C29.5002 8.39176 28.7739 9.17043 28.1507 10.0288C27.4142 11.038 26.8216 12.1303 26.3144 13.2735C25.6182 14.8433 25.1406 16.4756 24.8131 18.1543C24.6501 18.9921 24.5222 19.8353 24.3919 20.6784C24.3462 20.9747 24.3432 21.2756 24.3158 21.6145L24.8733 21.3243L25.4171 21.0806C27.2581 20.239 29.1645 19.6974 31.2134 19.7591C32.0847 19.785 32.9165 19.9579 33.6919 20.3395C35.1771 21.0722 36.0454 22.3175 36.4232 23.8927C36.6837 24.9803 36.8627 26.0893 37.0363 27.196C37.1719 28.0597 37.3113 28.9326 37.3265 29.8039C37.3486 31.0774 37.2846 32.354 37.2153 33.6267C37.1561 34.709 36.9321 35.7759 36.5511 36.7907C35.8626 38.6309 35.0948 40.4414 34.3781 42.2709C34.1412 42.8756 33.9592 43.501 33.736 44.1659L34.6409 44.1667C34.7506 44.1689 34.8625 44.172 34.9684 44.1971C35.7918 44.3913 36.507 44.7646 37.0927 45.3983C37.8757 46.2391 38.2855 47.2232 38.306 48.3634ZM22.5799 39.6386C22.1132 38.5403 21.8317 37.3724 21.7467 36.1821C21.6675 35.0594 21.8007 33.9428 21.9165 32.8247C22.0277 31.7424 22.1222 30.6547 22.1542 29.5686C22.2082 27.781 22.0879 25.9979 22.0026 24.2118C21.9516 23.1485 22.0749 22.0723 22.1694 21.0067C22.2547 20.047 22.3613 19.085 22.5434 18.139C22.8473 16.5517 23.2517 14.9873 23.8268 13.4708C24.3714 12.0328 24.999 10.6336 25.8825 9.37305C26.4896 8.5078 27.1766 7.70119 27.8369 6.85574L27.6404 6.78567C25.4902 6.10322 23.3043 5.56853 21.0551 5.33622C19.9925 5.22578 18.9255 5.1618 17.8599 5.09782C17.5324 5.07878 17.2003 5.12296 16.872 5.15419C16.0593 5.23264 15.236 5.2631 14.4362 5.41544C13.0751 5.6744 11.7689 6.11007 10.5601 6.81918C9.49036 7.44865 8.55252 8.27915 7.7983 9.26489C6.95513 10.3548 6.38617 11.5872 5.97868 12.9003C5.49731 14.4503 5.26728 16.046 5.20559 17.6554C5.15151 19.0668 5.12485 20.4857 5.36859 21.8918C5.5491 22.9375 5.67021 23.9955 5.86976 25.0382C6.13803 26.4599 6.43922 27.8752 6.7731 29.283C7.25523 31.2968 7.73813 33.3122 8.31014 35.3016C8.85701 37.2066 9.4732 39.0947 10.1435 40.9608C10.6903 42.4834 11.3233 43.9778 11.9897 45.4516C12.4239 46.412 12.9494 47.3367 13.5009 48.2355C14.0866 49.1906 14.7538 50.097 15.6572 50.7901C16.7989 51.6645 17.6817 51.8008 18.8424 50.8404C19.339 50.4298 19.7587 49.921 20.1913 49.4374C20.8776 48.6696 21.5403 47.879 22.2242 47.1074C23.0948 46.1257 23.9761 45.1538 24.8512 44.175C25.0363 43.9686 25.2153 43.7554 25.395 43.5467L25.0957 43.2854C24.0166 42.2546 23.1604 41.0134 22.5799 39.6386ZM55.5912 10.3883C56.3071 11.2199 56.9861 12.0824 57.6264 12.9734C58.8537 14.6944 59.8415 16.5741 60.5626 18.561C60.8825 19.4407 61.1384 20.3288 61.0242 21.2908C60.945 21.9649 60.9503 22.6481 60.8917 23.326C60.8422 23.8896 60.7523 24.4502 60.6799 25.0123C60.5702 25.8593 60.4118 26.7047 60.3646 27.5555C60.3189 28.3659 60.3669 29.1839 60.4179 29.9951C60.4689 30.82 60.5801 31.6411 60.6555 32.4637C60.7409 33.3982 60.8566 34.3305 60.8825 35.2666C60.9038 36.0344 60.8353 36.8059 60.769 37.5737C60.6839 38.4936 60.4605 39.3954 60.1064 40.2486C59.8604 40.8534 59.5671 41.4384 59.2906 42.0431L59.4018 42.1604L59.5709 42.2914L59.7423 41.9868C61.1806 39.7237 62.4585 37.3626 63.5666 34.9208C64.2771 33.3447 64.9511 31.7524 65.5881 30.1452C66.5812 27.6468 67.3836 25.0766 67.9881 22.4569C68.2623 21.2809 68.4725 20.0866 68.6584 18.8923C68.8038 17.9585 68.9242 17.0141 68.9516 16.0719C68.9798 15.0726 68.9249 14.0657 68.8328 13.0694C68.7635 12.3169 68.5776 11.5598 68.1069 10.9466C67.3483 9.96181 66.5303 9.0204 65.5241 8.27473C64.6764 7.64788 63.8309 7.00275 62.9223 6.47567C61.4804 5.6386 59.9198 5.08259 58.2891 4.70328C56.6964 4.33235 55.0847 4.1724 53.4624 4.13812C52.5057 4.11756 51.5445 4.22038 50.5901 4.31102C49.7249 4.39176 48.865 4.53038 47.9944 4.64463C48.929 5.17018 49.8513 5.63784 50.7196 6.18853C52.5476 7.34626 54.1867 8.73934 55.5912 10.3883ZM31.8425 42.8071C32.4328 40.9182 33.2379 39.113 34.0171 37.2987C34.65 35.8264 34.9951 34.2764 35.1101 32.683C35.1672 31.8978 35.152 31.1026 35.1131 30.315C35.0752 29.4388 34.9949 28.5649 34.8724 27.6964C34.7087 26.589 34.5228 25.4807 34.2608 24.3938C33.9767 23.2178 33.2608 22.3983 32.033 22.0959C31.2858 21.9123 30.5424 21.92 29.786 22.0395C27.9405 22.3297 26.2512 23.0099 24.6776 24.0062C24.3607 24.2065 24.1855 24.3687 24.2411 24.8219C24.3569 25.7846 24.382 26.7626 24.3775 27.7337C24.3714 29.1085 24.3127 30.4833 24.2609 31.8574C24.2442 32.3045 24.1794 32.7508 24.1307 33.1964C24.0576 33.8788 23.9151 34.5605 23.9197 35.2422C23.9243 35.9445 23.9959 36.6627 24.1665 37.3429C24.708 39.4999 25.8536 41.264 27.7326 42.5093C28.888 43.2755 30.1661 43.6609 31.5699 43.7348C31.6628 43.4126 31.7488 43.1087 31.8425 42.8071ZM29.6367 24.307C29.3892 23.7883 29.5309 23.358 30.1037 23.1584C30.2438 23.1104 30.387 23.0571 30.5317 23.0434C30.732 23.0236 30.9339 23.0381 31.1357 23.0381C31.8631 23.0426 32.5623 23.1439 33.1617 23.6055C33.5471 23.9026 33.6507 24.2948 33.4009 24.7C33.0467 25.2736 32.5082 25.5615 31.8456 25.6163C30.8029 25.7024 30.0709 25.2164 29.6367 24.307ZM58.561 24.1174L58.7978 22.0418C58.8321 21.7646 58.6866 21.6884 58.4536 21.6815C57.7201 21.6617 56.9874 21.6351 56.2539 21.6229C55.4282 21.6077 54.6232 21.7402 53.8585 22.054C53.01 22.4036 52.3641 22.9627 52.0998 23.8866C51.9064 24.5674 51.8454 25.2789 51.92 25.9827C52.0231 27.0716 52.2697 28.1421 52.6535 29.1664C53.1669 30.5321 53.7031 31.897 54.3452 33.2055C55.2142 34.9764 56.1968 36.6917 57.1199 38.4359C57.3659 38.9013 57.5746 39.388 57.8313 39.931C58.3496 38.8507 58.6326 37.6725 58.6615 36.4746C58.6866 35.4837 58.6082 34.4905 58.5503 33.4995C58.5145 32.8933 58.4284 32.29 58.3698 31.6853C58.2883 30.8429 58.1634 29.9997 58.1436 29.155C58.1245 28.2958 58.1855 27.4321 58.2586 26.5737C58.3271 25.7526 58.4627 24.9369 58.561 24.1174ZM56.9089 23.4517C56.6362 24.2034 56.0543 24.6284 55.2988 24.7526C54.595 24.8691 53.978 24.6094 53.5195 24.0473C53.1928 23.6474 53.3177 23.1744 53.8074 22.9033C54.3695 22.5925 54.9872 22.514 55.7162 22.4668C55.9149 22.5026 56.212 22.5339 56.4953 22.6138C56.9059 22.7296 57.0582 23.0404 56.9089 23.4517ZM35.1268 46.6086C34.7247 46.2795 34.1915 46.2605 33.8092 46.6215C33.3339 47.0709 32.9157 47.5842 32.4976 48.09C32.0154 48.6749 31.5615 49.2828 30.94 49.736C30.0343 50.3948 28.9764 50.6675 27.9146 50.9257C27.0707 51.1313 26.2222 51.3225 25.376 51.519L25.3653 51.6287C25.6167 51.7445 25.8597 51.8899 26.1224 51.973C27.4135 52.3812 28.7273 52.5853 30.0922 52.4696C31.0763 52.385 32.0147 52.1702 32.9035 51.749C34.1275 51.1694 35.0697 50.2501 35.8702 49.1822C36.0043 49.004 36.0652 48.7405 36.0804 48.5104C36.1345 47.6985 35.7225 47.0945 35.1268 46.6086ZM58.6965 46.2567C58.0636 46.4692 57.5487 46.7929 57.3956 47.4776C57.2913 47.9407 57.2532 48.4198 57.2128 48.8943C57.2052 48.9781 57.3096 49.1319 57.3888 49.1533C57.8762 49.282 58.3667 49.4336 58.8649 49.4785C59.478 49.5341 60.1011 49.5166 60.718 49.4861C61.3837 49.4526 62.054 49.4092 62.7105 49.2995C64.2559 49.039 65.7526 48.6171 67.0809 47.7396C67.5608 47.4235 68.0346 47.1006 68.5114 46.7792L68.4718 46.7114C67.9637 46.7868 67.4572 46.8789 66.9469 46.933C65.908 47.0442 64.8683 47.1615 63.8256 47.2217C63.3221 47.2506 62.8118 47.1539 62.3046 47.1128C61.453 47.0435 60.6213 46.8546 59.9015 46.3991C59.4864 46.1371 59.1391 46.1081 58.6965 46.2567Z" fill="white"/>
</svg>
