<svg width="75" height="75" viewBox="0 0 75 75" fill="none" xmlns="http://www.w3.org/2000/svg">
<mask id="mask0_105805_1632" style="mask-type:luminance" maskUnits="userSpaceOnUse" x="0" y="0" width="75" height="75">
<path d="M75 0H0V75H75V0Z" fill="white"/>
</mask>
<g mask="url(#mask0_105805_1632)">
<path fill-rule="evenodd" clip-rule="evenodd" d="M8.1518 19.5646H37.4993V16.3036H19.5646V8.1518C19.5646 8.1518 19.5646 0 37.4993 0C55.4341 0 55.4341 8.1518 55.4341 8.1518C55.4341 8.1518 55.569 22.6695 55.5016 27.6383C55.4341 32.6085 52.1731 35.8682 47.2717 35.8682H27.7177C21.1957 35.8682 16.3049 40.759 16.3049 47.281V55.4328H8.15312C8.15312 55.4328 0 55.4341 0 37.4993C0 19.5646 8.1518 19.5646 8.1518 19.5646ZM30.9774 8.15312C30.9774 9.95361 29.5169 11.4141 27.7164 11.4141C25.9159 11.4141 24.4554 9.95361 24.4554 8.15312C24.4554 6.35264 25.9159 4.89214 27.7164 4.89214C29.5169 4.89214 30.9774 6.35264 30.9774 8.15312Z" fill="white"/>
<path fill-rule="evenodd" clip-rule="evenodd" d="M66.8494 55.4341H37.5019V58.6951H55.4366V66.8469C55.4366 66.8469 55.4366 74.9987 37.5019 74.9987C19.5671 74.9987 19.5671 66.8469 19.5671 66.8469V47.2823C19.5671 42.3902 22.8281 39.1305 27.7189 39.1305H47.2848C53.8068 39.1305 58.6976 34.2397 58.6976 27.7177V19.5659H66.8494C66.8494 19.5659 75.0012 19.5659 75.0012 37.5007C75.0012 55.4354 66.8494 55.4354 66.8494 55.4354V55.4341ZM50.5432 66.8482C50.5432 68.6487 49.0827 70.1092 47.2822 70.1092C45.4817 70.1092 44.0212 68.6487 44.0212 66.8482C44.0212 65.0477 45.4817 63.5872 47.2822 63.5872C49.0827 63.5872 50.5432 65.0477 50.5432 66.8482Z" fill="white"/>
</g>
</svg>
