<svg width="75" height="75" viewBox="0 0 75 75" fill="none" xmlns="http://www.w3.org/2000/svg">
<path d="M3.12843 30.5918C7.08013 32.5042 29.1438 41.4841 32.6015 43.1471C36.0593 44.81 38.5291 44.81 42.9748 42.565C47.3381 40.2369 68.0845 31.6728 72.0362 29.5941C74.0944 28.5132 75 27.6817 75 26.9334V19.367C75 18.6186 74.0121 17.9535 72.0362 17.2051L43.6334 6.06341C39.6817 4.56676 38.1175 4.64991 33.5071 6.31285C28.8145 7.9758 6.91548 16.7063 3.0461 18.2029C1.15258 18.9512 0.0823274 19.6996 0.0823274 20.4479H0V28.0143C0 28.8457 1.15258 29.6772 3.12843 30.5918ZM39.0231 31.6728L26.921 26.6008L44.292 23.9401L39.0231 31.6728ZM65.2854 19.6164L54.9945 23.6906L53.9243 24.1064L43.7157 20.0321L55.0768 15.459L65.2854 19.6164ZM35.236 12.1332L33.5895 8.97356L38.7761 11.0522L43.7157 9.3893L42.3985 12.632L47.4204 14.5444L40.9166 15.2096L39.4347 18.7018L37.1295 14.877L29.6378 14.2118L35.236 12.1332ZM22.3106 16.54C27.4149 16.54 31.6136 18.2029 31.6136 20.1984C31.6136 22.194 27.4973 23.8569 22.3106 23.8569C17.2064 23.8569 13.0077 22.194 13.0077 20.1984C13.0077 18.2029 17.2064 16.54 22.3106 16.54ZM3.12843 43.5628C7.08013 45.4752 29.1438 54.4551 32.6015 56.118C36.0593 57.781 38.5291 57.781 42.9748 55.536C47.3381 53.2079 68.0845 44.6437 72.0362 42.565C74.0944 41.4841 75 40.6527 75 39.9043V32.3379C75 33.0863 74.0121 33.8346 72.1186 34.9155C68.1668 36.9942 47.4204 45.6415 43.0571 47.8865C38.6937 50.2146 36.2239 50.2146 32.7662 48.4685C29.3085 46.8055 7.16246 37.8256 3.21076 35.9133C1.23491 34.9986 0.0823274 34.1672 0.0823274 33.4188V41.0684C3.12826e-07 41.8167 1.15258 42.565 3.12843 43.5628ZM3.12843 56.0349C7.08013 57.9473 29.1438 66.9272 32.6015 68.5901C36.0593 70.2531 38.5291 70.2531 42.9748 68.0081C47.3381 65.68 68.0845 57.1158 72.0362 55.0371C74.0944 53.9562 75 53.1247 75 52.3764V44.81C75 45.5583 74.0121 46.3067 72.1186 47.3876C68.1668 49.4663 47.4204 58.1136 43.0571 60.3585C38.6937 62.6867 36.2239 62.6867 32.7662 60.9406C29.3085 59.2776 7.16246 50.2977 3.21076 48.3853C1.23491 47.4707 0.0823274 46.6393 0.0823274 45.8909V53.5405C3.12826e-07 54.2057 1.15258 55.0371 3.12843 56.0349Z" fill="white"/>
</svg>
