<svg width="75" height="75" viewBox="0 0 75 75" fill="none" xmlns="http://www.w3.org/2000/svg">
<path fill-rule="evenodd" clip-rule="evenodd" d="M15.2574 11.7692C14.2829 12.6807 14.1225 13.321 14.1225 13.6584C14.1225 13.9958 14.2829 14.6361 15.2574 15.5476C16.2369 16.4638 17.8205 17.4299 20.0328 18.3052C24.4396 20.0486 30.7367 21.1943 37.8472 21.1943C44.9577 21.1943 51.2548 20.0486 55.6615 18.3052C57.8739 17.4299 59.4574 16.4638 60.437 15.5476C61.4115 14.6361 61.5719 13.9958 61.5719 13.6584C61.5719 13.321 61.4115 12.6807 60.437 11.7692C59.4574 10.853 57.8739 9.88692 55.6615 9.01166C51.2548 7.26824 44.9577 6.1225 37.8472 6.1225C30.7367 6.1225 24.4396 7.26824 20.0328 9.01166C17.8205 9.88692 16.2369 10.853 15.2574 11.7692ZM17.7805 3.31851C23.0683 1.22651 30.1642 0 37.8472 0C45.5302 0 52.626 1.22651 57.9139 3.31851C60.5488 4.36096 62.888 5.6784 64.6193 7.29784C66.3557 8.92199 67.6944 11.0695 67.6944 13.6584C67.6944 16.2474 66.3557 18.3948 64.6193 20.019C62.888 21.6384 60.5488 22.9559 57.9139 23.9983C52.626 26.0903 45.5302 27.3168 37.8472 27.3168C30.1642 27.3168 23.0683 26.0903 17.7805 23.9983C15.1455 22.9559 12.8064 21.6384 11.0751 20.019C9.33866 18.3948 8 16.2474 8 13.6584C8 11.0695 9.33866 8.92199 11.0751 7.29784C12.8064 5.6784 15.1455 4.36096 17.7805 3.31851Z" fill="white"/>
<path fill-rule="evenodd" clip-rule="evenodd" d="M11.0612 10.5978C12.7519 10.5978 14.1225 11.9677 14.1225 13.6584V29.5548C14.1225 29.8924 14.283 30.5328 15.2574 31.4442C16.2369 32.3605 17.8204 33.3265 20.0327 34.2017C24.4394 35.9451 30.7365 37.0907 37.8472 37.0907C44.9579 37.0907 51.255 35.9451 55.6617 34.2017C57.874 33.3265 59.4575 32.3605 60.437 31.4442C61.4114 30.5328 61.5719 29.8924 61.5719 29.5548V13.6584C61.5719 11.9677 62.9424 10.5978 64.6331 10.5978C66.3238 10.5978 67.6944 11.9677 67.6944 13.6584V29.5548C67.6944 32.1438 66.3558 34.2913 64.6194 35.9155C62.888 37.535 60.5489 38.8525 57.914 39.8949C52.6261 41.9868 45.5303 43.2132 37.8472 43.2132C30.1641 43.2132 23.0682 41.9868 17.7804 39.8949C15.1455 38.8525 12.8063 37.535 11.075 35.9155C9.33854 34.2913 8 32.1438 8 29.5548V13.6584C8 11.9677 9.37057 10.5978 11.0612 10.5978Z" fill="white"/>
<path fill-rule="evenodd" clip-rule="evenodd" d="M11.0612 26.4935C12.7519 26.4935 14.1225 27.8641 14.1225 29.5548V45.4505C14.1225 45.7881 14.283 46.4285 15.2574 47.34C16.2369 48.2562 17.8204 49.2222 20.0327 50.0975C24.4394 51.8408 30.7365 52.9864 37.8472 52.9864C44.9579 52.9864 51.255 51.8408 55.6617 50.0975C57.874 49.2222 59.4575 48.2562 60.437 47.34C61.4114 46.4285 61.5719 45.7881 61.5719 45.4505V29.5548C61.5719 27.8641 62.9424 26.4935 64.6331 26.4935C66.3238 26.4935 67.6944 27.8641 67.6944 29.5548V45.4505C67.6944 48.0395 66.3558 50.187 64.6194 51.8113C62.888 53.4308 60.5489 54.7482 57.914 55.7906C52.6261 57.8826 45.5303 59.1089 37.8472 59.1089C30.1641 59.1089 23.0682 57.8826 17.7804 55.7906C15.1455 54.7482 12.8063 53.4308 11.075 51.8113C9.33854 50.187 8 48.0395 8 45.4505V29.5548C8 27.8641 9.37057 26.4935 11.0612 26.4935Z" fill="white"/>
<path fill-rule="evenodd" clip-rule="evenodd" d="M11.0612 42.3846C12.7519 42.3846 14.1225 43.7552 14.1225 45.4458V61.3416C14.1225 61.6792 14.283 62.3196 15.2574 63.2311C16.2369 64.1473 17.8204 65.1133 20.0327 65.9885C24.4394 67.7319 30.7365 68.8775 37.8472 68.8775C44.9579 68.8775 51.255 67.7319 55.6617 65.9885C57.874 65.1133 59.4575 64.1473 60.437 63.2311C61.4114 62.3196 61.5719 61.6792 61.5719 61.3416V45.4458C61.5719 43.7552 62.9424 42.3846 64.6331 42.3846C66.3238 42.3846 67.6944 43.7552 67.6944 45.4458V61.3416C67.6944 63.9306 66.3558 66.0781 64.6194 67.7023C62.888 69.3218 60.5489 70.6393 57.914 71.6817C52.6261 73.7736 45.5303 75 37.8472 75C30.1641 75 23.0682 73.7736 17.7804 71.6817C15.1455 70.6393 12.8063 69.3218 11.075 67.7023C9.33854 66.0781 8 63.9306 8 61.3416V45.4458C8 43.7552 9.37057 42.3846 11.0612 42.3846Z" fill="white"/>
</svg>
