<svg preserveAspectRatio="xMidYMid meet" overflow="visible" style="display: block;" viewBox="0 0 60 60" fill="none" xmlns="http://www.w3.org/2000/svg">
<g id="Logo">
<path id="Vector" d="M35.3857 59.0029C33.8526 60.9327 30.7435 59.8767 30.706 57.4109L30.1645 21.3616H54.4047C58.7949 21.3616 61.2447 26.4326 58.5162 29.8687L35.3857 59.0029Z" fill="url(#paint0_linear_0_328)"/>
<path id="Vector_2" d="M35.3857 59.0029C33.8526 60.9327 30.7435 59.8767 30.706 57.4109L30.1645 21.3616H54.4047C58.7949 21.3616 61.2447 26.4326 58.5162 29.8687L35.3857 59.0029Z" fill="url(#paint1_linear_0_328)" fill-opacity="0.2"/>
<path id="Vector_3" d="M25.5275 0.997016C27.0606 -0.932761 30.1697 0.123256 30.2072 2.58908L30.4431 38.6384H6.50848C2.11823 38.6384 -0.331513 33.5674 2.39698 30.1313L25.5275 0.997016Z" fill="var(--fill-0, white)"/>
</g>
<defs>
<linearGradient id="paint0_linear_0_328" x1="28.224" y1="34.0016" x2="49.7679" y2="43.034" gradientUnits="userSpaceOnUse">
<stop stop-color="#CCCECE"/>
<stop offset="1" stop-color="white"/>
</linearGradient>
<linearGradient id="paint1_linear_0_328" x1="29.2533" y1="11.6912" x2="39.079" y2="30.1849" gradientUnits="userSpaceOnUse">
<stop/>
<stop offset="1" stop-opacity="0"/>
</linearGradient>
</defs>
</svg>
