<svg width="75" height="75" viewBox="0 0 75 75" fill="none" xmlns="http://www.w3.org/2000/svg">
<path d="M44.232 73.7536C42.3156 76.1658 38.4292 74.8458 38.3823 71.7635L37.7056 26.7019H68.0058C73.4936 26.7019 76.5557 33.0407 73.1451 37.3358L44.232 73.7536Z" fill="url(#paint0_linear_183750_2034)"/>
<path d="M44.232 73.7536C42.3156 76.1658 38.4292 74.8458 38.3823 71.7635L37.7056 26.7019H68.0058C73.4936 26.7019 76.5557 33.0407 73.1451 37.3358L44.232 73.7536Z" fill="url(#paint1_linear_183750_2034)" fill-opacity="0.2"/>
<path d="M31.9095 1.24635C33.8259 -1.16587 37.7122 0.154154 37.7591 3.23644L38.054 48.2981H8.13571C2.6479 48.2981 -0.414282 41.9593 2.99633 37.6642L31.9095 1.24635Z" fill="white"/>
<defs>
<linearGradient id="paint0_linear_183750_2034" x1="35.2799" y1="42.502" x2="62.2097" y2="53.7925" gradientUnits="userSpaceOnUse">
<stop stop-color="#CCCECE"/>
<stop offset="1" stop-color="white"/>
</linearGradient>
<linearGradient id="paint1_linear_183750_2034" x1="36.5665" y1="14.614" x2="48.8487" y2="37.7311" gradientUnits="userSpaceOnUse">
<stop/>
<stop offset="1" stop-opacity="0"/>
</linearGradient>
</defs>
</svg>
