<svg preserveAspectRatio="xMidYMid meet" overflow="visible" style="display: block;" viewBox="0 0 59.9454 60" fill="none" xmlns="http://www.w3.org/2000/svg">
<path id="Vector" d="M59.8908 4.7749C59.4543 2.48295 57.6807 0.627558 55.4161 0.136426C55.3069 0.109141 55.1978 0.109141 55.0614 0.0818554C55.0341 0.0818554 55.0068 0.0272851 54.9795 0H4.93861C4.91132 0.0272851 4.88404 0.0818554 4.82947 0.0818554C2.5648 0.463847 0.654843 2.26467 0.136426 4.55662C0.10914 4.63847 0.0545702 4.74761 0 4.85675V55.0341C0.0272851 55.0887 0.0818554 55.116 0.0818554 55.1705C0.627558 57.6808 2.15552 59.236 4.63847 59.8636C4.72033 59.8909 4.7749 59.9454 4.82947 60H55.0614C55.1159 59.9727 55.1432 59.9181 55.1978 59.8909C57.6807 59.3179 59.2087 57.8172 59.8363 55.3342C59.8636 55.2524 59.8363 55.1433 59.8636 55.0614C59.8636 55.0341 59.9181 55.0068 59.9454 54.9795V4.93861C59.9454 4.88404 59.8908 4.85675 59.8908 4.7749ZM34.7885 33.2606H34.4884C32.2237 33.2606 29.9318 33.2606 27.6671 33.2606C27.558 33.2606 27.4488 33.2606 27.3397 33.2606C27.3397 33.2879 27.3124 33.2879 27.3124 33.3151C27.3124 33.4243 27.3124 33.5334 27.3124 33.6426V54.6794H21.337V33.2879H13.8336V28.513H34.7612V33.2606H34.7885ZM54.9249 47.5307C54.8704 48.4584 54.7339 49.3588 54.352 50.2319C54.2428 50.5048 54.161 50.7503 54.0245 51.0232C53.5334 52.06 52.7149 52.7967 51.7599 53.397C50.6685 54.0791 49.4679 54.4611 48.2128 54.7067C46.8213 54.9795 45.4297 55.0614 44.0109 55.0068C43.3288 54.9795 42.6466 54.9795 41.9645 54.8977C40.3547 54.7067 38.7722 54.352 37.2988 53.6426C37.2169 53.6153 37.1078 53.4789 37.1078 53.397C37.1078 51.6235 37.1078 49.8499 37.1078 48.0764C37.1078 48.0491 37.1078 48.0218 37.1078 47.9673C37.5443 48.2674 37.9809 48.5675 38.4174 48.8131C39.4816 49.4407 40.6548 49.8772 41.8554 50.1501C42.8922 50.3956 43.929 50.4229 44.9659 50.3684C45.7571 50.3411 46.5484 50.1501 47.2578 49.7954C47.8854 49.4679 48.4038 49.0314 48.5402 48.2947C48.6767 47.6398 48.6221 46.985 48.2401 46.412C47.6944 45.5935 46.9304 45.075 46.0846 44.6385C45.1296 44.1746 44.1746 43.7654 43.1923 43.3288C41.7462 42.6739 40.3274 41.9645 39.1541 40.8731C38.1992 39.9727 37.4898 38.9086 37.1623 37.6262C36.9713 36.8622 36.9168 36.0982 36.9441 35.3342C36.9713 33.4516 37.6535 31.8417 38.9904 30.5048C40.0818 29.4134 41.4188 28.7585 42.8922 28.3765C43.9018 28.131 44.9113 27.94 45.9481 27.9127C46.6848 27.9127 47.4215 27.8308 48.1309 27.8581C49.2496 27.8854 50.341 27.94 51.4325 28.2128C52.1419 28.4038 52.8786 28.5948 53.588 28.7585C53.7244 28.7858 53.779 28.8677 53.779 29.0314C53.779 30.7231 53.779 32.442 53.779 34.1337C53.779 34.1883 53.779 34.2428 53.7517 34.3247C53.5334 34.1883 53.3424 34.0791 53.1514 33.97C52.2783 33.4789 51.3506 33.1514 50.3956 32.9059C49.3315 32.6603 48.2674 32.4966 47.176 32.5239C46.4393 32.5512 45.6753 32.6603 44.9932 32.9059C44.1473 33.206 43.4652 33.6971 43.1651 34.5975C42.9195 35.307 43.1105 35.9072 43.5471 36.4802C44.0928 37.1896 44.8295 37.6808 45.6207 38.0628C46.6848 38.5812 47.7762 39.0177 48.8131 39.5089C50.0136 40.0819 51.2142 40.6548 52.2237 41.5007C53.0968 42.2374 53.8881 43.0559 54.3247 44.1473C54.5702 44.8022 54.7885 45.4843 54.7885 46.221C54.8977 46.6576 54.9522 47.0941 54.9249 47.5307Z" fill="var(--fill-0, white)"/>
</svg>
